<?xml version="1.0" standalone="no"?>
<!DOCTYPE svg PUBLIC "-//W3C//DTD SVG 20010904//EN"
 "http://www.w3.org/TR/2001/REC-SVG-20010904/DTD/svg10.dtd">
<svg version="1.0" xmlns="http://www.w3.org/2000/svg"
 width="525.000000pt" height="525.000000pt" viewBox="0 0 525.000000 525.000000"
 preserveAspectRatio="xMidYMid meet">
<metadata>
Created by potrace 1.11, written by Peter Selinger 2001-2013
</metadata>
<g transform="translate(0.000000,525.000000) scale(0.100000,-0.100000)"
fill="#000000" stroke="none">
<path d="M0 2625 l0 -2625 2625 0 2625 0 0 2625 0 2625 -2625 0 -2625 0 0
-2625z m4212 1529 c56 -19 120 -72 153 -127 16 -28 100 -327 245 -867 241
-898 242 -903 200 -997 -27 -61 -89 -124 -148 -152 -78 -35 -570 -163 -632
-164 -142 -1 -246 79 -295 228 l-20 62 -895 -239 c-492 -132 -898 -243 -902
-247 -4 -3 0 -33 8 -66 36 -135 -28 -284 -147 -345 -19 -10 -165 -53 -324 -96
-252 -67 -296 -76 -349 -72 -109 9 -204 76 -247 172 -9 23 -115 406 -235 851
-165 616 -218 824 -218 870 -1 109 60 210 156 259 29 14 172 57 318 96 313 82
2469 659 2880 771 306 83 368 92 452 63z"/>
<path d="M2430 3346 c-883 -237 -1611 -434 -1618 -437 -10 -3 32 -177 179
-724 106 -396 193 -721 194 -722 0 -1 81 19 178 44 122 33 177 52 177 61 0 11
-61 250 -86 333 -4 13 22 23 140 54 79 21 149 41 156 45 9 5 8 20 -4 60 -9 30
-16 59 -16 65 0 6 21 16 47 23 54 15 55 14 72 -64 7 -30 15 -54 18 -54 28 0
243 66 243 74 0 6 -7 36 -15 66 -8 30 -15 56 -15 57 0 1 23 8 52 17 61 18 62
17 79 -61 7 -29 17 -53 22 -53 6 0 63 14 128 31 l117 31 -13 46 c-6 26 -15 57
-19 68 -6 19 -1 23 38 33 68 17 71 16 85 -41 8 -29 16 -58 20 -64 4 -8 42 -2
124 21 64 18 120 34 122 37 3 3 -2 27 -10 54 -22 73 -20 78 30 92 25 7 49 12
54 12 5 0 15 -24 22 -54 6 -30 15 -59 18 -65 5 -7 48 0 126 21 66 17 121 32
123 34 2 1 -4 29 -13 63 -9 34 -13 66 -10 70 2 5 21 12 41 15 19 4 41 9 48 12
9 3 19 -17 31 -61 9 -36 21 -65 26 -65 13 0 233 60 238 65 2 3 -4 32 -13 66
-10 33 -16 62 -14 64 2 2 27 10 55 18 l53 16 9 -37 c6 -20 13 -49 17 -64 3
-17 13 -28 23 -28 9 0 74 16 144 35 70 19 134 35 142 35 8 0 18 -15 23 -32 5
-18 26 -97 47 -175 21 -79 41 -143 46 -143 13 0 343 91 348 96 2 2 -80 320
-184 706 -103 387 -190 711 -193 721 -2 9 -9 17 -16 16 -6 -1 -733 -195 -1616
-433z m899 68 c154 -45 229 -226 155 -372 -111 -215 -421 -181 -490 54 -25 89
-2 179 64 247 78 81 163 103 271 71z m-1419 -395 c139 -63 200 -225 134 -357
-82 -166 -295 -202 -424 -72 -100 99 -106 251 -13 359 74 87 201 116 303 70z"/>
</g>
</svg>
