<?xml version="1.0" encoding="UTF-8" standalone="no"?>
<svg
   width="160mm"
   height="117mm"
   viewBox="0 0 16000 11700"
   version="1.1"
   stroke-width="28.222"
   stroke-linejoin="round"
   xml:space="preserve"
   id="svg698"
   sodipodi:docname="L05_1_circle_scan.svg"
   inkscape:version="1.1.2 (0a00cf5339, 2022-02-04)"
   xmlns:inkscape="http://www.inkscape.org/namespaces/inkscape"
   xmlns:sodipodi="http://sodipodi.sourceforge.net/DTD/sodipodi-0.dtd"
   xmlns:xlink="http://www.w3.org/1999/xlink"
   xmlns="http://www.w3.org/2000/svg"
   xmlns:svg="http://www.w3.org/2000/svg"><defs
   id="defs702"><marker
     style="overflow:visible"
     id="Arrow2Lstart"
     refX="0"
     refY="0"
     orient="auto"
     inkscape:stockid="Arrow2Lstart"
     inkscape:isstock="true"><path
       transform="matrix(1.1,0,0,1.1,1.1,0)"
       d="M 8.7185878,4.0337352 -2.2072895,0.01601326 8.7185884,-4.0017078 c -1.7454984,2.3720609 -1.7354408,5.6174519 -6e-7,8.035443 z"
       style="fill:context-stroke;fill-rule:evenodd;stroke:context-stroke;stroke-width:0.625;stroke-linejoin:round"
       id="path1279" /></marker><marker
     style="overflow:visible"
     id="Arrow2Lend"
     refX="0"
     refY="0"
     orient="auto"
     inkscape:stockid="Arrow2Lend"
     inkscape:isstock="true"><path
       transform="matrix(-1.1,0,0,-1.1,-1.1,0)"
       d="M 8.7185878,4.0337352 -2.2072895,0.01601326 8.7185884,-4.0017078 c -1.7454984,2.3720609 -1.7354408,5.6174519 -6e-7,8.035443 z"
       style="fill:context-stroke;fill-rule:evenodd;stroke:context-stroke;stroke-width:0.625;stroke-linejoin:round"
       id="path1282" /></marker><marker
     style="overflow:visible"
     id="Arrow2Lend-3"
     refX="0"
     refY="0"
     orient="auto"
     inkscape:stockid="Arrow2Lend"
     inkscape:isstock="true"><path
       transform="matrix(-1.1,0,0,-1.1,-1.1,0)"
       d="M 8.7185878,4.0337352 -2.2072895,0.01601326 8.7185884,-4.0017078 c -1.7454984,2.3720609 -1.7354408,5.6174519 -6e-7,8.035443 z"
       style="fill:context-stroke;fill-rule:evenodd;stroke:context-stroke;stroke-width:0.625;stroke-linejoin:round"
       id="path913" /></marker></defs><sodipodi:namedview
   id="namedview700"
   pagecolor="#ffffff"
   bordercolor="#666666"
   borderopacity="1.0"
   inkscape:pageshadow="2"
   inkscape:pageopacity="0.0"
   inkscape:pagecheckerboard="0"
   inkscape:document-units="mm"
   showgrid="false"
   inkscape:zoom="1.5215366"
   inkscape:cx="303.64041"
   inkscape:cy="257.9629"
   inkscape:window-width="1860"
   inkscape:window-height="1136"
   inkscape:window-x="60"
   inkscape:window-y="27"
   inkscape:window-maximized="1"
   inkscape:current-layer="svg698" />
 <path
   fill="rgb(255,255,255)"
   stroke="none"
   d="M 7987,11658 L -13,11658 -13,-13 15986,-13 15986,11658 7987,11658 Z"
   id="path2" />
 <path
   fill="none"
   stroke="rgb(179,179,179)"
   stroke-linejoin="round"
   d="M 8755,9797 L 2125,9797 2125,419 15386,419 15386,9797 8755,9797 Z"
   id="path4" />
 <path
   fill="none"
   stroke="rgb(179,179,179)"
   stroke-linejoin="round"
   d="M 2125,418 L 2125,9796"
   id="path6" />
 <path
   fill="none"
   stroke="rgb(179,179,179)"
   stroke-linejoin="round"
   d="M 3230,418 L 3230,9796"
   id="path8" />
 <path
   fill="none"
   stroke="rgb(179,179,179)"
   stroke-linejoin="round"
   d="M 4335,418 L 4335,9796"
   id="path10" />
 <path
   fill="none"
   stroke="rgb(179,179,179)"
   stroke-linejoin="round"
   d="M 5440,418 L 5440,9796"
   id="path12" />
 <path
   fill="none"
   stroke="rgb(179,179,179)"
   stroke-linejoin="round"
   d="M 6545,418 L 6545,9796"
   id="path14" />
 <path
   fill="none"
   stroke="rgb(179,179,179)"
   stroke-linejoin="round"
   d="M 7650,418 L 7650,9796"
   id="path16" />
 <path
   fill="none"
   stroke="rgb(179,179,179)"
   stroke-linejoin="round"
   d="M 8755,418 L 8755,9796"
   id="path18" />
 <path
   fill="none"
   stroke="rgb(179,179,179)"
   stroke-linejoin="round"
   d="M 9860,418 L 9860,9796"
   id="path20" />
 <path
   fill="none"
   stroke="rgb(179,179,179)"
   stroke-linejoin="round"
   d="M 10965,418 L 10965,9796"
   id="path22" />
 <path
   fill="none"
   stroke="rgb(179,179,179)"
   stroke-linejoin="round"
   d="M 12070,418 L 12070,9796"
   id="path24" />
 <path
   fill="none"
   stroke="rgb(179,179,179)"
   stroke-linejoin="round"
   d="M 13175,418 L 13175,9796"
   id="path26" />
 <path
   fill="none"
   stroke="rgb(179,179,179)"
   stroke-linejoin="round"
   d="M 14280,418 L 14280,9796"
   id="path28" />
 <path
   fill="none"
   stroke="rgb(179,179,179)"
   stroke-linejoin="round"
   d="M 15386,418 L 15386,9796"
   id="path30" />
 <path
   fill="none"
   stroke="rgb(179,179,179)"
   stroke-linejoin="round"
   d="M 15386,9796 L 2125,9796"
   id="path32" />
 <path
   fill="none"
   stroke="rgb(179,179,179)"
   stroke-linejoin="round"
   d="M 15386,8232 L 2125,8232"
   id="path34" />
 <path
   fill="none"
   stroke="rgb(179,179,179)"
   stroke-linejoin="round"
   d="M 15386,6669 L 2125,6669"
   id="path36" />
 <path
   fill="none"
   stroke="rgb(179,179,179)"
   stroke-linejoin="round"
   d="M 15386,5107 L 2125,5107"
   id="path38" />
 <path
   fill="none"
   stroke="rgb(179,179,179)"
   stroke-linejoin="round"
   d="M 15386,3544 L 2125,3544"
   id="path40" />
 <path
   fill="none"
   stroke="rgb(179,179,179)"
   stroke-linejoin="round"
   d="M 15386,1981 L 2125,1981"
   id="path42" />
 <path
   fill="none"
   stroke="rgb(179,179,179)"
   stroke-linejoin="round"
   d="M 15386,418 L 2125,418"
   id="path44" />
 <path
   fill="none"
   stroke="rgb(179,179,179)"
   stroke-linejoin="round"
   d="M 2125,9946 L 2125,9796"
   id="path46" />
 <path
   fill="none"
   stroke="rgb(179,179,179)"
   stroke-linejoin="round"
   d="M 2125,9946 L 2125,9796"
   id="path48" />
 <path
   fill="none"
   stroke="rgb(179,179,179)"
   stroke-linejoin="round"
   d="M 3230,9946 L 3230,9796"
   id="path50" />
 <path
   fill="none"
   stroke="rgb(179,179,179)"
   stroke-linejoin="round"
   d="M 3230,9946 L 3230,9796"
   id="path52" />
 <path
   fill="none"
   stroke="rgb(179,179,179)"
   stroke-linejoin="round"
   d="M 4335,9946 L 4335,9796"
   id="path54" />
 <path
   fill="none"
   stroke="rgb(179,179,179)"
   stroke-linejoin="round"
   d="M 4335,9946 L 4335,9796"
   id="path56" />
 <path
   fill="none"
   stroke="rgb(179,179,179)"
   stroke-linejoin="round"
   d="M 5440,9946 L 5440,9796"
   id="path58" />
 <path
   fill="none"
   stroke="rgb(179,179,179)"
   stroke-linejoin="round"
   d="M 5440,9946 L 5440,9796"
   id="path60" />
 <path
   fill="none"
   stroke="rgb(179,179,179)"
   stroke-linejoin="round"
   d="M 6545,9946 L 6545,9796"
   id="path62" />
 <path
   fill="none"
   stroke="rgb(179,179,179)"
   stroke-linejoin="round"
   d="M 6545,9946 L 6545,9796"
   id="path64" />
 <path
   fill="none"
   stroke="rgb(179,179,179)"
   stroke-linejoin="round"
   d="M 7650,9946 L 7650,9796"
   id="path66" />
 <path
   fill="none"
   stroke="rgb(179,179,179)"
   stroke-linejoin="round"
   d="M 7650,9946 L 7650,9796"
   id="path68" />
 <path
   fill="none"
   stroke="rgb(179,179,179)"
   stroke-linejoin="round"
   d="M 8755,9946 L 8755,9796"
   id="path70" />
 <path
   fill="none"
   stroke="rgb(179,179,179)"
   stroke-linejoin="round"
   d="M 8755,9946 L 8755,9796"
   id="path72" />
 <path
   fill="none"
   stroke="rgb(179,179,179)"
   stroke-linejoin="round"
   d="M 9860,9946 L 9860,9796"
   id="path74" />
 <path
   fill="none"
   stroke="rgb(179,179,179)"
   stroke-linejoin="round"
   d="M 9860,9946 L 9860,9796"
   id="path76" />
 <path
   fill="none"
   stroke="rgb(179,179,179)"
   stroke-linejoin="round"
   d="M 10965,9946 L 10965,9796"
   id="path78" />
 <path
   fill="none"
   stroke="rgb(179,179,179)"
   stroke-linejoin="round"
   d="M 10965,9946 L 10965,9796"
   id="path80" />
 <path
   fill="none"
   stroke="rgb(179,179,179)"
   stroke-linejoin="round"
   d="M 12070,9946 L 12070,9796"
   id="path82" />
 <path
   fill="none"
   stroke="rgb(179,179,179)"
   stroke-linejoin="round"
   d="M 12070,9946 L 12070,9796"
   id="path84" />
 <path
   fill="none"
   stroke="rgb(179,179,179)"
   stroke-linejoin="round"
   d="M 13175,9946 L 13175,9796"
   id="path86" />
 <path
   fill="none"
   stroke="rgb(179,179,179)"
   stroke-linejoin="round"
   d="M 13175,9946 L 13175,9796"
   id="path88" />
 <path
   fill="none"
   stroke="rgb(179,179,179)"
   stroke-linejoin="round"
   d="M 14280,9946 L 14280,9796"
   id="path90" />
 <path
   fill="none"
   stroke="rgb(179,179,179)"
   stroke-linejoin="round"
   d="M 14280,9946 L 14280,9796"
   id="path92" />
 <path
   fill="none"
   stroke="rgb(179,179,179)"
   stroke-linejoin="round"
   d="M 15386,9946 L 15386,9796"
   id="path94" />
 <path
   fill="none"
   stroke="rgb(179,179,179)"
   stroke-linejoin="round"
   d="M 15386,9946 L 15386,9796"
   id="path96" />
 <path
   fill="none"
   stroke="rgb(179,179,179)"
   stroke-linejoin="round"
   d="M 2125,9796 L 15386,9796"
   id="path98" />
 <path
   fill="none"
   stroke="rgb(179,179,179)"
   stroke-linejoin="round"
   d="M 1975,9796 L 2125,9796"
   id="path100" />
 <path
   fill="none"
   stroke="rgb(179,179,179)"
   stroke-linejoin="round"
   d="M 1975,9796 L 2125,9796"
   id="path102" />
 <path
   fill="none"
   stroke="rgb(179,179,179)"
   stroke-linejoin="round"
   d="M 1975,8232 L 2125,8232"
   id="path104" />
 <path
   fill="none"
   stroke="rgb(179,179,179)"
   stroke-linejoin="round"
   d="M 1975,8232 L 2125,8232"
   id="path106" />
 <path
   fill="none"
   stroke="rgb(179,179,179)"
   stroke-linejoin="round"
   d="M 1975,6669 L 2125,6669"
   id="path108" />
 <path
   fill="none"
   stroke="rgb(179,179,179)"
   stroke-linejoin="round"
   d="M 1975,6669 L 2125,6669"
   id="path110" />
 <path
   fill="none"
   stroke="rgb(179,179,179)"
   stroke-linejoin="round"
   d="M 1975,5107 L 2125,5107"
   id="path112" />
 <path
   fill="none"
   stroke="rgb(179,179,179)"
   stroke-linejoin="round"
   d="M 1975,5107 L 2125,5107"
   id="path114" />
 <path
   fill="none"
   stroke="rgb(179,179,179)"
   stroke-linejoin="round"
   d="M 1975,3544 L 2125,3544"
   id="path116" />
 <path
   fill="none"
   stroke="rgb(179,179,179)"
   stroke-linejoin="round"
   d="M 1975,3544 L 2125,3544"
   id="path118" />
 <path
   fill="none"
   stroke="rgb(179,179,179)"
   stroke-linejoin="round"
   d="M 1975,1981 L 2125,1981"
   id="path120" />
 <path
   fill="none"
   stroke="rgb(179,179,179)"
   stroke-linejoin="round"
   d="M 1975,1981 L 2125,1981"
   id="path122" />
 <path
   fill="none"
   stroke="rgb(179,179,179)"
   stroke-linejoin="round"
   d="M 1975,418 L 2125,418"
   id="path124" />
 <path
   fill="none"
   stroke="rgb(179,179,179)"
   stroke-linejoin="round"
   d="M 1975,418 L 2125,418"
   id="path126" />
 <path
   fill="none"
   stroke="rgb(179,179,179)"
   stroke-linejoin="round"
   d="M 2125,9796 L 2125,418"
   id="path128" />
 <path
   fill="rgb(0,69,134)"
   stroke="none"
   d="M 7403,9136 L 7381,9114 7378,9117 7400,9139 7378,9161 7381,9164 7403,9142 7425,9164 7428,9161 7406,9139 7428,9117 7425,9114 7403,9136 Z"
   id="path130" />
 <path
   fill="none"
   stroke="rgb(0,69,134)"
   stroke-linejoin="round"
   d="M 7403,9136 L 7381,9114 7378,9117 7400,9139 7378,9161 7381,9164 7403,9142 7425,9164 7428,9161 7406,9139 7428,9117 7425,9114 7403,9136 Z"
   id="path132" />
 <path
   fill="rgb(0,69,134)"
   stroke="none"
   d="M 7656,9136 L 7634,9114 7631,9117 7653,9139 7631,9161 7634,9164 7656,9142 7678,9164 7681,9161 7659,9139 7681,9117 7678,9114 7656,9136 Z"
   id="path134" />
 <path
   fill="none"
   stroke="rgb(0,69,134)"
   stroke-linejoin="round"
   d="M 7656,9136 L 7634,9114 7631,9117 7653,9139 7631,9161 7634,9164 7656,9142 7678,9164 7681,9161 7659,9139 7681,9117 7678,9114 7656,9136 Z"
   id="path136" />
 <path
   fill="rgb(0,69,134)"
   stroke="none"
   d="M 7920,9136 L 7897,9114 7895,9117 7917,9139 7895,9161 7897,9164 7920,9142 7942,9164 7945,9161 7922,9139 7945,9117 7942,9114 7920,9136 Z"
   id="path138" />
 <path
   fill="none"
   stroke="rgb(0,69,134)"
   stroke-linejoin="round"
   d="M 7920,9136 L 7897,9114 7895,9117 7917,9139 7895,9161 7897,9164 7920,9142 7942,9164 7945,9161 7922,9139 7945,9117 7942,9114 7920,9136 Z"
   id="path140" />
 <path
   fill="rgb(0,69,134)"
   stroke="none"
   d="M 8181,9136 L 8158,9114 8156,9117 8178,9139 8156,9161 8158,9164 8181,9142 8203,9164 8206,9161 8183,9139 8206,9117 8203,9114 8181,9136 Z"
   id="path142" />
 <path
   fill="none"
   stroke="rgb(0,69,134)"
   stroke-linejoin="round"
   d="M 8181,9136 L 8158,9114 8156,9117 8178,9139 8156,9161 8158,9164 8181,9142 8203,9164 8206,9161 8183,9139 8206,9117 8203,9114 8181,9136 Z"
   id="path144" />
 <path
   fill="rgb(0,69,134)"
   stroke="none"
   d="M 8447,9042 L 8425,9020 8422,9023 8445,9045 8422,9067 8425,9070 8447,9048 8470,9070 8472,9067 8450,9045 8472,9023 8470,9020 8447,9042 Z"
   id="path146" />
 <path
   fill="none"
   stroke="rgb(0,69,134)"
   stroke-linejoin="round"
   d="M 8447,9042 L 8425,9020 8422,9023 8445,9045 8422,9067 8425,9070 8447,9048 8470,9070 8472,9067 8450,9045 8472,9023 8470,9020 8447,9042 Z"
   id="path148" />
 <path
   fill="rgb(0,69,134)"
   stroke="none"
   d="M 8723,9042 L 8701,9020 8698,9023 8720,9045 8698,9067 8701,9070 8723,9048 8745,9070 8748,9067 8726,9045 8748,9023 8745,9020 8723,9042 Z"
   id="path150" />
 <path
   fill="none"
   stroke="rgb(0,69,134)"
   stroke-linejoin="round"
   d="M 8723,9042 L 8701,9020 8698,9023 8720,9045 8698,9067 8701,9070 8723,9048 8745,9070 8748,9067 8726,9045 8748,9023 8745,9020 8723,9042 Z"
   id="path152" />
 <path
   fill="rgb(0,69,134)"
   stroke="none"
   d="M 9001,9042 L 8979,9020 8976,9023 8998,9045 8976,9067 8979,9070 9001,9048 9023,9070 9026,9067 9004,9045 9026,9023 9023,9020 9001,9042 Z"
   id="path154" />
 <path
   fill="none"
   stroke="rgb(0,69,134)"
   stroke-linejoin="round"
   d="M 9001,9042 L 8979,9020 8976,9023 8998,9045 8976,9067 8979,9070 9001,9048 9023,9070 9026,9067 9004,9045 9026,9023 9023,9020 9001,9042 Z"
   id="path156" />
 <path
   fill="rgb(0,69,134)"
   stroke="none"
   d="M 9294,9042 L 9272,9020 9269,9023 9291,9045 9269,9067 9272,9070 9294,9048 9316,9070 9319,9067 9297,9045 9319,9023 9316,9020 9294,9042 Z"
   id="path158" />
 <path
   fill="none"
   stroke="rgb(0,69,134)"
   stroke-linejoin="round"
   d="M 9294,9042 L 9272,9020 9269,9023 9291,9045 9269,9067 9272,9070 9294,9048 9316,9070 9319,9067 9297,9045 9319,9023 9316,9020 9294,9042 Z"
   id="path160" />
 <path
   fill="rgb(0,69,134)"
   stroke="none"
   d="M 9557,2822 L 9534,2800 9532,2803 9554,2825 9532,2847 9534,2850 9557,2828 9579,2850 9582,2847 9559,2825 9582,2803 9579,2800 9557,2822 Z"
   id="path162" />
 <path
   fill="none"
   stroke="rgb(0,69,134)"
   stroke-linejoin="round"
   d="M 9557,2822 L 9534,2800 9532,2803 9554,2825 9532,2847 9534,2850 9557,2828 9579,2850 9582,2847 9559,2825 9582,2803 9579,2800 9557,2822 Z"
   id="path164" />
 <path
   fill="rgb(0,69,134)"
   stroke="none"
   d="M 9841,2072 L 9819,2049 9816,2052 9838,2074 9816,2097 9819,2099 9841,2077 9863,2099 9866,2097 9844,2074 9866,2052 9863,2049 9841,2072 Z"
   id="path166" />
 <path
   fill="none"
   stroke="rgb(0,69,134)"
   stroke-linejoin="round"
   d="M 9841,2072 L 9819,2049 9816,2052 9838,2074 9816,2097 9819,2099 9841,2077 9863,2099 9866,2097 9844,2074 9866,2052 9863,2049 9841,2072 Z"
   id="path168" />
 <path
   fill="rgb(0,69,134)"
   stroke="none"
   d="M 10090,3447 L 10068,3425 10065,3428 10087,3450 10065,3472 10068,3475 10090,3453 10112,3475 10115,3472 10093,3450 10115,3428 10112,3425 10090,3447 Z"
   id="path170" />
 <path
   fill="none"
   stroke="rgb(0,69,134)"
   stroke-linejoin="round"
   d="M 10090,3447 L 10068,3425 10065,3428 10087,3450 10065,3472 10068,3475 10090,3453 10112,3475 10115,3472 10093,3450 10115,3428 10112,3425 10090,3447 Z"
   id="path172" />
 <path
   fill="rgb(0,69,134)"
   stroke="none"
   d="M 10345,3447 L 10323,3425 10320,3428 10342,3450 10320,3472 10323,3475 10345,3453 10367,3475 10370,3472 10348,3450 10370,3428 10367,3425 10345,3447 Z"
   id="path174" />
 <path
   fill="none"
   stroke="rgb(0,69,134)"
   stroke-linejoin="round"
   d="M 10345,3447 L 10323,3425 10320,3428 10342,3450 10320,3472 10323,3475 10345,3453 10367,3475 10370,3472 10348,3450 10370,3428 10367,3425 10345,3447 Z"
   id="path176" />
 <path
   fill="rgb(0,69,134)"
   stroke="none"
   d="M 10611,3791 L 10589,3769 10586,3772 10608,3794 10586,3816 10589,3819 10611,3797 10633,3819 10636,3816 10614,3794 10636,3772 10633,3769 10611,3791 Z"
   id="path178" />
 <path
   fill="none"
   stroke="rgb(0,69,134)"
   stroke-linejoin="round"
   d="M 10611,3791 L 10589,3769 10586,3772 10608,3794 10586,3816 10589,3819 10611,3797 10633,3819 10636,3816 10614,3794 10636,3772 10633,3769 10611,3791 Z"
   id="path180" />
 <path
   fill="rgb(0,69,134)"
   stroke="none"
   d="M 10870,3885 L 10847,3863 10845,3865 10867,3888 10845,3910 10847,3913 10870,3890 10892,3913 10895,3910 10872,3888 10895,3865 10892,3863 10870,3885 Z"
   id="path182" />
 <path
   fill="none"
   stroke="rgb(0,69,134)"
   stroke-linejoin="round"
   d="M 10870,3885 L 10847,3863 10845,3865 10867,3888 10845,3910 10847,3913 10870,3890 10892,3913 10895,3910 10872,3888 10895,3865 10892,3863 10870,3885 Z"
   id="path184" />
 <path
   fill="rgb(0,69,134)"
   stroke="none"
   d="M 11141,3822 L 11119,3800 11116,3803 11139,3825 11116,3847 11119,3850 11141,3828 11164,3850 11166,3847 11144,3825 11166,3803 11164,3800 11141,3822 Z"
   id="path186" />
 <path
   fill="none"
   stroke="rgb(0,69,134)"
   stroke-linejoin="round"
   d="M 11141,3822 L 11119,3800 11116,3803 11139,3825 11116,3847 11119,3850 11141,3828 11164,3850 11166,3847 11144,3825 11166,3803 11164,3800 11141,3822 Z"
   id="path188" />
 <path
   fill="rgb(0,69,134)"
   stroke="none"
   d="M 11419,3979 L 11397,3957 11394,3959 11417,3982 11394,4004 11397,4007 11419,3984 11442,4007 11444,4004 11422,3982 11444,3959 11442,3957 11419,3979 Z"
   id="path190" />
 <path
   fill="none"
   stroke="rgb(0,69,134)"
   stroke-linejoin="round"
   d="M 11419,3979 L 11397,3957 11394,3959 11417,3982 11394,4004 11397,4007 11419,3984 11442,4007 11444,4004 11422,3982 11444,3959 11442,3957 11419,3979 Z"
   id="path192" />
 <path
   fill="rgb(0,69,134)"
   stroke="none"
   d="M 11696,3979 L 11674,3957 11671,3959 11693,3982 11671,4004 11674,4007 11696,3984 11718,4007 11721,4004 11699,3982 11721,3959 11718,3957 11696,3979 Z"
   id="path194" />
 <path
   fill="none"
   stroke="rgb(0,69,134)"
   stroke-linejoin="round"
   d="M 11696,3979 L 11674,3957 11671,3959 11693,3982 11671,4004 11674,4007 11696,3984 11718,4007 11721,4004 11699,3982 11721,3959 11718,3957 11696,3979 Z"
   id="path196" />
 <path
   fill="rgb(0,69,134)"
   stroke="none"
   d="M 11957,3885 L 11935,3863 11932,3865 11954,3888 11932,3910 11935,3913 11957,3890 11979,3913 11982,3910 11960,3888 11982,3865 11979,3863 11957,3885 Z"
   id="path198" />
 <path
   fill="none"
   stroke="rgb(0,69,134)"
   stroke-linejoin="round"
   d="M 11957,3885 L 11935,3863 11932,3865 11954,3888 11932,3910 11935,3913 11957,3890 11979,3913 11982,3910 11960,3888 11982,3865 11979,3863 11957,3885 Z"
   id="path200" />
 <path
   fill="rgb(0,69,134)"
   stroke="none"
   d="M 12240,3666 L 12218,3644 12215,3647 12237,3669 12215,3691 12218,3694 12240,3672 12262,3694 12265,3691 12243,3669 12265,3647 12262,3644 12240,3666 Z"
   id="path202" />
 <path
   fill="none"
   stroke="rgb(0,69,134)"
   stroke-linejoin="round"
   d="M 12240,3666 L 12218,3644 12215,3647 12237,3669 12215,3691 12218,3694 12240,3672 12262,3694 12265,3691 12243,3669 12265,3647 12262,3644 12240,3666 Z"
   id="path204" />
 <path
   fill="rgb(0,69,134)"
   stroke="none"
   d="M 12526,3635 L 12504,3613 12501,3615 12523,3638 12501,3660 12504,3663 12526,3640 12548,3663 12551,3660 12529,3638 12551,3615 12548,3613 12526,3635 Z"
   id="path206" />
 <path
   fill="none"
   stroke="rgb(0,69,134)"
   stroke-linejoin="round"
   d="M 12526,3635 L 12504,3613 12501,3615 12523,3638 12501,3660 12504,3663 12526,3640 12548,3663 12551,3660 12529,3638 12551,3615 12548,3613 12526,3635 Z"
   id="path208" />
 <path
   fill="rgb(0,69,134)"
   stroke="none"
   d="M 12792,3510 L 12770,3488 12767,3490 12790,3513 12767,3535 12770,3538 12792,3515 12815,3538 12817,3535 12795,3513 12817,3490 12815,3488 12792,3510 Z"
   id="path210" />
 <path
   fill="none"
   stroke="rgb(0,69,134)"
   stroke-linejoin="round"
   d="M 12792,3510 L 12770,3488 12767,3490 12790,3513 12767,3535 12770,3538 12792,3515 12815,3538 12817,3535 12795,3513 12817,3490 12815,3488 12792,3510 Z"
   id="path212" />
 <path
   fill="rgb(0,69,134)"
   stroke="none"
   d="M 13069,3166 L 13047,3144 13044,3146 13066,3169 13044,3191 13047,3194 13069,3171 13091,3194 13094,3191 13072,3169 13094,3146 13091,3144 13069,3166 Z"
   id="path214" />
 <path
   fill="none"
   stroke="rgb(0,69,134)"
   stroke-linejoin="round"
   d="M 13069,3166 L 13047,3144 13044,3146 13066,3169 13044,3191 13047,3194 13069,3171 13091,3194 13094,3191 13072,3169 13094,3146 13091,3144 13069,3166 Z"
   id="path216" />
 <path
   fill="rgb(0,69,134)"
   stroke="none"
   d="M 13323,3166 L 13301,3144 13298,3146 13321,3169 13298,3191 13301,3194 13323,3171 13346,3194 13348,3191 13326,3169 13348,3146 13346,3144 13323,3166 Z"
   id="path218" />
 <path
   fill="none"
   stroke="rgb(0,69,134)"
   stroke-linejoin="round"
   d="M 13323,3166 L 13301,3144 13298,3146 13321,3169 13298,3191 13301,3194 13323,3171 13346,3194 13348,3191 13326,3169 13348,3146 13346,3144 13323,3166 Z"
   id="path220" />
 <path
   fill="rgb(0,69,134)"
   stroke="none"
   d="M 12802,3291 L 12780,3269 12777,3271 12799,3294 12777,3316 12780,3319 12802,3296 12824,3319 12827,3316 12805,3294 12827,3271 12824,3269 12802,3291 Z"
   id="path222" />
 <path
   fill="none"
   stroke="rgb(0,69,134)"
   stroke-linejoin="round"
   d="M 12802,3291 L 12780,3269 12777,3271 12799,3294 12777,3316 12780,3319 12802,3296 12824,3319 12827,3316 12805,3294 12827,3271 12824,3269 12802,3291 Z"
   id="path224" />
 <path
   fill="rgb(0,69,134)"
   stroke="none"
   d="M 12525,3697 L 12503,3675 12500,3678 12523,3700 12500,3722 12503,3725 12525,3703 12548,3725 12550,3722 12528,3700 12550,3678 12548,3675 12525,3697 Z"
   id="path226" />
 <path
   fill="none"
   stroke="rgb(0,69,134)"
   stroke-linejoin="round"
   d="M 12525,3697 L 12503,3675 12500,3678 12523,3700 12500,3722 12503,3725 12525,3703 12548,3725 12550,3722 12528,3700 12550,3678 12548,3675 12525,3697 Z"
   id="path228" />
 <path
   fill="rgb(0,69,134)"
   stroke="none"
   d="M 12251,3572 L 12228,3550 12226,3553 12248,3575 12226,3597 12228,3600 12251,3578 12273,3600 12276,3597 12253,3575 12276,3553 12273,3550 12251,3572 Z"
   id="path230" />
 <path
   fill="none"
   stroke="rgb(0,69,134)"
   stroke-linejoin="round"
   d="M 12251,3572 L 12228,3550 12226,3553 12248,3575 12226,3597 12228,3600 12251,3578 12273,3600 12276,3597 12253,3575 12276,3553 12273,3550 12251,3572 Z"
   id="path232" />
 <path
   fill="rgb(0,69,134)"
   stroke="none"
   d="M 11978,3760 L 11956,3738 11953,3740 11975,3763 11953,3785 11956,3788 11978,3765 12000,3788 12003,3785 11981,3763 12003,3740 12000,3738 11978,3760 Z"
   id="path234" />
 <path
   fill="none"
   stroke="rgb(0,69,134)"
   stroke-linejoin="round"
   d="M 11978,3760 L 11956,3738 11953,3740 11975,3763 11953,3785 11956,3788 11978,3765 12000,3788 12003,3785 11981,3763 12003,3740 12000,3738 11978,3760 Z"
   id="path236" />
 <path
   fill="rgb(0,69,134)"
   stroke="none"
   d="M 11716,3854 L 11694,3831 11691,3834 11713,3856 11691,3879 11694,3881 11716,3859 11738,3881 11741,3879 11719,3856 11741,3834 11738,3831 11716,3854 Z"
   id="path238" />
 <path
   fill="none"
   stroke="rgb(0,69,134)"
   stroke-linejoin="round"
   d="M 11716,3854 L 11694,3831 11691,3834 11713,3856 11691,3879 11694,3881 11716,3859 11738,3881 11741,3879 11719,3856 11741,3834 11738,3831 11716,3854 Z"
   id="path240" />
 <path
   fill="rgb(0,69,134)"
   stroke="none"
   d="M 11424,3979 L 11402,3957 11399,3959 11422,3982 11399,4004 11402,4007 11424,3984 11447,4007 11449,4004 11427,3982 11449,3959 11447,3957 11424,3979 Z"
   id="path242" />
 <path
   fill="none"
   stroke="rgb(0,69,134)"
   stroke-linejoin="round"
   d="M 11424,3979 L 11402,3957 11399,3959 11422,3982 11399,4004 11402,4007 11424,3984 11447,4007 11449,4004 11427,3982 11449,3959 11447,3957 11424,3979 Z"
   id="path244" />
 <path
   fill="rgb(0,69,134)"
   stroke="none"
   d="M 11145,3947 L 11122,3925 11120,3928 11142,3950 11120,3972 11122,3975 11145,3953 11167,3975 11170,3972 11147,3950 11170,3928 11167,3925 11145,3947 Z"
   id="path246" />
 <path
   fill="none"
   stroke="rgb(0,69,134)"
   stroke-linejoin="round"
   d="M 11145,3947 L 11122,3925 11120,3928 11142,3950 11120,3972 11122,3975 11145,3953 11167,3975 11170,3972 11147,3950 11170,3928 11167,3925 11145,3947 Z"
   id="path248" />
 <path
   fill="rgb(0,69,134)"
   stroke="none"
   d="M 10841,3854 L 10818,3831 10816,3834 10838,3856 10816,3879 10818,3881 10841,3859 10863,3881 10866,3879 10843,3856 10866,3834 10863,3831 10841,3854 Z"
   id="path250" />
 <path
   fill="none"
   stroke="rgb(0,69,134)"
   stroke-linejoin="round"
   d="M 10841,3854 L 10818,3831 10816,3834 10838,3856 10816,3879 10818,3881 10841,3859 10863,3881 10866,3879 10843,3856 10866,3834 10863,3831 10841,3854 Z"
   id="path252" />
 <path
   fill="rgb(0,69,134)"
   stroke="none"
   d="M 10590,3729 L 10568,3706 10565,3709 10587,3731 10565,3754 10568,3756 10590,3734 10612,3756 10615,3754 10593,3731 10615,3709 10612,3706 10590,3729 Z"
   id="path254" />
 <path
   fill="none"
   stroke="rgb(0,69,134)"
   stroke-linejoin="round"
   d="M 10590,3729 L 10568,3706 10565,3709 10587,3731 10565,3754 10568,3756 10590,3734 10612,3756 10615,3754 10593,3731 10615,3709 10612,3706 10590,3729 Z"
   id="path256" />
 <path
   fill="rgb(0,69,134)"
   stroke="none"
   d="M 10303,3416 L 10281,3394 10278,3397 10300,3419 10278,3441 10281,3444 10303,3422 10325,3444 10328,3441 10306,3419 10328,3397 10325,3394 10303,3416 Z"
   id="path258" />
 <path
   fill="none"
   stroke="rgb(0,69,134)"
   stroke-linejoin="round"
   d="M 10303,3416 L 10281,3394 10278,3397 10300,3419 10278,3441 10281,3444 10303,3422 10325,3444 10328,3441 10306,3419 10328,3397 10325,3394 10303,3416 Z"
   id="path260" />
 <path
   fill="rgb(0,69,134)"
   stroke="none"
   d="M 10063,3416 L 10041,3394 10038,3397 10060,3419 10038,3441 10041,3444 10063,3422 10085,3444 10088,3441 10066,3419 10088,3397 10085,3394 10063,3416 Z"
   id="path262" />
 <path
   fill="none"
   stroke="rgb(0,69,134)"
   stroke-linejoin="round"
   d="M 10063,3416 L 10041,3394 10038,3397 10060,3419 10038,3441 10041,3444 10063,3422 10085,3444 10088,3441 10066,3419 10088,3397 10085,3394 10063,3416 Z"
   id="path264" />
 <path
   fill="rgb(0,69,134)"
   stroke="none"
   d="M 9798,3291 L 9775,3269 9773,3271 9795,3294 9773,3316 9775,3319 9798,3296 9820,3319 9823,3316 9800,3294 9823,3271 9820,3269 9798,3291 Z"
   id="path266" />
 <path
   fill="none"
   stroke="rgb(0,69,134)"
   stroke-linejoin="round"
   d="M 9798,3291 L 9775,3269 9773,3271 9795,3294 9773,3316 9775,3319 9798,3296 9820,3319 9823,3316 9800,3294 9823,3271 9820,3269 9798,3291 Z"
   id="path268" />
 <path
   fill="rgb(0,69,134)"
   stroke="none"
   d="M 9539,3041 L 9517,3019 9514,3021 9536,3044 9514,3066 9517,3069 9539,3046 9561,3069 9564,3066 9542,3044 9564,3021 9561,3019 9539,3041 Z"
   id="path270" />
 <path
   fill="none"
   stroke="rgb(0,69,134)"
   stroke-linejoin="round"
   d="M 9539,3041 L 9517,3019 9514,3021 9536,3044 9514,3066 9517,3069 9539,3046 9561,3069 9564,3066 9542,3044 9564,3021 9561,3019 9539,3041 Z"
   id="path272" />
 <path
   fill="rgb(0,69,134)"
   stroke="none"
   d="M 9249,1603 L 9226,1581 9224,1583 9246,1606 9224,1628 9226,1631 9249,1608 9271,1631 9274,1628 9251,1606 9274,1583 9271,1581 9249,1603 Z"
   id="path274" />
 <path
   fill="none"
   stroke="rgb(0,69,134)"
   stroke-linejoin="round"
   d="M 9249,1603 L 9226,1581 9224,1583 9246,1606 9224,1628 9226,1631 9249,1608 9271,1631 9274,1628 9251,1606 9274,1583 9271,1581 9249,1603 Z"
   id="path276" />
 <path
   fill="rgb(0,69,134)"
   stroke="none"
   d="M 8991,1603 L 8969,1581 8966,1583 8989,1606 8966,1628 8969,1631 8991,1608 9014,1631 9016,1628 8994,1606 9016,1583 9014,1581 8991,1603 Z"
   id="path278" />
 <path
   fill="none"
   stroke="rgb(0,69,134)"
   stroke-linejoin="round"
   d="M 8991,1603 L 8969,1581 8966,1583 8989,1606 8966,1628 8969,1631 8991,1608 9014,1631 9016,1628 8994,1606 9016,1583 9014,1581 8991,1603 Z"
   id="path280" />
 <path
   fill="rgb(0,69,134)"
   stroke="none"
   d="M 8710,1603 L 8688,1581 8685,1583 8707,1606 8685,1628 8688,1631 8710,1608 8732,1631 8735,1628 8713,1606 8735,1583 8732,1581 8710,1603 Z"
   id="path282" />
 <path
   fill="none"
   stroke="rgb(0,69,134)"
   stroke-linejoin="round"
   d="M 8710,1603 L 8688,1581 8685,1583 8707,1606 8685,1628 8688,1631 8710,1608 8732,1631 8735,1628 8713,1606 8735,1583 8732,1581 8710,1603 Z"
   id="path284" />
 <path
   fill="rgb(0,69,134)"
   stroke="none"
   d="M 8454,1603 L 8432,1581 8429,1583 8451,1606 8429,1628 8432,1631 8454,1608 8476,1631 8479,1628 8457,1606 8479,1583 8476,1581 8454,1603 Z"
   id="path286" />
 <path
   fill="none"
   stroke="rgb(0,69,134)"
   stroke-linejoin="round"
   d="M 8454,1603 L 8432,1581 8429,1583 8451,1606 8429,1628 8432,1631 8454,1608 8476,1631 8479,1628 8457,1606 8479,1583 8476,1581 8454,1603 Z"
   id="path288" />
 <path
   fill="rgb(0,69,134)"
   stroke="none"
   d="M 8160,9042 L 8138,9020 8135,9023 8158,9045 8135,9067 8138,9070 8160,9048 8183,9070 8185,9067 8163,9045 8185,9023 8183,9020 8160,9042 Z"
   id="path290" />
 <path
   fill="none"
   stroke="rgb(0,69,134)"
   stroke-linejoin="round"
   d="M 8160,9042 L 8138,9020 8135,9023 8158,9045 8135,9067 8138,9070 8160,9048 8183,9070 8185,9067 8163,9045 8185,9023 8183,9020 8160,9042 Z"
   id="path292" />
 <path
   fill="rgb(0,69,134)"
   stroke="none"
   d="M 7912,9011 L 7890,8989 7887,8992 7910,9014 7887,9036 7890,9039 7912,9017 7935,9039 7937,9036 7915,9014 7937,8992 7935,8989 7912,9011 Z"
   id="path294" />
 <path
   fill="none"
   stroke="rgb(0,69,134)"
   stroke-linejoin="round"
   d="M 7912,9011 L 7890,8989 7887,8992 7910,9014 7887,9036 7890,9039 7912,9017 7935,9039 7937,9036 7915,9014 7937,8992 7935,8989 7912,9011 Z"
   id="path296" />
 <path
   fill="rgb(0,69,134)"
   stroke="none"
   d="M 7623,8980 L 7601,8958 7598,8960 7620,8983 7598,9005 7601,9008 7623,8985 7645,9008 7648,9005 7626,8983 7648,8960 7645,8958 7623,8980 Z"
   id="path298" />
 <path
   fill="none"
   stroke="rgb(0,69,134)"
   stroke-linejoin="round"
   d="M 7623,8980 L 7601,8958 7598,8960 7620,8983 7598,9005 7601,9008 7623,8985 7645,9008 7648,9005 7626,8983 7648,8960 7645,8958 7623,8980 Z"
   id="path300" />
 <path
   fill="rgb(0,69,134)"
   stroke="none"
   d="M 7371,9011 L 7348,8989 7346,8992 7368,9014 7346,9036 7348,9039 7371,9017 7393,9039 7396,9036 7373,9014 7396,8992 7393,8989 7371,9011 Z"
   id="path302" />
 <path
   fill="none"
   stroke="rgb(0,69,134)"
   stroke-linejoin="round"
   d="M 7371,9011 L 7348,8989 7346,8992 7368,9014 7346,9036 7348,9039 7371,9017 7393,9039 7396,9036 7373,9014 7396,8992 7393,8989 7371,9011 Z"
   id="path304" />
 <path
   fill="rgb(0,69,134)"
   stroke="none"
   d="M 7082,8949 L 7060,8926 7057,8929 7079,8951 7057,8974 7060,8976 7082,8954 7104,8976 7107,8974 7085,8951 7107,8929 7104,8926 7082,8949 Z"
   id="path306" />
 <path
   fill="none"
   stroke="rgb(0,69,134)"
   stroke-linejoin="round"
   d="M 7082,8949 L 7060,8926 7057,8929 7079,8951 7057,8974 7060,8976 7082,8954 7104,8976 7107,8974 7085,8951 7107,8929 7104,8926 7082,8949 Z"
   id="path308" />
 <path
   fill="rgb(0,69,134)"
   stroke="none"
   d="M 6835,8949 L 6813,8926 6810,8929 6833,8951 6810,8974 6813,8976 6835,8954 6858,8976 6860,8974 6838,8951 6860,8929 6858,8926 6835,8949 Z"
   id="path310" />
 <path
   fill="none"
   stroke="rgb(0,69,134)"
   stroke-linejoin="round"
   d="M 6835,8949 L 6813,8926 6810,8929 6833,8951 6810,8974 6813,8976 6835,8954 6858,8976 6860,8974 6838,8951 6860,8929 6858,8926 6835,8949 Z"
   id="path312" />
 <path
   fill="rgb(0,69,134)"
   stroke="none"
   d="M 6551,8949 L 6529,8926 6526,8929 6548,8951 6526,8974 6529,8976 6551,8954 6573,8976 6576,8974 6554,8951 6576,8929 6573,8926 6551,8949 Z"
   id="path314" />
 <path
   fill="none"
   stroke="rgb(0,69,134)"
   stroke-linejoin="round"
   d="M 6551,8949 L 6529,8926 6526,8929 6548,8951 6526,8974 6529,8976 6551,8954 6573,8976 6576,8974 6554,8951 6576,8929 6573,8926 6551,8949 Z"
   id="path316" />
 <path
   fill="rgb(0,69,134)"
   stroke="none"
   d="M 6294,8949 L 6271,8926 6269,8929 6291,8951 6269,8974 6271,8976 6294,8954 6316,8976 6319,8974 6296,8951 6319,8929 6316,8926 6294,8949 Z"
   id="path318" />
 <path
   fill="none"
   stroke="rgb(0,69,134)"
   stroke-linejoin="round"
   d="M 6294,8949 L 6271,8926 6269,8929 6291,8951 6269,8974 6271,8976 6294,8954 6316,8976 6319,8974 6296,8951 6319,8929 6316,8926 6294,8949 Z"
   id="path320" />
 <path
   fill="rgb(0,69,134)"
   stroke="none"
   d="M 6020,8949 L 5998,8926 5995,8929 6018,8951 5995,8974 5998,8976 6020,8954 6043,8976 6045,8974 6023,8951 6045,8929 6043,8926 6020,8949 Z"
   id="path322" />
 <path
   fill="none"
   stroke="rgb(0,69,134)"
   stroke-linejoin="round"
   d="M 6020,8949 L 5998,8926 5995,8929 6018,8951 5995,8974 5998,8976 6020,8954 6043,8976 6045,8974 6023,8951 6045,8929 6043,8926 6020,8949 Z"
   id="path324" />
 <path
   fill="rgb(0,69,134)"
   stroke="none"
   d="M 7348,8886 L 7326,8864 7323,8867 7345,8889 7323,8911 7326,8914 7348,8892 7370,8914 7373,8911 7351,8889 7373,8867 7370,8864 7348,8886 Z"
   id="path326" />
 <path
   fill="none"
   stroke="rgb(0,69,134)"
   stroke-linejoin="round"
   d="M 7348,8886 L 7326,8864 7323,8867 7345,8889 7323,8911 7326,8914 7348,8892 7370,8914 7373,8911 7351,8889 7373,8867 7370,8864 7348,8886 Z"
   id="path328" />
 <path
   fill="rgb(0,69,134)"
   stroke="none"
   d="M 7596,8980 L 7573,8958 7571,8960 7593,8983 7571,9005 7573,9008 7596,8985 7618,9008 7621,9005 7598,8983 7621,8960 7618,8958 7596,8980 Z"
   id="path330" />
 <path
   fill="none"
   stroke="rgb(0,69,134)"
   stroke-linejoin="round"
   d="M 7596,8980 L 7573,8958 7571,8960 7593,8983 7571,9005 7573,9008 7596,8985 7618,9008 7621,9005 7598,8983 7621,8960 7618,8958 7596,8980 Z"
   id="path332" />
 <path
   fill="rgb(0,69,134)"
   stroke="none"
   d="M 7857,8980 L 7834,8958 7832,8960 7854,8983 7832,9005 7834,9008 7857,8985 7879,9008 7882,9005 7859,8983 7882,8960 7879,8958 7857,8980 Z"
   id="path334" />
 <path
   fill="none"
   stroke="rgb(0,69,134)"
   stroke-linejoin="round"
   d="M 7857,8980 L 7834,8958 7832,8960 7854,8983 7832,9005 7834,9008 7857,8985 7879,9008 7882,9005 7859,8983 7882,8960 7879,8958 7857,8980 Z"
   id="path336" />
 <path
   fill="rgb(0,69,134)"
   stroke="none"
   d="M 8108,8980 L 8086,8958 8083,8960 8105,8983 8083,9005 8086,9008 8108,8985 8130,9008 8133,9005 8111,8983 8133,8960 8130,8958 8108,8980 Z"
   id="path338" />
 <path
   fill="none"
   stroke="rgb(0,69,134)"
   stroke-linejoin="round"
   d="M 8108,8980 L 8086,8958 8083,8960 8105,8983 8083,9005 8086,9008 8108,8985 8130,9008 8133,9005 8111,8983 8133,8960 8130,8958 8108,8980 Z"
   id="path340" />
 <path
   fill="rgb(0,69,134)"
   stroke="none"
   d="M 8380,8792 L 8357,8770 8355,8773 8377,8795 8355,8817 8357,8820 8380,8798 8402,8820 8405,8817 8382,8795 8405,8773 8402,8770 8380,8792 Z"
   id="path342" />
 <path
   fill="none"
   stroke="rgb(0,69,134)"
   stroke-linejoin="round"
   d="M 8380,8792 L 8357,8770 8355,8773 8377,8795 8355,8817 8357,8820 8380,8798 8402,8820 8405,8817 8382,8795 8405,8773 8402,8770 8380,8792 Z"
   id="path344" />
 <path
   fill="rgb(0,69,134)"
   stroke="none"
   d="M 8656,8792 L 8634,8770 8631,8773 8653,8795 8631,8817 8634,8820 8656,8798 8678,8820 8681,8817 8659,8795 8681,8773 8678,8770 8656,8792 Z"
   id="path346" />
 <path
   fill="none"
   stroke="rgb(0,69,134)"
   stroke-linejoin="round"
   d="M 8656,8792 L 8634,8770 8631,8773 8653,8795 8631,8817 8634,8820 8656,8798 8678,8820 8681,8817 8659,8795 8681,8773 8678,8770 8656,8792 Z"
   id="path348" />
 <path
   fill="rgb(0,69,134)"
   stroke="none"
   d="M 8944,8792 L 8922,8770 8919,8773 8941,8795 8919,8817 8922,8820 8944,8798 8966,8820 8969,8817 8947,8795 8969,8773 8966,8770 8944,8792 Z"
   id="path350" />
 <path
   fill="none"
   stroke="rgb(0,69,134)"
   stroke-linejoin="round"
   d="M 8944,8792 L 8922,8770 8919,8773 8941,8795 8919,8817 8922,8820 8944,8798 8966,8820 8969,8817 8947,8795 8969,8773 8966,8770 8944,8792 Z"
   id="path352" />
 <path
   fill="rgb(0,69,134)"
   stroke="none"
   d="M 9223,8792 L 9201,8770 9198,8773 9220,8795 9198,8817 9201,8820 9223,8798 9245,8820 9248,8817 9226,8795 9248,8773 9245,8770 9223,8792 Z"
   id="path354" />
 <path
   fill="none"
   stroke="rgb(0,69,134)"
   stroke-linejoin="round"
   d="M 9223,8792 L 9201,8770 9198,8773 9220,8795 9198,8817 9201,8820 9223,8798 9245,8820 9248,8817 9226,8795 9248,8773 9245,8770 9223,8792 Z"
   id="path356" />
 <path
   fill="rgb(0,69,134)"
   stroke="none"
   d="M 9497,8792 L 9475,8770 9472,8773 9494,8795 9472,8817 9475,8820 9497,8798 9519,8820 9522,8817 9500,8795 9522,8773 9519,8770 9497,8792 Z"
   id="path358" />
 <path
   fill="none"
   stroke="rgb(0,69,134)"
   stroke-linejoin="round"
   d="M 9497,8792 L 9475,8770 9472,8773 9494,8795 9472,8817 9475,8820 9497,8798 9519,8820 9522,8817 9500,8795 9522,8773 9519,8770 9497,8792 Z"
   id="path360" />
 <path
   fill="rgb(0,69,134)"
   stroke="none"
   d="M 9759,8792 L 9737,8770 9734,8773 9756,8795 9734,8817 9737,8820 9759,8798 9781,8820 9784,8817 9762,8795 9784,8773 9781,8770 9759,8792 Z"
   id="path362" />
 <path
   fill="none"
   stroke="rgb(0,69,134)"
   stroke-linejoin="round"
   d="M 9759,8792 L 9737,8770 9734,8773 9756,8795 9734,8817 9737,8820 9759,8798 9781,8820 9784,8817 9762,8795 9784,8773 9781,8770 9759,8792 Z"
   id="path364" />
 <path
   fill="rgb(0,69,134)"
   stroke="none"
   d="M 10031,3604 L 10008,3581 10006,3584 10028,3606 10006,3629 10008,3631 10031,3609 10053,3631 10056,3629 10033,3606 10056,3584 10053,3581 10031,3604 Z"
   id="path366" />
 <path
   fill="none"
   stroke="rgb(0,69,134)"
   stroke-linejoin="round"
   d="M 10031,3604 L 10008,3581 10006,3584 10028,3606 10006,3629 10008,3631 10031,3609 10053,3631 10056,3629 10033,3606 10056,3584 10053,3581 10031,3604 Z"
   id="path368" />
 <path
   fill="rgb(0,69,134)"
   stroke="none"
   d="M 10283,3541 L 10261,3519 10258,3522 10280,3544 10258,3566 10261,3569 10283,3547 10305,3569 10308,3566 10286,3544 10308,3522 10305,3519 10283,3541 Z"
   id="path370" />
 <path
   fill="none"
   stroke="rgb(0,69,134)"
   stroke-linejoin="round"
   d="M 10283,3541 L 10261,3519 10258,3522 10280,3544 10258,3566 10261,3569 10283,3547 10305,3569 10308,3566 10286,3544 10308,3522 10305,3519 10283,3541 Z"
   id="path372" />
 <path
   fill="rgb(0,69,134)"
   stroke="none"
   d="M 10550,3541 L 10528,3519 10525,3522 10548,3544 10525,3566 10528,3569 10550,3547 10573,3569 10575,3566 10553,3544 10575,3522 10573,3519 10550,3541 Z"
   id="path374" />
 <path
   fill="none"
   stroke="rgb(0,69,134)"
   stroke-linejoin="round"
   d="M 10550,3541 L 10528,3519 10525,3522 10548,3544 10525,3566 10528,3569 10550,3547 10573,3569 10575,3566 10553,3544 10575,3522 10573,3519 10550,3541 Z"
   id="path376" />
 <path
   fill="rgb(0,69,134)"
   stroke="none"
   d="M 10808,3791 L 10786,3769 10783,3772 10806,3794 10783,3816 10786,3819 10808,3797 10831,3819 10833,3816 10811,3794 10833,3772 10831,3769 10808,3791 Z"
   id="path378" />
 <path
   fill="none"
   stroke="rgb(0,69,134)"
   stroke-linejoin="round"
   d="M 10808,3791 L 10786,3769 10783,3772 10806,3794 10783,3816 10786,3819 10808,3797 10831,3819 10833,3816 10811,3794 10833,3772 10831,3769 10808,3791 Z"
   id="path380" />
 <path
   fill="rgb(0,69,134)"
   stroke="none"
   d="M 11088,4010 L 11066,3988 11063,3991 11085,4013 11063,4035 11066,4038 11088,4016 11110,4038 11113,4035 11091,4013 11113,3991 11110,3988 11088,4010 Z"
   id="path382" />
 <path
   fill="none"
   stroke="rgb(0,69,134)"
   stroke-linejoin="round"
   d="M 11088,4010 L 11066,3988 11063,3991 11085,4013 11063,4035 11066,4038 11088,4016 11110,4038 11113,4035 11091,4013 11113,3991 11110,3988 11088,4010 Z"
   id="path384" />
 <path
   fill="rgb(0,69,134)"
   stroke="none"
   d="M 11353,4010 L 11331,3988 11328,3991 11351,4013 11328,4035 11331,4038 11353,4016 11376,4038 11378,4035 11356,4013 11378,3991 11376,3988 11353,4010 Z"
   id="path386" />
 <path
   fill="none"
   stroke="rgb(0,69,134)"
   stroke-linejoin="round"
   d="M 11353,4010 L 11331,3988 11328,3991 11351,4013 11328,4035 11331,4038 11353,4016 11376,4038 11378,4035 11356,4013 11378,3991 11376,3988 11353,4010 Z"
   id="path388" />
 <path
   fill="rgb(0,69,134)"
   stroke="none"
   d="M 11649,4010 L 11627,3988 11624,3991 11646,4013 11624,4035 11627,4038 11649,4016 11671,4038 11674,4035 11652,4013 11674,3991 11671,3988 11649,4010 Z"
   id="path390" />
 <path
   fill="none"
   stroke="rgb(0,69,134)"
   stroke-linejoin="round"
   d="M 11649,4010 L 11627,3988 11624,3991 11646,4013 11624,4035 11627,4038 11649,4016 11671,4038 11674,4035 11652,4013 11674,3991 11671,3988 11649,4010 Z"
   id="path392" />
 <path
   fill="rgb(0,69,134)"
   stroke="none"
   d="M 11913,3916 L 11891,3894 11888,3897 11910,3919 11888,3941 11891,3944 11913,3922 11935,3944 11938,3941 11916,3919 11938,3897 11935,3894 11913,3916 Z"
   id="path394" />
 <path
   fill="none"
   stroke="rgb(0,69,134)"
   stroke-linejoin="round"
   d="M 11913,3916 L 11891,3894 11888,3897 11910,3919 11888,3941 11891,3944 11913,3922 11935,3944 11938,3941 11916,3919 11938,3897 11935,3894 11913,3916 Z"
   id="path396" />
 <path
   fill="rgb(0,69,134)"
   stroke="none"
   d="M 12194,3822 L 12172,3800 12169,3803 12191,3825 12169,3847 12172,3850 12194,3828 12216,3850 12219,3847 12197,3825 12219,3803 12216,3800 12194,3822 Z"
   id="path398" />
 <path
   fill="none"
   stroke="rgb(0,69,134)"
   stroke-linejoin="round"
   d="M 12194,3822 L 12172,3800 12169,3803 12191,3825 12169,3847 12172,3850 12194,3828 12216,3850 12219,3847 12197,3825 12219,3803 12216,3800 12194,3822 Z"
   id="path400" />
 <path
   fill="rgb(0,69,134)"
   stroke="none"
   d="M 12471,3604 L 12449,3581 12446,3584 12469,3606 12446,3629 12449,3631 12471,3609 12494,3631 12496,3629 12474,3606 12496,3584 12494,3581 12471,3604 Z"
   id="path402" />
 <path
   fill="none"
   stroke="rgb(0,69,134)"
   stroke-linejoin="round"
   d="M 12471,3604 L 12449,3581 12446,3584 12469,3606 12446,3629 12449,3631 12471,3609 12494,3631 12496,3629 12474,3606 12496,3584 12494,3581 12471,3604 Z"
   id="path404" />
 <path
   fill="rgb(0,69,134)"
   stroke="none"
   d="M 12749,3572 L 12727,3550 12724,3553 12746,3575 12724,3597 12727,3600 12749,3578 12771,3600 12774,3597 12752,3575 12774,3553 12771,3550 12749,3572 Z"
   id="path406" />
 <path
   fill="none"
   stroke="rgb(0,69,134)"
   stroke-linejoin="round"
   d="M 12749,3572 L 12727,3550 12724,3553 12746,3575 12724,3597 12727,3600 12749,3578 12771,3600 12774,3597 12752,3575 12774,3553 12771,3550 12749,3572 Z"
   id="path408" />
 <path
   fill="rgb(0,69,134)"
   stroke="none"
   d="M 13022,3322 L 13000,3300 12997,3303 13019,3325 12997,3347 13000,3350 13022,3328 13044,3350 13047,3347 13025,3325 13047,3303 13044,3300 13022,3322 Z"
   id="path410" />
 <path
   fill="none"
   stroke="rgb(0,69,134)"
   stroke-linejoin="round"
   d="M 13022,3322 L 13000,3300 12997,3303 13019,3325 12997,3347 13000,3350 13022,3328 13044,3350 13047,3347 13025,3325 13047,3303 13044,3300 13022,3322 Z"
   id="path412" />
 <path
   fill="rgb(0,69,134)"
   stroke="none"
   d="M 13283,3322 L 13261,3300 13258,3303 13280,3325 13258,3347 13261,3350 13283,3328 13305,3350 13308,3347 13286,3325 13308,3303 13305,3300 13283,3322 Z"
   id="path414" />
 <path
   fill="none"
   stroke="rgb(0,69,134)"
   stroke-linejoin="round"
   d="M 13283,3322 L 13261,3300 13258,3303 13280,3325 13258,3347 13261,3350 13283,3328 13305,3350 13308,3347 13286,3325 13308,3303 13305,3300 13283,3322 Z"
   id="path416" />
 <path
   fill="rgb(0,69,134)"
   stroke="none"
   d="M 12525,3572 L 12503,3550 12500,3553 12523,3575 12500,3597 12503,3600 12525,3578 12548,3600 12550,3597 12528,3575 12550,3553 12548,3550 12525,3572 Z"
   id="path418" />
 <path
   fill="none"
   stroke="rgb(0,69,134)"
   stroke-linejoin="round"
   d="M 12525,3572 L 12503,3550 12500,3553 12523,3575 12500,3597 12503,3600 12525,3578 12548,3600 12550,3597 12528,3575 12550,3553 12548,3550 12525,3572 Z"
   id="path420" />
 <path
   fill="rgb(0,69,134)"
   stroke="none"
   d="M 12267,3666 L 12244,3644 12242,3647 12264,3669 12242,3691 12244,3694 12267,3672 12289,3694 12292,3691 12269,3669 12292,3647 12289,3644 12267,3666 Z"
   id="path422" />
 <path
   fill="none"
   stroke="rgb(0,69,134)"
   stroke-linejoin="round"
   d="M 12267,3666 L 12244,3644 12242,3647 12264,3669 12242,3691 12244,3694 12267,3672 12289,3694 12292,3691 12269,3669 12292,3647 12289,3644 12267,3666 Z"
   id="path424" />
 <path
   fill="rgb(0,69,134)"
   stroke="none"
   d="M 11972,3729 L 11950,3706 11947,3709 11970,3731 11947,3754 11950,3756 11972,3734 11995,3756 11997,3754 11975,3731 11997,3709 11995,3706 11972,3729 Z"
   id="path426" />
 <path
   fill="none"
   stroke="rgb(0,69,134)"
   stroke-linejoin="round"
   d="M 11972,3729 L 11950,3706 11947,3709 11970,3731 11947,3754 11950,3756 11972,3734 11995,3756 11997,3754 11975,3731 11997,3709 11995,3706 11972,3729 Z"
   id="path428" />
 <path
   fill="rgb(0,69,134)"
   stroke="none"
   d="M 11726,3885 L 11704,3863 11701,3865 11723,3888 11701,3910 11704,3913 11726,3890 11748,3913 11751,3910 11729,3888 11751,3865 11748,3863 11726,3885 Z"
   id="path430" />
 <path
   fill="none"
   stroke="rgb(0,69,134)"
   stroke-linejoin="round"
   d="M 11726,3885 L 11704,3863 11701,3865 11723,3888 11701,3910 11704,3913 11726,3890 11748,3913 11751,3910 11729,3888 11751,3865 11748,3863 11726,3885 Z"
   id="path432" />
 <path
   fill="rgb(0,69,134)"
   stroke="none"
   d="M 11432,4010 L 11409,3988 11407,3991 11429,4013 11407,4035 11409,4038 11432,4016 11454,4038 11457,4035 11434,4013 11457,3991 11454,3988 11432,4010 Z"
   id="path434" />
 <path
   fill="none"
   stroke="rgb(0,69,134)"
   stroke-linejoin="round"
   d="M 11432,4010 L 11409,3988 11407,3991 11429,4013 11407,4035 11409,4038 11432,4016 11454,4038 11457,4035 11434,4013 11457,3991 11454,3988 11432,4010 Z"
   id="path436" />
 <path
   fill="rgb(0,69,134)"
   stroke="none"
   d="M 11162,3979 L 11140,3957 11137,3959 11160,3982 11137,4004 11140,4007 11162,3984 11185,4007 11187,4004 11165,3982 11187,3959 11185,3957 11162,3979 Z"
   id="path438" />
 <path
   fill="none"
   stroke="rgb(0,69,134)"
   stroke-linejoin="round"
   d="M 11162,3979 L 11140,3957 11137,3959 11160,3982 11137,4004 11140,4007 11162,3984 11185,4007 11187,4004 11165,3982 11187,3959 11185,3957 11162,3979 Z"
   id="path440" />
 <path
   fill="rgb(0,69,134)"
   stroke="none"
   d="M 10872,3885 L 10850,3863 10847,3865 10869,3888 10847,3910 10850,3913 10872,3890 10894,3913 10897,3910 10875,3888 10897,3865 10894,3863 10872,3885 Z"
   id="path442" />
 <path
   fill="none"
   stroke="rgb(0,69,134)"
   stroke-linejoin="round"
   d="M 10872,3885 L 10850,3863 10847,3865 10869,3888 10847,3910 10850,3913 10872,3890 10894,3913 10897,3910 10875,3888 10897,3865 10894,3863 10872,3885 Z"
   id="path444" />
 <path
   fill="rgb(0,69,134)"
   stroke="none"
   d="M 10608,3760 L 10585,3738 10583,3740 10605,3763 10583,3785 10585,3788 10608,3765 10630,3788 10633,3785 10610,3763 10633,3740 10630,3738 10608,3760 Z"
   id="path446" />
 <path
   fill="none"
   stroke="rgb(0,69,134)"
   stroke-linejoin="round"
   d="M 10608,3760 L 10585,3738 10583,3740 10605,3763 10583,3785 10585,3788 10608,3765 10630,3788 10633,3785 10610,3763 10633,3740 10630,3738 10608,3760 Z"
   id="path448" />
 <path
   fill="rgb(0,69,134)"
   stroke="none"
   d="M 10343,3729 L 10320,3706 10318,3709 10340,3731 10318,3754 10320,3756 10343,3734 10365,3756 10368,3754 10345,3731 10368,3709 10365,3706 10343,3729 Z"
   id="path450" />
 <path
   fill="none"
   stroke="rgb(0,69,134)"
   stroke-linejoin="round"
   d="M 10343,3729 L 10320,3706 10318,3709 10340,3731 10318,3754 10320,3756 10343,3734 10365,3756 10368,3754 10345,3731 10368,3709 10365,3706 10343,3729 Z"
   id="path452" />
 <path
   fill="rgb(0,69,134)"
   stroke="none"
   d="M 10081,3479 L 10058,3456 10056,3459 10078,3481 10056,3504 10058,3506 10081,3484 10103,3506 10106,3504 10083,3481 10106,3459 10103,3456 10081,3479 Z"
   id="path454" />
 <path
   fill="none"
   stroke="rgb(0,69,134)"
   stroke-linejoin="round"
   d="M 10081,3479 L 10058,3456 10056,3459 10078,3481 10056,3504 10058,3506 10081,3484 10103,3506 10106,3504 10083,3481 10106,3459 10103,3456 10081,3479 Z"
   id="path456" />
 <path
   fill="rgb(0,69,134)"
   stroke="none"
   d="M 9813,3479 L 9791,3456 9788,3459 9810,3481 9788,3504 9791,3506 9813,3484 9835,3506 9838,3504 9816,3481 9838,3459 9835,3456 9813,3479 Z"
   id="path458" />
 <path
   fill="none"
   stroke="rgb(0,69,134)"
   stroke-linejoin="round"
   d="M 9813,3479 L 9791,3456 9788,3459 9810,3481 9788,3504 9791,3506 9813,3484 9835,3506 9838,3504 9816,3481 9838,3459 9835,3456 9813,3479 Z"
   id="path460" />
 <path
   fill="rgb(0,69,134)"
   stroke="none"
   d="M 9536,3010 L 9513,2987 9511,2990 9533,3012 9511,3035 9513,3037 9536,3015 9558,3037 9561,3035 9538,3012 9561,2990 9558,2987 9536,3010 Z"
   id="path462" />
 <path
   fill="none"
   stroke="rgb(0,69,134)"
   stroke-linejoin="round"
   d="M 9536,3010 L 9513,2987 9511,2990 9533,3012 9511,3035 9513,3037 9536,3015 9558,3037 9561,3035 9538,3012 9561,2990 9558,2987 9536,3010 Z"
   id="path464" />
 <path
   fill="rgb(0,69,134)"
   stroke="none"
   d="M 9258,3010 L 9235,2987 9233,2990 9255,3012 9233,3035 9235,3037 9258,3015 9280,3037 9283,3035 9260,3012 9283,2990 9280,2987 9258,3010 Z"
   id="path466" />
 <path
   fill="none"
   stroke="rgb(0,69,134)"
   stroke-linejoin="round"
   d="M 9258,3010 L 9235,2987 9233,2990 9255,3012 9233,3035 9235,3037 9258,3015 9280,3037 9283,3035 9260,3012 9283,2990 9280,2987 9258,3010 Z"
   id="path468" />
 <path
   fill="rgb(0,69,134)"
   stroke="none"
   d="M 8995,3010 L 8972,2987 8970,2990 8992,3012 8970,3035 8972,3037 8995,3015 9017,3037 9020,3035 8997,3012 9020,2990 9017,2987 8995,3010 Z"
   id="path470" />
 <path
   fill="none"
   stroke="rgb(0,69,134)"
   stroke-linejoin="round"
   d="M 8995,3010 L 8972,2987 8970,2990 8992,3012 8970,3035 8972,3037 8995,3015 9017,3037 9020,3035 8997,3012 9020,2990 9017,2987 8995,3010 Z"
   id="path472" />
 <path
   fill="rgb(0,69,134)"
   stroke="none"
   d="M 8717,3010 L 8694,2987 8692,2990 8714,3012 8692,3035 8694,3037 8717,3015 8739,3037 8742,3035 8719,3012 8742,2990 8739,2987 8717,3010 Z"
   id="path474" />
 <path
   fill="none"
   stroke="rgb(0,69,134)"
   stroke-linejoin="round"
   d="M 8717,3010 L 8694,2987 8692,2990 8714,3012 8692,3035 8694,3037 8717,3015 8739,3037 8742,3035 8719,3012 8742,2990 8739,2987 8717,3010 Z"
   id="path476" />
 <path
   fill="rgb(0,69,134)"
   stroke="none"
   d="M 8442,3010 L 8419,2987 8417,2990 8439,3012 8417,3035 8419,3037 8442,3015 8464,3037 8467,3035 8444,3012 8467,2990 8464,2987 8442,3010 Z"
   id="path478" />
 <path
   fill="none"
   stroke="rgb(0,69,134)"
   stroke-linejoin="round"
   d="M 8442,3010 L 8419,2987 8417,2990 8439,3012 8417,3035 8419,3037 8442,3015 8464,3037 8467,3035 8444,3012 8467,2990 8464,2987 8442,3010 Z"
   id="path480" />
 <path
   fill="rgb(0,69,134)"
   stroke="none"
   d="M 8176,8917 L 8153,8895 8151,8898 8173,8920 8151,8942 8153,8945 8176,8923 8198,8945 8201,8942 8178,8920 8201,8898 8198,8895 8176,8917 Z"
   id="path482" />
 <path
   fill="none"
   stroke="rgb(0,69,134)"
   stroke-linejoin="round"
   d="M 8176,8917 L 8153,8895 8151,8898 8173,8920 8151,8942 8153,8945 8176,8923 8198,8945 8201,8942 8178,8920 8201,8898 8198,8895 8176,8917 Z"
   id="path484" />
 <path
   fill="rgb(0,69,134)"
   stroke="none"
   d="M 7924,8855 L 7901,8833 7899,8835 7921,8858 7899,8880 7901,8883 7924,8860 7946,8883 7949,8880 7926,8858 7949,8835 7946,8833 7924,8855 Z"
   id="path486" />
 <path
   fill="none"
   stroke="rgb(0,69,134)"
   stroke-linejoin="round"
   d="M 7924,8855 L 7901,8833 7899,8835 7921,8858 7899,8880 7901,8883 7924,8860 7946,8883 7949,8880 7926,8858 7949,8835 7946,8833 7924,8855 Z"
   id="path488" />
 <path
   fill="rgb(0,69,134)"
   stroke="none"
   d="M 7642,8855 L 7620,8833 7617,8835 7640,8858 7617,8880 7620,8883 7642,8860 7665,8883 7667,8880 7645,8858 7667,8835 7665,8833 7642,8855 Z"
   id="path490" />
 <path
   fill="none"
   stroke="rgb(0,69,134)"
   stroke-linejoin="round"
   d="M 7642,8855 L 7620,8833 7617,8835 7640,8858 7617,8880 7620,8883 7642,8860 7665,8883 7667,8880 7645,8858 7667,8835 7665,8833 7642,8855 Z"
   id="path492" />
 <path
   fill="rgb(0,69,134)"
   stroke="none"
   d="M 7380,8917 L 7358,8895 7355,8898 7378,8920 7355,8942 7358,8945 7380,8923 7403,8945 7405,8942 7383,8920 7405,8898 7403,8895 7380,8917 Z"
   id="path494" />
 <path
   fill="none"
   stroke="rgb(0,69,134)"
   stroke-linejoin="round"
   d="M 7380,8917 L 7358,8895 7355,8898 7378,8920 7355,8942 7358,8945 7380,8923 7403,8945 7405,8942 7383,8920 7405,8898 7403,8895 7380,8917 Z"
   id="path496" />
 <path
   fill="rgb(0,69,134)"
   stroke="none"
   d="M 7108,8792 L 7086,8770 7083,8773 7105,8795 7083,8817 7086,8820 7108,8798 7130,8820 7133,8817 7111,8795 7133,8773 7130,8770 7108,8792 Z"
   id="path498" />
 <path
   fill="none"
   stroke="rgb(0,69,134)"
   stroke-linejoin="round"
   d="M 7108,8792 L 7086,8770 7083,8773 7105,8795 7083,8817 7086,8820 7108,8798 7130,8820 7133,8817 7111,8795 7133,8773 7130,8770 7108,8792 Z"
   id="path500" />
 <path
   fill="rgb(0,69,134)"
   stroke="none"
   d="M 6858,8792 L 6836,8770 6833,8773 6855,8795 6833,8817 6836,8820 6858,8798 6880,8820 6883,8817 6861,8795 6883,8773 6880,8770 6858,8792 Z"
   id="path502" />
 <path
   fill="none"
   stroke="rgb(0,69,134)"
   stroke-linejoin="round"
   d="M 6858,8792 L 6836,8770 6833,8773 6855,8795 6833,8817 6836,8820 6858,8798 6880,8820 6883,8817 6861,8795 6883,8773 6880,8770 6858,8792 Z"
   id="path504" />
 <path
   fill="rgb(0,69,134)"
   stroke="none"
   d="M 6584,8792 L 6562,8770 6559,8773 6581,8795 6559,8817 6562,8820 6584,8798 6606,8820 6609,8817 6587,8795 6609,8773 6606,8770 6584,8792 Z"
   id="path506" />
 <path
   fill="none"
   stroke="rgb(0,69,134)"
   stroke-linejoin="round"
   d="M 6584,8792 L 6562,8770 6559,8773 6581,8795 6559,8817 6562,8820 6584,8798 6606,8820 6609,8817 6587,8795 6609,8773 6606,8770 6584,8792 Z"
   id="path508" />
 <path
   fill="rgb(0,69,134)"
   stroke="none"
   d="M 6299,8792 L 6277,8770 6274,8773 6297,8795 6274,8817 6277,8820 6299,8798 6322,8820 6324,8817 6302,8795 6324,8773 6322,8770 6299,8792 Z"
   id="path510" />
 <path
   fill="none"
   stroke="rgb(0,69,134)"
   stroke-linejoin="round"
   d="M 6299,8792 L 6277,8770 6274,8773 6297,8795 6274,8817 6277,8820 6299,8798 6322,8820 6324,8817 6302,8795 6324,8773 6322,8770 6299,8792 Z"
   id="path512" />
 <path
   fill="rgb(0,69,134)"
   stroke="none"
   d="M 6041,8792 L 6019,8770 6016,8773 6039,8795 6016,8817 6019,8820 6041,8798 6064,8820 6066,8817 6044,8795 6066,8773 6064,8770 6041,8792 Z"
   id="path514" />
 <path
   fill="none"
   stroke="rgb(0,69,134)"
   stroke-linejoin="round"
   d="M 6041,8792 L 6019,8770 6016,8773 6039,8795 6016,8817 6019,8820 6041,8798 6064,8820 6066,8817 6044,8795 6066,8773 6064,8770 6041,8792 Z"
   id="path516" />
 <path
   fill="rgb(0,69,134)"
   stroke="none"
   d="M 5777,8792 L 5755,8770 5752,8773 5774,8795 5752,8817 5755,8820 5777,8798 5799,8820 5802,8817 5780,8795 5802,8773 5799,8770 5777,8792 Z"
   id="path518" />
 <path
   fill="none"
   stroke="rgb(0,69,134)"
   stroke-linejoin="round"
   d="M 5777,8792 L 5755,8770 5752,8773 5774,8795 5752,8817 5755,8820 5777,8798 5799,8820 5802,8817 5780,8795 5802,8773 5799,8770 5777,8792 Z"
   id="path520" />
 <text
   class="SVGTextShape"
   id="text528"><tspan
     class="TextParagraph"
     font-family="Liberation Sans, sans-serif"
     font-size="353px"
     font-weight="400"
     id="tspan526"><tspan
       class="TextPosition"
       x="2032"
       y="10364"
       id="tspan524"><tspan
         fill="rgb(0,0,0)"
         stroke="none"
         style="white-space: pre"
         id="tspan522">0</tspan></tspan></tspan></text>
 <text
   class="SVGTextShape"
   id="text536"><tspan
     class="TextParagraph"
     font-family="Liberation Sans, sans-serif"
     font-size="353px"
     font-weight="400"
     id="tspan534"><tspan
       class="TextPosition"
       x="3045"
       y="10364"
       id="tspan532"><tspan
         fill="rgb(0,0,0)"
         stroke="none"
         style="white-space: pre"
         id="tspan530">30</tspan></tspan></tspan></text>
 <text
   class="SVGTextShape"
   id="text544"><tspan
     class="TextParagraph"
     font-family="Liberation Sans, sans-serif"
     font-size="353px"
     font-weight="400"
     id="tspan542"><tspan
       class="TextPosition"
       x="4150"
       y="10364"
       id="tspan540"><tspan
         fill="rgb(0,0,0)"
         stroke="none"
         style="white-space: pre"
         id="tspan538">60</tspan></tspan></tspan></text>
 <text
   class="SVGTextShape"
   id="text552"><tspan
     class="TextParagraph"
     font-family="Liberation Sans, sans-serif"
     font-size="353px"
     font-weight="400"
     id="tspan550"><tspan
       class="TextPosition"
       x="5255"
       y="10364"
       id="tspan548"><tspan
         fill="rgb(0,0,0)"
         stroke="none"
         style="white-space: pre"
         id="tspan546">90</tspan></tspan></tspan></text>
 <text
   class="SVGTextShape"
   id="text560"><tspan
     class="TextParagraph"
     font-family="Liberation Sans, sans-serif"
     font-size="353px"
     font-weight="400"
     id="tspan558"><tspan
       class="TextPosition"
       x="6267"
       y="10364"
       id="tspan556"><tspan
         fill="rgb(0,0,0)"
         stroke="none"
         style="white-space: pre"
         id="tspan554">120</tspan></tspan></tspan></text>
 <text
   class="SVGTextShape"
   id="text568"><tspan
     class="TextParagraph"
     font-family="Liberation Sans, sans-serif"
     font-size="353px"
     font-weight="400"
     id="tspan566"><tspan
       class="TextPosition"
       x="7372"
       y="10364"
       id="tspan564"><tspan
         fill="rgb(0,0,0)"
         stroke="none"
         style="white-space: pre"
         id="tspan562">150</tspan></tspan></tspan></text>
 <text
   class="SVGTextShape"
   id="text576"><tspan
     class="TextParagraph"
     font-family="Liberation Sans, sans-serif"
     font-size="353px"
     font-weight="400"
     id="tspan574"><tspan
       class="TextPosition"
       x="8478"
       y="10364"
       id="tspan572"><tspan
         fill="rgb(0,0,0)"
         stroke="none"
         style="white-space: pre"
         id="tspan570">180</tspan></tspan></tspan></text>
 <text
   class="SVGTextShape"
   id="text584"><tspan
     class="TextParagraph"
     font-family="Liberation Sans, sans-serif"
     font-size="353px"
     font-weight="400"
     id="tspan582"><tspan
       class="TextPosition"
       x="9583"
       y="10364"
       id="tspan580"><tspan
         fill="rgb(0,0,0)"
         stroke="none"
         style="white-space: pre"
         id="tspan578">210</tspan></tspan></tspan></text>
 <text
   class="SVGTextShape"
   id="text592"><tspan
     class="TextParagraph"
     font-family="Liberation Sans, sans-serif"
     font-size="353px"
     font-weight="400"
     id="tspan590"><tspan
       class="TextPosition"
       x="10688"
       y="10364"
       id="tspan588"><tspan
         fill="rgb(0,0,0)"
         stroke="none"
         style="white-space: pre"
         id="tspan586">240</tspan></tspan></tspan></text>
 <text
   class="SVGTextShape"
   id="text600"><tspan
     class="TextParagraph"
     font-family="Liberation Sans, sans-serif"
     font-size="353px"
     font-weight="400"
     id="tspan598"><tspan
       class="TextPosition"
       x="11793"
       y="10364"
       id="tspan596"><tspan
         fill="rgb(0,0,0)"
         stroke="none"
         style="white-space: pre"
         id="tspan594">270</tspan></tspan></tspan></text>
 <text
   class="SVGTextShape"
   id="text608"><tspan
     class="TextParagraph"
     font-family="Liberation Sans, sans-serif"
     font-size="353px"
     font-weight="400"
     id="tspan606"><tspan
       class="TextPosition"
       x="12898"
       y="10364"
       id="tspan604"><tspan
         fill="rgb(0,0,0)"
         stroke="none"
         style="white-space: pre"
         id="tspan602">300</tspan></tspan></tspan></text>
 <text
   class="SVGTextShape"
   id="text616"><tspan
     class="TextParagraph"
     font-family="Liberation Sans, sans-serif"
     font-size="353px"
     font-weight="400"
     id="tspan614"><tspan
       class="TextPosition"
       x="14003"
       y="10364"
       id="tspan612"><tspan
         fill="rgb(0,0,0)"
         stroke="none"
         style="white-space: pre"
         id="tspan610">330</tspan></tspan></tspan></text>
 <text
   class="SVGTextShape"
   id="text624"><tspan
     class="TextParagraph"
     font-family="Liberation Sans, sans-serif"
     font-size="353px"
     font-weight="400"
     id="tspan622"><tspan
       class="TextPosition"
       x="15109"
       y="10364"
       id="tspan620"><tspan
         fill="rgb(0,0,0)"
         stroke="none"
         style="white-space: pre"
         id="tspan618">360</tspan></tspan></tspan></text>
 <text
   class="SVGTextShape"
   id="text632"><tspan
     class="TextParagraph"
     font-family="Liberation Sans, sans-serif"
     font-size="353px"
     font-weight="400"
     id="tspan630"><tspan
       class="TextPosition"
       x="1319"
       y="9917"
       id="tspan628"><tspan
         fill="rgb(0,0,0)"
         stroke="none"
         style="white-space: pre"
         id="tspan626">200</tspan></tspan></tspan></text>
 <text
   class="SVGTextShape"
   id="text640"><tspan
     class="TextParagraph"
     font-family="Liberation Sans, sans-serif"
     font-size="353px"
     font-weight="400"
     id="tspan638"><tspan
       class="TextPosition"
       x="1319"
       y="8353"
       id="tspan636"><tspan
         fill="rgb(0,0,0)"
         stroke="none"
         style="white-space: pre"
         id="tspan634">250</tspan></tspan></tspan></text>
 <text
   class="SVGTextShape"
   id="text648"><tspan
     class="TextParagraph"
     font-family="Liberation Sans, sans-serif"
     font-size="353px"
     font-weight="400"
     id="tspan646"><tspan
       class="TextPosition"
       x="1319"
       y="6790"
       id="tspan644"><tspan
         fill="rgb(0,0,0)"
         stroke="none"
         style="white-space: pre"
         id="tspan642">300</tspan></tspan></tspan></text>
 <text
   class="SVGTextShape"
   id="text656"><tspan
     class="TextParagraph"
     font-family="Liberation Sans, sans-serif"
     font-size="353px"
     font-weight="400"
     id="tspan654"><tspan
       class="TextPosition"
       x="1319"
       y="5227"
       id="tspan652"><tspan
         fill="rgb(0,0,0)"
         stroke="none"
         style="white-space: pre"
         id="tspan650">350</tspan></tspan></tspan></text>
 <text
   class="SVGTextShape"
   id="text664"><tspan
     class="TextParagraph"
     font-family="Liberation Sans, sans-serif"
     font-size="353px"
     font-weight="400"
     id="tspan662"><tspan
       class="TextPosition"
       x="1319"
       y="3664"
       id="tspan660"><tspan
         fill="rgb(0,0,0)"
         stroke="none"
         style="white-space: pre"
         id="tspan658">400</tspan></tspan></tspan></text>
 <text
   class="SVGTextShape"
   id="text672"><tspan
     class="TextParagraph"
     font-family="Liberation Sans, sans-serif"
     font-size="353px"
     font-weight="400"
     id="tspan670"><tspan
       class="TextPosition"
       x="1319"
       y="2101"
       id="tspan668"><tspan
         fill="rgb(0,0,0)"
         stroke="none"
         style="white-space: pre"
         id="tspan666">450</tspan></tspan></tspan></text>
 <text
   class="SVGTextShape"
   id="text680"><tspan
     class="TextParagraph"
     font-family="Liberation Sans, sans-serif"
     font-size="353px"
     font-weight="400"
     id="tspan678"><tspan
       class="TextPosition"
       x="1319"
       y="538"
       id="tspan676"><tspan
         fill="rgb(0,0,0)"
         stroke="none"
         style="white-space: pre"
         id="tspan674">500</tspan></tspan></tspan></text>
 <text
   class="SVGTextShape"
   id="text688"><tspan
     class="TextParagraph"
     font-family="Liberation Sans, sans-serif"
     font-size="318px"
     font-weight="400"
     id="tspan686"><tspan
       class="TextPosition"
       x="6812"
       y="11064"
       id="tspan684"><tspan
         fill="rgb(0,0,0)"
         stroke="none"
         style="white-space: pre"
         id="tspan682">Robot rotation angle ()</tspan></tspan></tspan></text>
 <text
   class="SVGTextShape"
   transform="rotate(-90 824 8109)"
   id="text696"><tspan
     class="TextParagraph"
     font-family="Liberation Sans, sans-serif"
     font-size="318px"
     font-weight="400"
     id="tspan694"><tspan
       class="TextPosition"
       x="824"
       y="8109"
       id="tspan692"><tspan
         fill="rgb(0,0,0)"
         stroke="none"
         style="white-space: pre"
         id="tspan690">Ultrasonic  sensor  measurement (mm)</tspan></tspan></tspan></text>
<rect
   style="fill:#c1c1c1;fill-opacity:1;stroke-width:52.9168;stroke-linecap:round;stroke-dasharray:52.9168, 105.833;stop-color:#000000"
   id="rect2049"
   width="5128.6147"
   height="6092.4487"
   x="2692.4214"
   y="1906.322" /><path
   style="fill:none;stroke:#686868;stroke-width:300;stroke-linecap:butt;stroke-linejoin:miter;stroke-miterlimit:4;stroke-dasharray:none;stroke-opacity:1"
   d="M 7821.0361,1906.322 H 2692.4214 v 6092.4483"
   id="path2514" /><image
   width="2326.5483"
   height="2179.2371"
   preserveAspectRatio="none"
   xlink:href="../../making-programs/basic-robot-navigation/inventor-top-view.png"
   id="image1626"
   x="-1170.2095"
   y="-9553.1973"
   style="stroke-width:613.336"
   transform="rotate(135)" /><path
   style="fill:none;stroke:#000000;stroke-width:27.349;stroke-linecap:butt;stroke-linejoin:miter;stroke-miterlimit:4;stroke-dasharray:none;stroke-opacity:1;marker-start:url(#Arrow2Lstart);marker-end:url(#Arrow2Lend)"
   d="M 3106.6121,6675.8213 H 5067.5858"
   id="path980" /><path
   style="fill:none;stroke:#000000;stroke-width:27.3491;stroke-linecap:butt;stroke-linejoin:miter;stroke-miterlimit:4;stroke-dasharray:none;stroke-opacity:1;marker-start:url(#Arrow2Lstart);marker-end:url(#Arrow2Lend)"
   d="M 5885.4491,2334.0124 V 4857.2305"
   id="path3171" /><text
   xml:space="preserve"
   style="font-style:normal;font-weight:normal;font-size:678.445px;line-height:1.25;font-family:sans-serif;fill:#000000;fill-opacity:1;stroke:none;stroke-width:746.704"
   x="6160.6729"
   y="3727.1826"
   id="text5573"><tspan
     sodipodi:role="line"
     id="tspan5571"
     style="stroke-width:746.704"
     x="6160.6729"
     y="3727.1826">?</tspan></text><text
   xml:space="preserve"
   style="font-style:normal;font-weight:normal;font-size:678.445px;line-height:1.25;font-family:sans-serif;fill:#000000;fill-opacity:1;stroke:none;stroke-width:746.704"
   x="3825.8535"
   y="7343.2178"
   id="text5921"><tspan
     sodipodi:role="line"
     id="tspan5919"
     style="stroke-width:746.704"
     x="3825.8535"
     y="7343.2178">?</tspan></text><text
   xml:space="preserve"
   style="font-style:normal;font-weight:normal;font-size:1058.33px;line-height:1.25;font-family:sans-serif;fill:#000000;fill-opacity:1;stroke:none;stroke-width:746.707"
   x="1658.6788"
   y="13453.618"
   id="text8337"><tspan
     sodipodi:role="line"
     id="tspan8335"
     style="stroke-width:746.707"
     x="1658.6788"
     y="13453.618" /></text></svg>
