<?xml version="1.0" encoding="UTF-8"?>
<svg width="207mm" height="116mm" stroke-linejoin="round" stroke-width="28.222" version="1.1" viewBox="0 0 20700 11600" xml:space="preserve" xmlns="http://www.w3.org/2000/svg">
 <path d="m10321 11621h-10334v-11634h20667v11634h-10333z" fill="#fff"/><g fill="none" stroke-linejoin="round"><g stroke="#b3b3b3">
 <path d="m11043 9761h-8825v-9343h17651v9343h-8826z"/>
 <path d="m19869 9760h-17651"/>
 <path d="m19869 8592h-17651"/>
 <path d="m19869 7424h-17651"/>
 <path d="m19869 6256h-17651"/>
 <path d="m19869 5089h-17651"/>
 <path d="m19869 3921h-17651"/>
 <path d="m19869 2753h-17651"/>
 <path d="m19869 1585h-17651"/>
 <path d="m19869 417h-17651"/>
 <path d="m2218 9910v-150"/>
 <path d="m2218 9910v-150"/>
 <path d="m3983 9910v-150"/>
 <path d="m3983 9910v-150"/>
 <path d="m5748 9910v-150"/>
 <path d="m5748 9910v-150"/>
 <path d="m7513 9910v-150"/>
 <path d="m7513 9910v-150"/>
 <path d="m9278 9910v-150"/>
 <path d="m9278 9910v-150"/>
 <path d="m11043 9910v-150"/>
 <path d="m11043 9910v-150"/>
 <path d="m12808 9910v-150"/>
 <path d="m12808 9910v-150"/>
 <path d="m14573 9910v-150"/>
 <path d="m14573 9910v-150"/>
 <path d="m16338 9910v-150"/>
 <path d="m16338 9910v-150"/>
 <path d="m18103 9910v-150"/>
 <path d="m18103 9910v-150"/>
 <path d="m19869 9910v-150"/>
 <path d="m19869 9910v-150"/>
 <path d="m2218 9760h17651"/>
 <path d="m2068 9760h150"/>
 <path d="m2068 9760h150"/>
 <path d="m2068 8592h150"/>
 <path d="m2068 8592h150"/>
 <path d="m2068 7424h150"/>
 <path d="m2068 7424h150"/>
 <path d="m2068 6256h150"/>
 <path d="m2068 6256h150"/>
 <path d="m2068 5089h150"/>
 <path d="m2068 5089h150"/>
 <path d="m2068 3921h150"/>
 <path d="m2068 3921h150"/>
 <path d="m2068 2753h150"/>
 <path d="m2068 2753h150"/>
 <path d="m2068 1585h150"/>
 <path d="m2068 1585h150"/>
 <path d="m2068 417h150"/>
 <path d="m2068 417h150"/>
 <path d="m2218 9760v-9343"/>
 </g><path d="m2218 5882h353 353 353l353 35 353-94 353-139 353-303 353-328 353-350 353-467 353-619 706-818 353-455 353-491 353-187 706-444 353-151 353-59 353-117 353 35 352 106 353 257 354 280 353 374 706 934 353 304 353 560 353 561 353 491 353 397 353 525 353 420 353 362 353 420 353 234 353 257 353 210 353 164 353 23 353 70 353 47h353l353 23 353-58 353-129 353-117" stroke="#004586" stroke-width="80"/>
 </g><text class="SVGTextShape"><tspan class="TextParagraph" font-family="Liberation Sans, sans-serif" font-size="353px" font-weight="400"><tspan class="TextPosition" x="2125" y="10328"><tspan fill="rgb(0,0,0)" style="white-space:pre">0</tspan></tspan></tspan></text>
 <text class="SVGTextShape"><tspan class="TextParagraph" font-family="Liberation Sans, sans-serif" font-size="353px" font-weight="400"><tspan class="TextPosition" x="3705" y="10328"><tspan fill="rgb(0,0,0)" style="white-space:pre">500</tspan></tspan></tspan></text>
 <text class="SVGTextShape"><tspan class="TextParagraph" font-family="Liberation Sans, sans-serif" font-size="353px" font-weight="400"><tspan class="TextPosition" x="5377" y="10328"><tspan fill="rgb(0,0,0)" style="white-space:pre">1000</tspan></tspan></tspan></text>
 <text class="SVGTextShape"><tspan class="TextParagraph" font-family="Liberation Sans, sans-serif" font-size="353px" font-weight="400"><tspan class="TextPosition" x="7142" y="10328"><tspan fill="rgb(0,0,0)" style="white-space:pre">1500</tspan></tspan></tspan></text>
 <text class="SVGTextShape"><tspan class="TextParagraph" font-family="Liberation Sans, sans-serif" font-size="353px" font-weight="400"><tspan class="TextPosition" x="8907" y="10328"><tspan fill="rgb(0,0,0)" style="white-space:pre">2000</tspan></tspan></tspan></text>
 <text class="SVGTextShape"><tspan class="TextParagraph" font-family="Liberation Sans, sans-serif" font-size="353px" font-weight="400"><tspan class="TextPosition" x="10673" y="10328"><tspan fill="rgb(0,0,0)" style="white-space:pre">2500</tspan></tspan></tspan></text>
 <text class="SVGTextShape"><tspan class="TextParagraph" font-family="Liberation Sans, sans-serif" font-size="353px" font-weight="400"><tspan class="TextPosition" x="12438" y="10328"><tspan fill="rgb(0,0,0)" style="white-space:pre">3000</tspan></tspan></tspan></text>
 <text class="SVGTextShape"><tspan class="TextParagraph" font-family="Liberation Sans, sans-serif" font-size="353px" font-weight="400"><tspan class="TextPosition" x="14203" y="10328"><tspan fill="rgb(0,0,0)" style="white-space:pre">3500</tspan></tspan></tspan></text>
 <text class="SVGTextShape"><tspan class="TextParagraph" font-family="Liberation Sans, sans-serif" font-size="353px" font-weight="400"><tspan class="TextPosition" x="15968" y="10328"><tspan fill="rgb(0,0,0)" style="white-space:pre">4000</tspan></tspan></tspan></text>
 <text class="SVGTextShape"><tspan class="TextParagraph" font-family="Liberation Sans, sans-serif" font-size="353px" font-weight="400"><tspan class="TextPosition" x="17733" y="10328"><tspan fill="rgb(0,0,0)" style="white-space:pre">4500</tspan></tspan></tspan></text>
 <text class="SVGTextShape"><tspan class="TextParagraph" font-family="Liberation Sans, sans-serif" font-size="353px" font-weight="400"><tspan class="TextPosition" x="19499" y="10328"><tspan fill="rgb(0,0,0)" style="white-space:pre">5000</tspan></tspan></tspan></text>
 <text class="SVGTextShape"><tspan class="TextParagraph" font-family="Liberation Sans, sans-serif" font-size="353px" font-weight="400"><tspan class="TextPosition" x="1783" y="9881"><tspan fill="rgb(0,0,0)" style="white-space:pre">0</tspan></tspan></tspan></text>
 <text class="SVGTextShape"><tspan class="TextParagraph" font-family="Liberation Sans, sans-serif" font-size="353px" font-weight="400"><tspan class="TextPosition" x="1412" y="8713"><tspan fill="rgb(0,0,0)" style="white-space:pre">100</tspan></tspan></tspan></text>
 <text class="SVGTextShape"><tspan class="TextParagraph" font-family="Liberation Sans, sans-serif" font-size="353px" font-weight="400"><tspan class="TextPosition" x="1412" y="7545"><tspan fill="rgb(0,0,0)" style="white-space:pre">200</tspan></tspan></tspan></text>
 <text class="SVGTextShape"><tspan class="TextParagraph" font-family="Liberation Sans, sans-serif" font-size="353px" font-weight="400"><tspan class="TextPosition" x="1412" y="6377"><tspan fill="rgb(0,0,0)" style="white-space:pre">300</tspan></tspan></tspan></text>
 <text class="SVGTextShape"><tspan class="TextParagraph" font-family="Liberation Sans, sans-serif" font-size="353px" font-weight="400"><tspan class="TextPosition" x="1412" y="5209"><tspan fill="rgb(0,0,0)" style="white-space:pre">400</tspan></tspan></tspan></text>
 <text class="SVGTextShape"><tspan class="TextParagraph" font-family="Liberation Sans, sans-serif" font-size="353px" font-weight="400"><tspan class="TextPosition" x="1412" y="4041"><tspan fill="rgb(0,0,0)" style="white-space:pre">500</tspan></tspan></tspan></text>
 <text class="SVGTextShape"><tspan class="TextParagraph" font-family="Liberation Sans, sans-serif" font-size="353px" font-weight="400"><tspan class="TextPosition" x="1412" y="2873"><tspan fill="rgb(0,0,0)" style="white-space:pre">600</tspan></tspan></tspan></text>
 <text class="SVGTextShape"><tspan class="TextParagraph" font-family="Liberation Sans, sans-serif" font-size="353px" font-weight="400"><tspan class="TextPosition" x="1412" y="1705"><tspan fill="rgb(0,0,0)" style="white-space:pre">700</tspan></tspan></tspan></text>
 <text class="SVGTextShape"><tspan class="TextParagraph" font-family="Liberation Sans, sans-serif" font-size="353px" font-weight="400"><tspan class="TextPosition" x="1412" y="537"><tspan fill="rgb(0,0,0)" style="white-space:pre">800</tspan></tspan></tspan></text>
 <text class="SVGTextShape"><tspan class="TextParagraph" font-family="Liberation Sans, sans-serif" font-size="318px" font-weight="400"><tspan class="TextPosition" x="10111" y="11027"><tspan fill="rgb(0,0,0)" style="white-space:pre">Time (ms)</tspan></tspan></tspan></text>
 <text class="SVGTextShape" transform="rotate(-90 824 6358)"><tspan class="TextParagraph" font-family="Liberation Sans, sans-serif" font-size="318px" font-weight="400"><tspan class="TextPosition" x="824" y="6358"><tspan fill="rgb(0,0,0)" style="white-space:pre">Distance (mm)</tspan></tspan></tspan></text>
</svg>
