<?xml version="1.0" encoding="UTF-8" standalone="no"?>
<!-- Created with Inkscape (http://www.inkscape.org/) -->

<svg
   width="1000"
   height="280"
   viewBox="0 0 264.58333 74.08333"
   version="1.1"
   id="svg5"
   inkscape:version="1.1.2 (0a00cf5339, 2022-02-04)"
   sodipodi:docname="angle-line-zoom.svg"
   xmlns:inkscape="http://www.inkscape.org/namespaces/inkscape"
   xmlns:sodipodi="http://sodipodi.sourceforge.net/DTD/sodipodi-0.dtd"
   xmlns="http://www.w3.org/2000/svg"
   xmlns:svg="http://www.w3.org/2000/svg">
  <sodipodi:namedview
     id="namedview7"
     pagecolor="#ffffff"
     bordercolor="#666666"
     borderopacity="1.0"
     inkscape:pageshadow="2"
     inkscape:pageopacity="0.0"
     inkscape:pagecheckerboard="0"
     inkscape:document-units="px"
     showgrid="false"
     units="in"
     width="1000px"
     inkscape:zoom="0.41222868"
     inkscape:cx="869.66293"
     inkscape:cy="580.9882"
     inkscape:window-width="1860"
     inkscape:window-height="1136"
     inkscape:window-x="60"
     inkscape:window-y="27"
     inkscape:window-maximized="1"
     inkscape:current-layer="layer1"
     height="300px"
     inkscape:snap-global="false" />
  <defs
     id="defs2">
    <marker
       style="overflow:visible"
       id="Arrow2Lend"
       refX="0"
       refY="0"
       orient="auto"
       inkscape:stockid="Arrow2Lend"
       inkscape:isstock="true">
      <path
         transform="matrix(-1.1,0,0,-1.1,-1.1,0)"
         d="M 8.7185878,4.0337352 -2.2072895,0.01601326 8.7185884,-4.0017078 c -1.7454984,2.3720609 -1.7354408,5.6174519 -6e-7,8.035443 z"
         style="fill:context-stroke;fill-rule:evenodd;stroke:context-stroke;stroke-width:0.625;stroke-linejoin:round"
         id="path18849" />
    </marker>
    <rect
       x="60.017735"
       y="171.80511"
       width="265.96933"
       height="59.943291"
       id="rect4204" />
    <rect
       x="60.017735"
       y="171.80511"
       width="265.96933"
       height="59.943291"
       id="rect8637" />
    <rect
       x="60.017735"
       y="171.80511"
       width="265.96933"
       height="59.943291"
       id="rect8645" />
    <rect
       x="60.017735"
       y="171.80511"
       width="265.96933"
       height="59.943291"
       id="rect15945" />
    <rect
       x="60.017735"
       y="171.80511"
       width="265.96933"
       height="59.943291"
       id="rect15947" />
    <rect
       x="60.017735"
       y="171.80511"
       width="265.96933"
       height="59.943291"
       id="rect15949" />
    <rect
       x="60.017735"
       y="171.80511"
       width="265.96933"
       height="59.943291"
       id="rect42858" />
    <rect
       x="60.017735"
       y="171.80511"
       width="265.96933"
       height="59.943291"
       id="rect43458" />
    <rect
       x="60.017735"
       y="171.80511"
       width="265.96933"
       height="59.943291"
       id="rect43840" />
    <rect
       x="60.017735"
       y="171.80511"
       width="265.96933"
       height="59.943291"
       id="rect47112" />
    <rect
       x="60.017735"
       y="171.80511"
       width="265.96933"
       height="59.943291"
       id="rect47116" />
    <rect
       x="60.017735"
       y="171.80511"
       width="265.96933"
       height="59.943291"
       id="rect47120" />
    <rect
       x="60.017735"
       y="171.80511"
       width="265.96933"
       height="59.943291"
       id="rect47124" />
    <rect
       x="60.017735"
       y="171.80511"
       width="265.96933"
       height="59.943291"
       id="rect49898" />
    <rect
       x="60.017735"
       y="171.80511"
       width="265.96933"
       height="59.943291"
       id="rect50232" />
  </defs>
  <g
     inkscape:label="Layer 1"
     inkscape:groupmode="layer"
     id="layer1">
    <rect
       style="fill:#b9dbff;fill-opacity:1;stroke:none;stroke-width:0.529168;stroke-miterlimit:4;stroke-dasharray:0.529168, 1.05833;stroke-dashoffset:0;stroke-opacity:1"
       id="rect55446"
       width="93.977638"
       height="48.497395"
       x="85.244835"
       y="0.57282186" />
    <path
       style="fill:none;stroke:#000000;stroke-width:0.529167;stroke-linecap:butt;stroke-linejoin:miter;stroke-miterlimit:4;stroke-dasharray:0.529167, 1.05833;stroke-dashoffset:0;stroke-opacity:1"
       d="m 250.21982,31.656083 h 14.10842"
       id="path51262" />
    <path
       style="fill:none;stroke:#000000;stroke-width:0.529167;stroke-linecap:butt;stroke-linejoin:miter;stroke-miterlimit:4;stroke-dasharray:none;stroke-opacity:1"
       d="M 9.322721,31.656082 H 252.8888"
       id="path857" />
    <text
       xml:space="preserve"
       transform="matrix(0.1946794,0,0,0.1946794,118.31407,4.6842909)"
       id="text4202"
       style="font-style:normal;font-weight:normal;font-size:30.8056px;line-height:1.25;font-family:sans-serif;white-space:pre;shape-inside:url(#rect4204);fill:#000000;fill-opacity:1;stroke:none"><tspan
         x="60.017578"
         y="199.06042"
         id="tspan60559">0°</tspan></text>
    <path
       style="fill:none;stroke:#6a6a6a;stroke-width:0.529166;stroke-linecap:butt;stroke-linejoin:miter;stroke-miterlimit:4;stroke-dasharray:none;stroke-opacity:1"
       d="m 179.12416,28.589306 v 6.072651"
       id="path5097" />
    <text
       xml:space="preserve"
       transform="matrix(0.1946794,0,0,0.1946794,139.706,4.6842909)"
       id="text8633"
       style="font-style:normal;font-weight:normal;font-size:30.8056px;line-height:1.25;font-family:sans-serif;white-space:pre;shape-inside:url(#rect8637);fill:#000000;fill-opacity:1;stroke:none"><tspan
         x="60.017578"
         y="199.06042"
         id="tspan60561">90°</tspan></text>
    <path
       style="fill:none;stroke:#6a6a6a;stroke-width:0.529166;stroke-linecap:butt;stroke-linejoin:miter;stroke-miterlimit:4;stroke-dasharray:none;stroke-opacity:1"
       d="m 202.60383,28.589306 v 6.072651"
       id="path8635" />
    <text
       xml:space="preserve"
       transform="matrix(0.1946794,0,0,0.1946794,160.7818,4.6842909)"
       id="text8641"
       style="font-style:normal;font-weight:normal;font-size:30.8056px;line-height:1.25;font-family:sans-serif;white-space:pre;shape-inside:url(#rect8645);fill:#000000;fill-opacity:1;stroke:none"><tspan
         x="60.017578"
         y="199.06042"
         id="tspan60563">180°</tspan></text>
    <path
       style="fill:none;stroke:#6a6a6a;stroke-width:0.529166;stroke-linecap:butt;stroke-linejoin:miter;stroke-miterlimit:4;stroke-dasharray:none;stroke-opacity:1"
       d="m 226.0835,28.589306 v 6.072651"
       id="path8643" />
    <path
       style="fill:none;stroke:#6a6a6a;stroke-width:0.529166;stroke-linecap:butt;stroke-linejoin:miter;stroke-miterlimit:4;stroke-dasharray:none;stroke-opacity:1"
       d="m 132.16482,28.589306 v 6.072651"
       id="path15939" />
    <path
       style="fill:none;stroke:#6a6a6a;stroke-width:0.529166;stroke-linecap:butt;stroke-linejoin:miter;stroke-miterlimit:4;stroke-dasharray:none;stroke-opacity:1"
       d="m 155.64449,28.589306 v 6.072651"
       id="path15943" />
    <g
       id="g44905"
       inkscape:transform-center-y="-2.3794556"
       transform="matrix(0.80777541,0,0,0.80777541,2.5865239,-63.304914)"
       inkscape:transform-center-x="-1.0548044e-06">
      <g
         id="g25935"
         transform="matrix(-2.4946606,0,0,2.4928588,526.65817,90.257045)"
         style="stroke-width:1.203">
        <g
           id="g25925"
           transform="matrix(0.27238917,0,0,0.27239203,-44.656911,-417.97819)"
           style="fill:#c2c2c2;fill-opacity:1;stroke-width:0.349859;stroke-miterlimit:4;stroke-dasharray:none;text-rendering:optimizeLegibility;-webkit-font-smoothing:antialiased">
          <path
             id="path25923"
             style="fill:#c2c2c2;fill-opacity:1;stroke:#1b2933;stroke-width:0.349859;stroke-miterlimit:4;stroke-dasharray:none;stroke-opacity:1;text-rendering:optimizeLegibility;-webkit-font-smoothing:antialiased"
             d="m 702.85851,1530.4546 a 11.996453,11.996235 0 0 0 -11.99737,11.9974 11.996453,11.996235 0 0 0 11.99737,11.9954 11.996453,11.996235 0 0 0 11.99538,-11.9954 11.996453,11.996235 0 0 0 -11.99538,-11.9974 z m 0,1.555 a 3.4351067,3.4351067 0 0 1 3.43494,3.435 3.4351067,3.4351067 0 0 1 -3.43494,3.4349 3.4351067,3.4351067 0 0 1 -3.43494,-3.4349 3.4351067,3.4351067 0 0 1 3.43494,-3.435 z m -7.00744,7.0075 a 3.4351067,3.4351067 0 0 1 3.43494,3.4349 3.4351067,3.4351067 0 0 1 -3.43494,3.435 3.4351067,3.4351067 0 0 1 -3.43494,-3.435 3.4351067,3.4351067 0 0 1 3.43494,-3.4349 z m 14.01488,0 a 3.4351067,3.4351067 0 0 1 3.43493,3.4349 3.4351067,3.4351067 0 0 1 -3.43493,3.435 3.4351067,3.4351067 0 0 1 -3.43494,-3.435 3.4351067,3.4351067 0 0 1 3.43494,-3.4349 z m -7.69124,1.0625 h 1.3656 v 1.6906 h 1.68856 v 1.3656 h -1.68856 v 1.6886 h -1.3656 v -1.6886 h -1.68856 v -1.3656 h 1.68856 z m 0.6838,5.9449 a 3.4351067,3.4351067 0 0 1 3.43494,3.435 3.4351067,3.4351067 0 0 1 -3.43494,3.4349 3.4351067,3.4351067 0 0 1 -3.43494,-3.4349 3.4351067,3.4351067 0 0 1 3.43494,-3.435 z" />
        </g>
        <path
           style="fill:none;fill-opacity:1;stroke:#1b2933;stroke-width:0.0954884;stroke-linecap:round;stroke-linejoin:round;stroke-miterlimit:4;stroke-dasharray:none;stroke-opacity:1"
           id="path25927"
           sodipodi:type="arc"
           sodipodi:cx="146.79387"
           sodipodi:cy="2.1731567"
           sodipodi:rx="2.6088758"
           sodipodi:ry="2.6089087"
           sodipodi:start="1.8599364"
           sodipodi:end="2.8569393"
           sodipodi:open="true"
           sodipodi:arc-type="arc"
           d="M 146.05001,4.6737681 A 2.6088758,2.6089087 0 0 1 144.28998,2.9058029" />
        <path
           style="fill:none;fill-opacity:1;stroke:#1b2933;stroke-width:0.0954884;stroke-linecap:round;stroke-linejoin:round;stroke-miterlimit:4;stroke-dasharray:none;stroke-opacity:1"
           id="path25929"
           sodipodi:type="arc"
           sodipodi:cx="146.79387"
           sodipodi:cy="2.1731567"
           sodipodi:rx="2.6088758"
           sodipodi:ry="2.6089087"
           sodipodi:start="0.28243582"
           sodipodi:end="1.2809297"
           sodipodi:arc-type="arc"
           sodipodi:open="true"
           d="M 149.29938,2.9002486 A 2.6088758,2.6089087 0 0 1 147.53955,4.673227" />
        <path
           style="fill:none;fill-opacity:1;stroke:#1b2933;stroke-width:0.0954884;stroke-linecap:round;stroke-linejoin:round;stroke-miterlimit:4;stroke-dasharray:none;stroke-opacity:1"
           id="path25931"
           sodipodi:type="arc"
           sodipodi:cx="146.79387"
           sodipodi:cy="2.1731567"
           sodipodi:rx="2.6088758"
           sodipodi:ry="2.6089087"
           sodipodi:start="3.4308306"
           sodipodi:end="4.4192812"
           sodipodi:open="true"
           sodipodi:arc-type="arc"
           d="m 144.29336,1.4290388 a 2.6088758,2.6089087 0 0 1 1.74673,-1.75352226" />
        <path
           style="fill:none;fill-opacity:1;stroke:#1b2933;stroke-width:0.0954884;stroke-linecap:round;stroke-linejoin:round;stroke-miterlimit:4;stroke-dasharray:none;stroke-opacity:1"
           id="path25933"
           sodipodi:type="arc"
           sodipodi:cx="146.79387"
           sodipodi:cy="2.1731567"
           sodipodi:rx="2.6088758"
           sodipodi:ry="2.6089087"
           sodipodi:start="4.9961636"
           sodipodi:end="6.0025369"
           sodipodi:open="true"
           sodipodi:arc-type="arc"
           d="m 147.52431,-0.33140981 a 2.6088758,2.6089087 0 0 1 1.77637,1.78195431" />
      </g>
      <g
         id="g44732"
         transform="translate(0,0.19455014)">
        <path
           style="fill:#940a0a;fill-opacity:1;stroke:#1b2933;stroke-width:0.264584;stroke-miterlimit:4;stroke-dasharray:none;stroke-dashoffset:0;stroke-opacity:1"
           d="m 157.8702,94.887517 c 0.005,-0.101642 0.0123,-0.328447 0.0172,-0.504012 0.1009,-3.563151 0.49369,-7.223818 1.11946,-10.433053 0.1357,-0.695915 0.42386,-2.019086 0.5223,-2.39826 l 0.0164,-0.063 h 0.42388 0.42388 v 5.77704 5.777038 l -0.15919,0.01185 c -1.06262,0.07912 -1.95349,0.786013 -2.3093,1.832395 l -0.0628,0.184804 z"
           id="path35991" />
        <path
           style="fill:#b40000;fill-opacity:1;stroke:#1b2933;stroke-width:0.264584;stroke-miterlimit:4;stroke-dasharray:none;stroke-dashoffset:0;stroke-opacity:1"
           d="m 162.91231,94.887517 c -0.005,-0.101642 -0.0123,-0.328447 -0.0172,-0.504012 -0.10091,-3.563151 -0.4937,-7.223818 -1.11947,-10.433053 -0.13569,-0.695915 -0.42385,-2.019086 -0.52229,-2.39826 l -0.0164,-0.063 h -0.42388 -0.42388 v 5.77704 5.777038 l 0.15919,0.01185 c 1.06262,0.07912 1.95349,0.786013 2.3093,1.832395 l 0.0628,0.184804 z"
           id="path35993" />
        <path
           style="fill:#dd2929;fill-opacity:1;stroke:#1b2933;stroke-width:0.264584;stroke-miterlimit:4;stroke-dasharray:none;stroke-dashoffset:0;stroke-opacity:1"
           d="m 159.95078,98.116573 c -1.00758,-0.197704 -1.79055,-0.946761 -2.05356,-1.964621 -0.0571,-0.220858 -0.065,-0.299246 -0.065,-0.641576 0,-0.342331 0.008,-0.420718 0.065,-0.641577 0.21365,-0.826827 0.78757,-1.499141 1.54641,-1.811518 0.34847,-0.143447 0.50496,-0.172152 0.93911,-0.172253 0.36002,-9.6e-5 0.42958,0.0071 0.64621,0.0669 1.1396,0.314501 1.92119,1.35535 1.92119,2.558443 0,1.203344 -0.78964,2.254021 -1.92119,2.556296 -0.30087,0.08037 -0.80416,0.103668 -1.07817,0.0499 z m -0.13043,-1.499163 v -0.528357 h -0.51348 -0.51348 v 0.09799 c 0,0.15352 0.0881,0.405811 0.18968,0.542987 0.17849,0.241109 0.48077,0.412026 0.73336,0.414657 l 0.10392,0.0011 z m 1.47479,0.477645 c 0.34699,-0.110279 0.60721,-0.415515 0.67475,-0.791486 0.0147,-0.08155 0.0266,-0.163182 0.0266,-0.181398 0,-0.02636 -0.10731,-0.03312 -0.5257,-0.03312 h -0.52571 v 0.528357 0.528357 h 0.0952 c 0.0524,0 0.16703,-0.02282 0.25479,-0.05071 z m -1.47479,-2.691713 v -0.528357 h -0.0973 c -0.14493,0 -0.39348,0.09314 -0.52825,0.197948 -0.23379,0.18182 -0.40142,0.49951 -0.40142,0.760777 v 0.09799 h 0.51348 0.51348 z m 2.17618,0.495238 c 0,-0.19319 -0.1268,-0.531687 -0.25303,-0.675448 -0.17339,-0.197489 -0.47768,-0.348147 -0.70315,-0.348147 h -0.0952 v 0.528357 0.528357 h 0.52571 c 0.41839,0 0.5257,-0.0068 0.5257,-0.03312 z"
           id="path35995" />
      </g>
    </g>
    <g
       id="g45013"
       transform="matrix(0,0.80777541,-0.80777541,0,232.834,-115.61607)"
       inkscape:transform-center-x="-2.3794488"
       inkscape:transform-center-y="-4.1943043e-06">
      <g
         id="g45003"
         transform="matrix(-2.4946606,0,0,2.4928588,526.65817,90.257045)"
         style="stroke-width:1.203">
        <g
           id="g44993"
           transform="matrix(0.27238917,0,0,0.27239203,-44.656911,-417.97819)"
           style="fill:#c2c2c2;fill-opacity:1;stroke-width:0.349859;stroke-miterlimit:4;stroke-dasharray:none;text-rendering:optimizeLegibility;-webkit-font-smoothing:antialiased">
          <path
             id="path44991"
             style="fill:#c2c2c2;fill-opacity:1;stroke:#1b2933;stroke-width:0.349859;stroke-miterlimit:4;stroke-dasharray:none;stroke-opacity:1;text-rendering:optimizeLegibility;-webkit-font-smoothing:antialiased"
             d="m 702.85851,1530.4546 a 11.996453,11.996235 0 0 0 -11.99737,11.9974 11.996453,11.996235 0 0 0 11.99737,11.9954 11.996453,11.996235 0 0 0 11.99538,-11.9954 11.996453,11.996235 0 0 0 -11.99538,-11.9974 z m 0,1.555 a 3.4351067,3.4351067 0 0 1 3.43494,3.435 3.4351067,3.4351067 0 0 1 -3.43494,3.4349 3.4351067,3.4351067 0 0 1 -3.43494,-3.4349 3.4351067,3.4351067 0 0 1 3.43494,-3.435 z m -7.00744,7.0075 a 3.4351067,3.4351067 0 0 1 3.43494,3.4349 3.4351067,3.4351067 0 0 1 -3.43494,3.435 3.4351067,3.4351067 0 0 1 -3.43494,-3.435 3.4351067,3.4351067 0 0 1 3.43494,-3.4349 z m 14.01488,0 a 3.4351067,3.4351067 0 0 1 3.43493,3.4349 3.4351067,3.4351067 0 0 1 -3.43493,3.435 3.4351067,3.4351067 0 0 1 -3.43494,-3.435 3.4351067,3.4351067 0 0 1 3.43494,-3.4349 z m -7.69124,1.0625 h 1.3656 v 1.6906 h 1.68856 v 1.3656 h -1.68856 v 1.6886 h -1.3656 v -1.6886 h -1.68856 v -1.3656 h 1.68856 z m 0.6838,5.9449 a 3.4351067,3.4351067 0 0 1 3.43494,3.435 3.4351067,3.4351067 0 0 1 -3.43494,3.4349 3.4351067,3.4351067 0 0 1 -3.43494,-3.4349 3.4351067,3.4351067 0 0 1 3.43494,-3.435 z" />
        </g>
        <path
           style="fill:none;fill-opacity:1;stroke:#1b2933;stroke-width:0.0954884;stroke-linecap:round;stroke-linejoin:round;stroke-miterlimit:4;stroke-dasharray:none;stroke-opacity:1"
           id="path44995"
           sodipodi:type="arc"
           sodipodi:cx="146.79387"
           sodipodi:cy="2.1731567"
           sodipodi:rx="2.6088758"
           sodipodi:ry="2.6089087"
           sodipodi:start="1.8599364"
           sodipodi:end="2.8569393"
           sodipodi:open="true"
           sodipodi:arc-type="arc"
           d="M 146.05001,4.6737681 A 2.6088758,2.6089087 0 0 1 144.28998,2.9058029" />
        <path
           style="fill:none;fill-opacity:1;stroke:#1b2933;stroke-width:0.0954884;stroke-linecap:round;stroke-linejoin:round;stroke-miterlimit:4;stroke-dasharray:none;stroke-opacity:1"
           id="path44997"
           sodipodi:type="arc"
           sodipodi:cx="146.79387"
           sodipodi:cy="2.1731567"
           sodipodi:rx="2.6088758"
           sodipodi:ry="2.6089087"
           sodipodi:start="0.28243582"
           sodipodi:end="1.2809297"
           sodipodi:arc-type="arc"
           sodipodi:open="true"
           d="M 149.29938,2.9002486 A 2.6088758,2.6089087 0 0 1 147.53955,4.673227" />
        <path
           style="fill:none;fill-opacity:1;stroke:#1b2933;stroke-width:0.0954884;stroke-linecap:round;stroke-linejoin:round;stroke-miterlimit:4;stroke-dasharray:none;stroke-opacity:1"
           id="path44999"
           sodipodi:type="arc"
           sodipodi:cx="146.79387"
           sodipodi:cy="2.1731567"
           sodipodi:rx="2.6088758"
           sodipodi:ry="2.6089087"
           sodipodi:start="3.4308306"
           sodipodi:end="4.4192812"
           sodipodi:open="true"
           sodipodi:arc-type="arc"
           d="m 144.29336,1.4290388 a 2.6088758,2.6089087 0 0 1 1.74673,-1.75352226" />
        <path
           style="fill:none;fill-opacity:1;stroke:#1b2933;stroke-width:0.0954884;stroke-linecap:round;stroke-linejoin:round;stroke-miterlimit:4;stroke-dasharray:none;stroke-opacity:1"
           id="path45001"
           sodipodi:type="arc"
           sodipodi:cx="146.79387"
           sodipodi:cy="2.1731567"
           sodipodi:rx="2.6088758"
           sodipodi:ry="2.6089087"
           sodipodi:start="4.9961636"
           sodipodi:end="6.0025369"
           sodipodi:open="true"
           sodipodi:arc-type="arc"
           d="m 147.52431,-0.33140981 a 2.6088758,2.6089087 0 0 1 1.77637,1.78195431" />
      </g>
      <g
         id="g45011"
         transform="translate(0,0.19455014)">
        <path
           style="fill:#940a0a;fill-opacity:1;stroke:#1b2933;stroke-width:0.264584;stroke-miterlimit:4;stroke-dasharray:none;stroke-dashoffset:0;stroke-opacity:1"
           d="m 157.8702,94.887517 c 0.005,-0.101642 0.0123,-0.328447 0.0172,-0.504012 0.1009,-3.563151 0.49369,-7.223818 1.11946,-10.433053 0.1357,-0.695915 0.42386,-2.019086 0.5223,-2.39826 l 0.0164,-0.063 h 0.42388 0.42388 v 5.77704 5.777038 l -0.15919,0.01185 c -1.06262,0.07912 -1.95349,0.786013 -2.3093,1.832395 l -0.0628,0.184804 z"
           id="path45005" />
        <path
           style="fill:#b40000;fill-opacity:1;stroke:#1b2933;stroke-width:0.264584;stroke-miterlimit:4;stroke-dasharray:none;stroke-dashoffset:0;stroke-opacity:1"
           d="m 162.91231,94.887517 c -0.005,-0.101642 -0.0123,-0.328447 -0.0172,-0.504012 -0.10091,-3.563151 -0.4937,-7.223818 -1.11947,-10.433053 -0.13569,-0.695915 -0.42385,-2.019086 -0.52229,-2.39826 l -0.0164,-0.063 h -0.42388 -0.42388 v 5.77704 5.777038 l 0.15919,0.01185 c 1.06262,0.07912 1.95349,0.786013 2.3093,1.832395 l 0.0628,0.184804 z"
           id="path45007" />
        <path
           style="fill:#dd2929;fill-opacity:1;stroke:#1b2933;stroke-width:0.264584;stroke-miterlimit:4;stroke-dasharray:none;stroke-dashoffset:0;stroke-opacity:1"
           d="m 159.95078,98.116573 c -1.00758,-0.197704 -1.79055,-0.946761 -2.05356,-1.964621 -0.0571,-0.220858 -0.065,-0.299246 -0.065,-0.641576 0,-0.342331 0.008,-0.420718 0.065,-0.641577 0.21365,-0.826827 0.78757,-1.499141 1.54641,-1.811518 0.34847,-0.143447 0.50496,-0.172152 0.93911,-0.172253 0.36002,-9.6e-5 0.42958,0.0071 0.64621,0.0669 1.1396,0.314501 1.92119,1.35535 1.92119,2.558443 0,1.203344 -0.78964,2.254021 -1.92119,2.556296 -0.30087,0.08037 -0.80416,0.103668 -1.07817,0.0499 z m -0.13043,-1.499163 v -0.528357 h -0.51348 -0.51348 v 0.09799 c 0,0.15352 0.0881,0.405811 0.18968,0.542987 0.17849,0.241109 0.48077,0.412026 0.73336,0.414657 l 0.10392,0.0011 z m 1.47479,0.477645 c 0.34699,-0.110279 0.60721,-0.415515 0.67475,-0.791486 0.0147,-0.08155 0.0266,-0.163182 0.0266,-0.181398 0,-0.02636 -0.10731,-0.03312 -0.5257,-0.03312 h -0.52571 v 0.528357 0.528357 h 0.0952 c 0.0524,0 0.16703,-0.02282 0.25479,-0.05071 z m -1.47479,-2.691713 v -0.528357 h -0.0973 c -0.14493,0 -0.39348,0.09314 -0.52825,0.197948 -0.23379,0.18182 -0.40142,0.49951 -0.40142,0.760777 v 0.09799 h 0.51348 0.51348 z m 2.17618,0.495238 c 0,-0.19319 -0.1268,-0.531687 -0.25303,-0.675448 -0.17339,-0.197489 -0.47768,-0.348147 -0.70315,-0.348147 h -0.0952 v 0.528357 0.528357 h 0.52571 c 0.41839,0 0.5257,-0.0068 0.5257,-0.03312 z"
           id="path45009" />
      </g>
    </g>
    <circle
       style="fill:none;fill-opacity:1;stroke:#8d8d8d;stroke-width:0.213724;stroke-miterlimit:4;stroke-dasharray:none;stroke-dashoffset:0;stroke-opacity:1"
       id="path45139"
       cx="155.64154"
       cy="4.1896353"
       r="0.99605936" />
    <text
       xml:space="preserve"
       transform="matrix(0.1946794,0,0,0.1946794,185.01664,4.6842909)"
       id="text42856"
       style="font-style:normal;font-weight:normal;font-size:30.8056px;line-height:1.25;font-family:sans-serif;white-space:pre;shape-inside:url(#rect42858);fill:#000000;fill-opacity:1;stroke:none"><tspan
         x="60.017578"
         y="199.06042"
         id="tspan60565">270°</tspan></text>
    <text
       xml:space="preserve"
       transform="matrix(0.1946794,0,0,0.1946794,208.86508,4.6842909)"
       id="text43456"
       style="font-style:normal;font-weight:normal;font-size:30.8056px;line-height:1.25;font-family:sans-serif;white-space:pre;shape-inside:url(#rect43458);fill:#000000;fill-opacity:1;stroke:none"><tspan
         x="60.017578"
         y="199.06042"
         id="tspan60567">360°</tspan></text>
    <g
       id="g45896"
       inkscape:transform-center-y="2.3794558"
       transform="matrix(-0.80777541,0,0,-0.80777541,308.75215,91.299707)"
       inkscape:transform-center-x="1.5269078e-06">
      <g
         id="g45886"
         transform="matrix(-2.4946606,0,0,2.4928588,526.65817,90.257045)"
         style="stroke-width:1.203">
        <g
           id="g45876"
           transform="matrix(0.27238917,0,0,0.27239203,-44.656911,-417.97819)"
           style="fill:#c2c2c2;fill-opacity:1;stroke-width:0.349859;stroke-miterlimit:4;stroke-dasharray:none;text-rendering:optimizeLegibility;-webkit-font-smoothing:antialiased">
          <path
             id="path45874"
             style="fill:#c2c2c2;fill-opacity:1;stroke:#1b2933;stroke-width:0.349859;stroke-miterlimit:4;stroke-dasharray:none;stroke-opacity:1;text-rendering:optimizeLegibility;-webkit-font-smoothing:antialiased"
             d="m 702.85851,1530.4546 a 11.996453,11.996235 0 0 0 -11.99737,11.9974 11.996453,11.996235 0 0 0 11.99737,11.9954 11.996453,11.996235 0 0 0 11.99538,-11.9954 11.996453,11.996235 0 0 0 -11.99538,-11.9974 z m 0,1.555 a 3.4351067,3.4351067 0 0 1 3.43494,3.435 3.4351067,3.4351067 0 0 1 -3.43494,3.4349 3.4351067,3.4351067 0 0 1 -3.43494,-3.4349 3.4351067,3.4351067 0 0 1 3.43494,-3.435 z m -7.00744,7.0075 a 3.4351067,3.4351067 0 0 1 3.43494,3.4349 3.4351067,3.4351067 0 0 1 -3.43494,3.435 3.4351067,3.4351067 0 0 1 -3.43494,-3.435 3.4351067,3.4351067 0 0 1 3.43494,-3.4349 z m 14.01488,0 a 3.4351067,3.4351067 0 0 1 3.43493,3.4349 3.4351067,3.4351067 0 0 1 -3.43493,3.435 3.4351067,3.4351067 0 0 1 -3.43494,-3.435 3.4351067,3.4351067 0 0 1 3.43494,-3.4349 z m -7.69124,1.0625 h 1.3656 v 1.6906 h 1.68856 v 1.3656 h -1.68856 v 1.6886 h -1.3656 v -1.6886 h -1.68856 v -1.3656 h 1.68856 z m 0.6838,5.9449 a 3.4351067,3.4351067 0 0 1 3.43494,3.435 3.4351067,3.4351067 0 0 1 -3.43494,3.4349 3.4351067,3.4351067 0 0 1 -3.43494,-3.4349 3.4351067,3.4351067 0 0 1 3.43494,-3.435 z" />
        </g>
        <path
           style="fill:none;fill-opacity:1;stroke:#1b2933;stroke-width:0.0954884;stroke-linecap:round;stroke-linejoin:round;stroke-miterlimit:4;stroke-dasharray:none;stroke-opacity:1"
           id="path45878"
           sodipodi:type="arc"
           sodipodi:cx="146.79387"
           sodipodi:cy="2.1731567"
           sodipodi:rx="2.6088758"
           sodipodi:ry="2.6089087"
           sodipodi:start="1.8599364"
           sodipodi:end="2.8569393"
           sodipodi:open="true"
           sodipodi:arc-type="arc"
           d="M 146.05001,4.6737681 A 2.6088758,2.6089087 0 0 1 144.28998,2.9058029" />
        <path
           style="fill:none;fill-opacity:1;stroke:#1b2933;stroke-width:0.0954884;stroke-linecap:round;stroke-linejoin:round;stroke-miterlimit:4;stroke-dasharray:none;stroke-opacity:1"
           id="path45880"
           sodipodi:type="arc"
           sodipodi:cx="146.79387"
           sodipodi:cy="2.1731567"
           sodipodi:rx="2.6088758"
           sodipodi:ry="2.6089087"
           sodipodi:start="0.28243582"
           sodipodi:end="1.2809297"
           sodipodi:arc-type="arc"
           sodipodi:open="true"
           d="M 149.29938,2.9002486 A 2.6088758,2.6089087 0 0 1 147.53955,4.673227" />
        <path
           style="fill:none;fill-opacity:1;stroke:#1b2933;stroke-width:0.0954884;stroke-linecap:round;stroke-linejoin:round;stroke-miterlimit:4;stroke-dasharray:none;stroke-opacity:1"
           id="path45882"
           sodipodi:type="arc"
           sodipodi:cx="146.79387"
           sodipodi:cy="2.1731567"
           sodipodi:rx="2.6088758"
           sodipodi:ry="2.6089087"
           sodipodi:start="3.4308306"
           sodipodi:end="4.4192812"
           sodipodi:open="true"
           sodipodi:arc-type="arc"
           d="m 144.29336,1.4290388 a 2.6088758,2.6089087 0 0 1 1.74673,-1.75352226" />
        <path
           style="fill:none;fill-opacity:1;stroke:#1b2933;stroke-width:0.0954884;stroke-linecap:round;stroke-linejoin:round;stroke-miterlimit:4;stroke-dasharray:none;stroke-opacity:1"
           id="path45884"
           sodipodi:type="arc"
           sodipodi:cx="146.79387"
           sodipodi:cy="2.1731567"
           sodipodi:rx="2.6088758"
           sodipodi:ry="2.6089087"
           sodipodi:start="4.9961636"
           sodipodi:end="6.0025369"
           sodipodi:open="true"
           sodipodi:arc-type="arc"
           d="m 147.52431,-0.33140981 a 2.6088758,2.6089087 0 0 1 1.77637,1.78195431" />
      </g>
      <g
         id="g45894"
         transform="translate(0,0.19455014)">
        <path
           style="fill:#940a0a;fill-opacity:1;stroke:#1b2933;stroke-width:0.264584;stroke-miterlimit:4;stroke-dasharray:none;stroke-dashoffset:0;stroke-opacity:1"
           d="m 157.8702,94.887517 c 0.005,-0.101642 0.0123,-0.328447 0.0172,-0.504012 0.1009,-3.563151 0.49369,-7.223818 1.11946,-10.433053 0.1357,-0.695915 0.42386,-2.019086 0.5223,-2.39826 l 0.0164,-0.063 h 0.42388 0.42388 v 5.77704 5.777038 l -0.15919,0.01185 c -1.06262,0.07912 -1.95349,0.786013 -2.3093,1.832395 l -0.0628,0.184804 z"
           id="path45888" />
        <path
           style="fill:#b40000;fill-opacity:1;stroke:#1b2933;stroke-width:0.264584;stroke-miterlimit:4;stroke-dasharray:none;stroke-dashoffset:0;stroke-opacity:1"
           d="m 162.91231,94.887517 c -0.005,-0.101642 -0.0123,-0.328447 -0.0172,-0.504012 -0.10091,-3.563151 -0.4937,-7.223818 -1.11947,-10.433053 -0.13569,-0.695915 -0.42385,-2.019086 -0.52229,-2.39826 l -0.0164,-0.063 h -0.42388 -0.42388 v 5.77704 5.777038 l 0.15919,0.01185 c 1.06262,0.07912 1.95349,0.786013 2.3093,1.832395 l 0.0628,0.184804 z"
           id="path45890" />
        <path
           style="fill:#dd2929;fill-opacity:1;stroke:#1b2933;stroke-width:0.264584;stroke-miterlimit:4;stroke-dasharray:none;stroke-dashoffset:0;stroke-opacity:1"
           d="m 159.95078,98.116573 c -1.00758,-0.197704 -1.79055,-0.946761 -2.05356,-1.964621 -0.0571,-0.220858 -0.065,-0.299246 -0.065,-0.641576 0,-0.342331 0.008,-0.420718 0.065,-0.641577 0.21365,-0.826827 0.78757,-1.499141 1.54641,-1.811518 0.34847,-0.143447 0.50496,-0.172152 0.93911,-0.172253 0.36002,-9.6e-5 0.42958,0.0071 0.64621,0.0669 1.1396,0.314501 1.92119,1.35535 1.92119,2.558443 0,1.203344 -0.78964,2.254021 -1.92119,2.556296 -0.30087,0.08037 -0.80416,0.103668 -1.07817,0.0499 z m -0.13043,-1.499163 v -0.528357 h -0.51348 -0.51348 v 0.09799 c 0,0.15352 0.0881,0.405811 0.18968,0.542987 0.17849,0.241109 0.48077,0.412026 0.73336,0.414657 l 0.10392,0.0011 z m 1.47479,0.477645 c 0.34699,-0.110279 0.60721,-0.415515 0.67475,-0.791486 0.0147,-0.08155 0.0266,-0.163182 0.0266,-0.181398 0,-0.02636 -0.10731,-0.03312 -0.5257,-0.03312 h -0.52571 v 0.528357 0.528357 h 0.0952 c 0.0524,0 0.16703,-0.02282 0.25479,-0.05071 z m -1.47479,-2.691713 v -0.528357 h -0.0973 c -0.14493,0 -0.39348,0.09314 -0.52825,0.197948 -0.23379,0.18182 -0.40142,0.49951 -0.40142,0.760777 v 0.09799 h 0.51348 0.51348 z m 2.17618,0.495238 c 0,-0.19319 -0.1268,-0.531687 -0.25303,-0.675448 -0.17339,-0.197489 -0.47768,-0.348147 -0.70315,-0.348147 h -0.0952 v 0.528357 0.528357 h 0.52571 c 0.41839,0 0.5257,-0.0068 0.5257,-0.03312 z"
           id="path45892" />
      </g>
    </g>
    <circle
       style="fill:none;fill-opacity:1;stroke:#8d8d8d;stroke-width:0.213724;stroke-miterlimit:4;stroke-dasharray:none;stroke-dashoffset:0;stroke-opacity:1"
       id="circle45978"
       cx="179.09389"
       cy="4.1896353"
       r="0.99605936" />
    <g
       id="g46634"
       inkscape:transform-center-y="-2.3794556"
       transform="matrix(0.80777541,0,0,0.80777541,96.508779,-63.304914)"
       inkscape:transform-center-x="-1.0548044e-06">
      <g
         id="g46624"
         transform="matrix(-2.4946606,0,0,2.4928588,526.65817,90.257045)"
         style="stroke-width:1.203">
        <g
           id="g46614"
           transform="matrix(0.27238917,0,0,0.27239203,-44.656911,-417.97819)"
           style="fill:#c2c2c2;fill-opacity:1;stroke-width:0.349859;stroke-miterlimit:4;stroke-dasharray:none;text-rendering:optimizeLegibility;-webkit-font-smoothing:antialiased">
          <path
             id="path46612"
             style="fill:#c2c2c2;fill-opacity:1;stroke:#1b2933;stroke-width:0.349859;stroke-miterlimit:4;stroke-dasharray:none;stroke-opacity:1;text-rendering:optimizeLegibility;-webkit-font-smoothing:antialiased"
             d="m 702.85851,1530.4546 a 11.996453,11.996235 0 0 0 -11.99737,11.9974 11.996453,11.996235 0 0 0 11.99737,11.9954 11.996453,11.996235 0 0 0 11.99538,-11.9954 11.996453,11.996235 0 0 0 -11.99538,-11.9974 z m 0,1.555 a 3.4351067,3.4351067 0 0 1 3.43494,3.435 3.4351067,3.4351067 0 0 1 -3.43494,3.4349 3.4351067,3.4351067 0 0 1 -3.43494,-3.4349 3.4351067,3.4351067 0 0 1 3.43494,-3.435 z m -7.00744,7.0075 a 3.4351067,3.4351067 0 0 1 3.43494,3.4349 3.4351067,3.4351067 0 0 1 -3.43494,3.435 3.4351067,3.4351067 0 0 1 -3.43494,-3.435 3.4351067,3.4351067 0 0 1 3.43494,-3.4349 z m 14.01488,0 a 3.4351067,3.4351067 0 0 1 3.43493,3.4349 3.4351067,3.4351067 0 0 1 -3.43493,3.435 3.4351067,3.4351067 0 0 1 -3.43494,-3.435 3.4351067,3.4351067 0 0 1 3.43494,-3.4349 z m -7.69124,1.0625 h 1.3656 v 1.6906 h 1.68856 v 1.3656 h -1.68856 v 1.6886 h -1.3656 v -1.6886 h -1.68856 v -1.3656 h 1.68856 z m 0.6838,5.9449 a 3.4351067,3.4351067 0 0 1 3.43494,3.435 3.4351067,3.4351067 0 0 1 -3.43494,3.4349 3.4351067,3.4351067 0 0 1 -3.43494,-3.4349 3.4351067,3.4351067 0 0 1 3.43494,-3.435 z" />
        </g>
        <path
           style="fill:none;fill-opacity:1;stroke:#1b2933;stroke-width:0.0954884;stroke-linecap:round;stroke-linejoin:round;stroke-miterlimit:4;stroke-dasharray:none;stroke-opacity:1"
           id="path46616"
           sodipodi:type="arc"
           sodipodi:cx="146.79387"
           sodipodi:cy="2.1731567"
           sodipodi:rx="2.6088758"
           sodipodi:ry="2.6089087"
           sodipodi:start="1.8599364"
           sodipodi:end="2.8569393"
           sodipodi:open="true"
           sodipodi:arc-type="arc"
           d="M 146.05001,4.6737681 A 2.6088758,2.6089087 0 0 1 144.28998,2.9058029" />
        <path
           style="fill:none;fill-opacity:1;stroke:#1b2933;stroke-width:0.0954884;stroke-linecap:round;stroke-linejoin:round;stroke-miterlimit:4;stroke-dasharray:none;stroke-opacity:1"
           id="path46618"
           sodipodi:type="arc"
           sodipodi:cx="146.79387"
           sodipodi:cy="2.1731567"
           sodipodi:rx="2.6088758"
           sodipodi:ry="2.6089087"
           sodipodi:start="0.28243582"
           sodipodi:end="1.2809297"
           sodipodi:arc-type="arc"
           sodipodi:open="true"
           d="M 149.29938,2.9002486 A 2.6088758,2.6089087 0 0 1 147.53955,4.673227" />
        <path
           style="fill:none;fill-opacity:1;stroke:#1b2933;stroke-width:0.0954884;stroke-linecap:round;stroke-linejoin:round;stroke-miterlimit:4;stroke-dasharray:none;stroke-opacity:1"
           id="path46620"
           sodipodi:type="arc"
           sodipodi:cx="146.79387"
           sodipodi:cy="2.1731567"
           sodipodi:rx="2.6088758"
           sodipodi:ry="2.6089087"
           sodipodi:start="3.4308306"
           sodipodi:end="4.4192812"
           sodipodi:open="true"
           sodipodi:arc-type="arc"
           d="m 144.29336,1.4290388 a 2.6088758,2.6089087 0 0 1 1.74673,-1.75352226" />
        <path
           style="fill:none;fill-opacity:1;stroke:#1b2933;stroke-width:0.0954884;stroke-linecap:round;stroke-linejoin:round;stroke-miterlimit:4;stroke-dasharray:none;stroke-opacity:1"
           id="path46622"
           sodipodi:type="arc"
           sodipodi:cx="146.79387"
           sodipodi:cy="2.1731567"
           sodipodi:rx="2.6088758"
           sodipodi:ry="2.6089087"
           sodipodi:start="4.9961636"
           sodipodi:end="6.0025369"
           sodipodi:open="true"
           sodipodi:arc-type="arc"
           d="m 147.52431,-0.33140981 a 2.6088758,2.6089087 0 0 1 1.77637,1.78195431" />
      </g>
      <g
         id="g46632"
         transform="translate(0,0.19455014)">
        <path
           style="fill:#940a0a;fill-opacity:1;stroke:#1b2933;stroke-width:0.264584;stroke-miterlimit:4;stroke-dasharray:none;stroke-dashoffset:0;stroke-opacity:1"
           d="m 157.8702,94.887517 c 0.005,-0.101642 0.0123,-0.328447 0.0172,-0.504012 0.1009,-3.563151 0.49369,-7.223818 1.11946,-10.433053 0.1357,-0.695915 0.42386,-2.019086 0.5223,-2.39826 l 0.0164,-0.063 h 0.42388 0.42388 v 5.77704 5.777038 l -0.15919,0.01185 c -1.06262,0.07912 -1.95349,0.786013 -2.3093,1.832395 l -0.0628,0.184804 z"
           id="path46626" />
        <path
           style="fill:#b40000;fill-opacity:1;stroke:#1b2933;stroke-width:0.264584;stroke-miterlimit:4;stroke-dasharray:none;stroke-dashoffset:0;stroke-opacity:1"
           d="m 162.91231,94.887517 c -0.005,-0.101642 -0.0123,-0.328447 -0.0172,-0.504012 -0.10091,-3.563151 -0.4937,-7.223818 -1.11947,-10.433053 -0.13569,-0.695915 -0.42385,-2.019086 -0.52229,-2.39826 l -0.0164,-0.063 h -0.42388 -0.42388 v 5.77704 5.777038 l 0.15919,0.01185 c 1.06262,0.07912 1.95349,0.786013 2.3093,1.832395 l 0.0628,0.184804 z"
           id="path46628" />
        <path
           style="fill:#dd2929;fill-opacity:1;stroke:#1b2933;stroke-width:0.264584;stroke-miterlimit:4;stroke-dasharray:none;stroke-dashoffset:0;stroke-opacity:1"
           d="m 159.95078,98.116573 c -1.00758,-0.197704 -1.79055,-0.946761 -2.05356,-1.964621 -0.0571,-0.220858 -0.065,-0.299246 -0.065,-0.641576 0,-0.342331 0.008,-0.420718 0.065,-0.641577 0.21365,-0.826827 0.78757,-1.499141 1.54641,-1.811518 0.34847,-0.143447 0.50496,-0.172152 0.93911,-0.172253 0.36002,-9.6e-5 0.42958,0.0071 0.64621,0.0669 1.1396,0.314501 1.92119,1.35535 1.92119,2.558443 0,1.203344 -0.78964,2.254021 -1.92119,2.556296 -0.30087,0.08037 -0.80416,0.103668 -1.07817,0.0499 z m -0.13043,-1.499163 v -0.528357 h -0.51348 -0.51348 v 0.09799 c 0,0.15352 0.0881,0.405811 0.18968,0.542987 0.17849,0.241109 0.48077,0.412026 0.73336,0.414657 l 0.10392,0.0011 z m 1.47479,0.477645 c 0.34699,-0.110279 0.60721,-0.415515 0.67475,-0.791486 0.0147,-0.08155 0.0266,-0.163182 0.0266,-0.181398 0,-0.02636 -0.10731,-0.03312 -0.5257,-0.03312 h -0.52571 v 0.528357 0.528357 h 0.0952 c 0.0524,0 0.16703,-0.02282 0.25479,-0.05071 z m -1.47479,-2.691713 v -0.528357 h -0.0973 c -0.14493,0 -0.39348,0.09314 -0.52825,0.197948 -0.23379,0.18182 -0.40142,0.49951 -0.40142,0.760777 v 0.09799 h 0.51348 0.51348 z m 2.17618,0.495238 c 0,-0.19319 -0.1268,-0.531687 -0.25303,-0.675448 -0.17339,-0.197489 -0.47768,-0.348147 -0.70315,-0.348147 h -0.0952 v 0.528357 0.528357 h 0.52571 c 0.41839,0 0.5257,-0.0068 0.5257,-0.03312 z"
           id="path46630" />
      </g>
    </g>
    <g
       id="g46684"
       inkscape:transform-center-y="2.3794558"
       transform="matrix(-0.80777541,0,0,-0.80777541,214.74293,91.299707)"
       inkscape:transform-center-x="1.5269078e-06">
      <g
         id="g46674"
         transform="matrix(-2.4946606,0,0,2.4928588,526.65817,90.257045)"
         style="stroke-width:1.203">
        <g
           id="g46664"
           transform="matrix(0.27238917,0,0,0.27239203,-44.656911,-417.97819)"
           style="fill:#c2c2c2;fill-opacity:1;stroke-width:0.349859;stroke-miterlimit:4;stroke-dasharray:none;text-rendering:optimizeLegibility;-webkit-font-smoothing:antialiased">
          <path
             id="path46662"
             style="fill:#c2c2c2;fill-opacity:1;stroke:#1b2933;stroke-width:0.349859;stroke-miterlimit:4;stroke-dasharray:none;stroke-opacity:1;text-rendering:optimizeLegibility;-webkit-font-smoothing:antialiased"
             d="m 702.85851,1530.4546 a 11.996453,11.996235 0 0 0 -11.99737,11.9974 11.996453,11.996235 0 0 0 11.99737,11.9954 11.996453,11.996235 0 0 0 11.99538,-11.9954 11.996453,11.996235 0 0 0 -11.99538,-11.9974 z m 0,1.555 a 3.4351067,3.4351067 0 0 1 3.43494,3.435 3.4351067,3.4351067 0 0 1 -3.43494,3.4349 3.4351067,3.4351067 0 0 1 -3.43494,-3.4349 3.4351067,3.4351067 0 0 1 3.43494,-3.435 z m -7.00744,7.0075 a 3.4351067,3.4351067 0 0 1 3.43494,3.4349 3.4351067,3.4351067 0 0 1 -3.43494,3.435 3.4351067,3.4351067 0 0 1 -3.43494,-3.435 3.4351067,3.4351067 0 0 1 3.43494,-3.4349 z m 14.01488,0 a 3.4351067,3.4351067 0 0 1 3.43493,3.4349 3.4351067,3.4351067 0 0 1 -3.43493,3.435 3.4351067,3.4351067 0 0 1 -3.43494,-3.435 3.4351067,3.4351067 0 0 1 3.43494,-3.4349 z m -7.69124,1.0625 h 1.3656 v 1.6906 h 1.68856 v 1.3656 h -1.68856 v 1.6886 h -1.3656 v -1.6886 h -1.68856 v -1.3656 h 1.68856 z m 0.6838,5.9449 a 3.4351067,3.4351067 0 0 1 3.43494,3.435 3.4351067,3.4351067 0 0 1 -3.43494,3.4349 3.4351067,3.4351067 0 0 1 -3.43494,-3.4349 3.4351067,3.4351067 0 0 1 3.43494,-3.435 z" />
        </g>
        <path
           style="fill:none;fill-opacity:1;stroke:#1b2933;stroke-width:0.0954884;stroke-linecap:round;stroke-linejoin:round;stroke-miterlimit:4;stroke-dasharray:none;stroke-opacity:1"
           id="path46666"
           sodipodi:type="arc"
           sodipodi:cx="146.79387"
           sodipodi:cy="2.1731567"
           sodipodi:rx="2.6088758"
           sodipodi:ry="2.6089087"
           sodipodi:start="1.8599364"
           sodipodi:end="2.8569393"
           sodipodi:open="true"
           sodipodi:arc-type="arc"
           d="M 146.05001,4.6737681 A 2.6088758,2.6089087 0 0 1 144.28998,2.9058029" />
        <path
           style="fill:none;fill-opacity:1;stroke:#1b2933;stroke-width:0.0954884;stroke-linecap:round;stroke-linejoin:round;stroke-miterlimit:4;stroke-dasharray:none;stroke-opacity:1"
           id="path46668"
           sodipodi:type="arc"
           sodipodi:cx="146.79387"
           sodipodi:cy="2.1731567"
           sodipodi:rx="2.6088758"
           sodipodi:ry="2.6089087"
           sodipodi:start="0.28243582"
           sodipodi:end="1.2809297"
           sodipodi:arc-type="arc"
           sodipodi:open="true"
           d="M 149.29938,2.9002486 A 2.6088758,2.6089087 0 0 1 147.53955,4.673227" />
        <path
           style="fill:none;fill-opacity:1;stroke:#1b2933;stroke-width:0.0954884;stroke-linecap:round;stroke-linejoin:round;stroke-miterlimit:4;stroke-dasharray:none;stroke-opacity:1"
           id="path46670"
           sodipodi:type="arc"
           sodipodi:cx="146.79387"
           sodipodi:cy="2.1731567"
           sodipodi:rx="2.6088758"
           sodipodi:ry="2.6089087"
           sodipodi:start="3.4308306"
           sodipodi:end="4.4192812"
           sodipodi:open="true"
           sodipodi:arc-type="arc"
           d="m 144.29336,1.4290388 a 2.6088758,2.6089087 0 0 1 1.74673,-1.75352226" />
        <path
           style="fill:none;fill-opacity:1;stroke:#1b2933;stroke-width:0.0954884;stroke-linecap:round;stroke-linejoin:round;stroke-miterlimit:4;stroke-dasharray:none;stroke-opacity:1"
           id="path46672"
           sodipodi:type="arc"
           sodipodi:cx="146.79387"
           sodipodi:cy="2.1731567"
           sodipodi:rx="2.6088758"
           sodipodi:ry="2.6089087"
           sodipodi:start="4.9961636"
           sodipodi:end="6.0025369"
           sodipodi:open="true"
           sodipodi:arc-type="arc"
           d="m 147.52431,-0.33140981 a 2.6088758,2.6089087 0 0 1 1.77637,1.78195431" />
      </g>
      <g
         id="g46682"
         transform="translate(0,0.19455014)">
        <path
           style="fill:#940a0a;fill-opacity:1;stroke:#1b2933;stroke-width:0.264584;stroke-miterlimit:4;stroke-dasharray:none;stroke-dashoffset:0;stroke-opacity:1"
           d="m 157.8702,94.887517 c 0.005,-0.101642 0.0123,-0.328447 0.0172,-0.504012 0.1009,-3.563151 0.49369,-7.223818 1.11946,-10.433053 0.1357,-0.695915 0.42386,-2.019086 0.5223,-2.39826 l 0.0164,-0.063 h 0.42388 0.42388 v 5.77704 5.777038 l -0.15919,0.01185 c -1.06262,0.07912 -1.95349,0.786013 -2.3093,1.832395 l -0.0628,0.184804 z"
           id="path46676" />
        <path
           style="fill:#b40000;fill-opacity:1;stroke:#1b2933;stroke-width:0.264584;stroke-miterlimit:4;stroke-dasharray:none;stroke-dashoffset:0;stroke-opacity:1"
           d="m 162.91231,94.887517 c -0.005,-0.101642 -0.0123,-0.328447 -0.0172,-0.504012 -0.10091,-3.563151 -0.4937,-7.223818 -1.11947,-10.433053 -0.13569,-0.695915 -0.42385,-2.019086 -0.52229,-2.39826 l -0.0164,-0.063 h -0.42388 -0.42388 v 5.77704 5.777038 l 0.15919,0.01185 c 1.06262,0.07912 1.95349,0.786013 2.3093,1.832395 l 0.0628,0.184804 z"
           id="path46678" />
        <path
           style="fill:#dd2929;fill-opacity:1;stroke:#1b2933;stroke-width:0.264584;stroke-miterlimit:4;stroke-dasharray:none;stroke-dashoffset:0;stroke-opacity:1"
           d="m 159.95078,98.116573 c -1.00758,-0.197704 -1.79055,-0.946761 -2.05356,-1.964621 -0.0571,-0.220858 -0.065,-0.299246 -0.065,-0.641576 0,-0.342331 0.008,-0.420718 0.065,-0.641577 0.21365,-0.826827 0.78757,-1.499141 1.54641,-1.811518 0.34847,-0.143447 0.50496,-0.172152 0.93911,-0.172253 0.36002,-9.6e-5 0.42958,0.0071 0.64621,0.0669 1.1396,0.314501 1.92119,1.35535 1.92119,2.558443 0,1.203344 -0.78964,2.254021 -1.92119,2.556296 -0.30087,0.08037 -0.80416,0.103668 -1.07817,0.0499 z m -0.13043,-1.499163 v -0.528357 h -0.51348 -0.51348 v 0.09799 c 0,0.15352 0.0881,0.405811 0.18968,0.542987 0.17849,0.241109 0.48077,0.412026 0.73336,0.414657 l 0.10392,0.0011 z m 1.47479,0.477645 c 0.34699,-0.110279 0.60721,-0.415515 0.67475,-0.791486 0.0147,-0.08155 0.0266,-0.163182 0.0266,-0.181398 0,-0.02636 -0.10731,-0.03312 -0.5257,-0.03312 h -0.52571 v 0.528357 0.528357 h 0.0952 c 0.0524,0 0.16703,-0.02282 0.25479,-0.05071 z m -1.47479,-2.691713 v -0.528357 h -0.0973 c -0.14493,0 -0.39348,0.09314 -0.52825,0.197948 -0.23379,0.18182 -0.40142,0.49951 -0.40142,0.760777 v 0.09799 h 0.51348 0.51348 z m 2.17618,0.495238 c 0,-0.19319 -0.1268,-0.531687 -0.25303,-0.675448 -0.17339,-0.197489 -0.47768,-0.348147 -0.70315,-0.348147 h -0.0952 v 0.528357 0.528357 h 0.52571 c 0.41839,0 0.5257,-0.0068 0.5257,-0.03312 z"
           id="path46680" />
      </g>
    </g>
    <circle
       style="fill:none;fill-opacity:1;stroke:#8d8d8d;stroke-width:0.213724;stroke-miterlimit:4;stroke-dasharray:none;stroke-dashoffset:0;stroke-opacity:1"
       id="circle46686"
       cx="85.136162"
       cy="4.1896353"
       r="0.99605936" />
    <g
       id="g46710"
       inkscape:transform-center-y="-8.8783205e-06"
       transform="matrix(0,-0.80777541,0.80777541,0,31.344368,143.61085)"
       inkscape:transform-center-x="2.3794578">
      <g
         id="g46700"
         transform="matrix(-2.4946606,0,0,2.4928588,526.65817,90.257045)"
         style="stroke-width:1.203">
        <g
           id="g46690"
           transform="matrix(0.27238917,0,0,0.27239203,-44.656911,-417.97819)"
           style="fill:#c2c2c2;fill-opacity:1;stroke-width:0.349859;stroke-miterlimit:4;stroke-dasharray:none;text-rendering:optimizeLegibility;-webkit-font-smoothing:antialiased">
          <path
             id="path46688"
             style="fill:#c2c2c2;fill-opacity:1;stroke:#1b2933;stroke-width:0.349859;stroke-miterlimit:4;stroke-dasharray:none;stroke-opacity:1;text-rendering:optimizeLegibility;-webkit-font-smoothing:antialiased"
             d="m 702.85851,1530.4546 a 11.996453,11.996235 0 0 0 -11.99737,11.9974 11.996453,11.996235 0 0 0 11.99737,11.9954 11.996453,11.996235 0 0 0 11.99538,-11.9954 11.996453,11.996235 0 0 0 -11.99538,-11.9974 z m 0,1.555 a 3.4351067,3.4351067 0 0 1 3.43494,3.435 3.4351067,3.4351067 0 0 1 -3.43494,3.4349 3.4351067,3.4351067 0 0 1 -3.43494,-3.4349 3.4351067,3.4351067 0 0 1 3.43494,-3.435 z m -7.00744,7.0075 a 3.4351067,3.4351067 0 0 1 3.43494,3.4349 3.4351067,3.4351067 0 0 1 -3.43494,3.435 3.4351067,3.4351067 0 0 1 -3.43494,-3.435 3.4351067,3.4351067 0 0 1 3.43494,-3.4349 z m 14.01488,0 a 3.4351067,3.4351067 0 0 1 3.43493,3.4349 3.4351067,3.4351067 0 0 1 -3.43493,3.435 3.4351067,3.4351067 0 0 1 -3.43494,-3.435 3.4351067,3.4351067 0 0 1 3.43494,-3.4349 z m -7.69124,1.0625 h 1.3656 v 1.6906 h 1.68856 v 1.3656 h -1.68856 v 1.6886 h -1.3656 v -1.6886 h -1.68856 v -1.3656 h 1.68856 z m 0.6838,5.9449 a 3.4351067,3.4351067 0 0 1 3.43494,3.435 3.4351067,3.4351067 0 0 1 -3.43494,3.4349 3.4351067,3.4351067 0 0 1 -3.43494,-3.4349 3.4351067,3.4351067 0 0 1 3.43494,-3.435 z" />
        </g>
        <path
           style="fill:none;fill-opacity:1;stroke:#1b2933;stroke-width:0.0954884;stroke-linecap:round;stroke-linejoin:round;stroke-miterlimit:4;stroke-dasharray:none;stroke-opacity:1"
           id="path46692"
           sodipodi:type="arc"
           sodipodi:cx="146.79387"
           sodipodi:cy="2.1731567"
           sodipodi:rx="2.6088758"
           sodipodi:ry="2.6089087"
           sodipodi:start="1.8599364"
           sodipodi:end="2.8569393"
           sodipodi:open="true"
           sodipodi:arc-type="arc"
           d="M 146.05001,4.6737681 A 2.6088758,2.6089087 0 0 1 144.28998,2.9058029" />
        <path
           style="fill:none;fill-opacity:1;stroke:#1b2933;stroke-width:0.0954884;stroke-linecap:round;stroke-linejoin:round;stroke-miterlimit:4;stroke-dasharray:none;stroke-opacity:1"
           id="path46694"
           sodipodi:type="arc"
           sodipodi:cx="146.79387"
           sodipodi:cy="2.1731567"
           sodipodi:rx="2.6088758"
           sodipodi:ry="2.6089087"
           sodipodi:start="0.28243582"
           sodipodi:end="1.2809297"
           sodipodi:arc-type="arc"
           sodipodi:open="true"
           d="M 149.29938,2.9002486 A 2.6088758,2.6089087 0 0 1 147.53955,4.673227" />
        <path
           style="fill:none;fill-opacity:1;stroke:#1b2933;stroke-width:0.0954884;stroke-linecap:round;stroke-linejoin:round;stroke-miterlimit:4;stroke-dasharray:none;stroke-opacity:1"
           id="path46696"
           sodipodi:type="arc"
           sodipodi:cx="146.79387"
           sodipodi:cy="2.1731567"
           sodipodi:rx="2.6088758"
           sodipodi:ry="2.6089087"
           sodipodi:start="3.4308306"
           sodipodi:end="4.4192812"
           sodipodi:open="true"
           sodipodi:arc-type="arc"
           d="m 144.29336,1.4290388 a 2.6088758,2.6089087 0 0 1 1.74673,-1.75352226" />
        <path
           style="fill:none;fill-opacity:1;stroke:#1b2933;stroke-width:0.0954884;stroke-linecap:round;stroke-linejoin:round;stroke-miterlimit:4;stroke-dasharray:none;stroke-opacity:1"
           id="path46698"
           sodipodi:type="arc"
           sodipodi:cx="146.79387"
           sodipodi:cy="2.1731567"
           sodipodi:rx="2.6088758"
           sodipodi:ry="2.6089087"
           sodipodi:start="4.9961636"
           sodipodi:end="6.0025369"
           sodipodi:open="true"
           sodipodi:arc-type="arc"
           d="m 147.52431,-0.33140981 a 2.6088758,2.6089087 0 0 1 1.77637,1.78195431" />
      </g>
      <g
         id="g46708"
         transform="translate(0,0.19455014)">
        <path
           style="fill:#940a0a;fill-opacity:1;stroke:#1b2933;stroke-width:0.264584;stroke-miterlimit:4;stroke-dasharray:none;stroke-dashoffset:0;stroke-opacity:1"
           d="m 157.8702,94.887517 c 0.005,-0.101642 0.0123,-0.328447 0.0172,-0.504012 0.1009,-3.563151 0.49369,-7.223818 1.11946,-10.433053 0.1357,-0.695915 0.42386,-2.019086 0.5223,-2.39826 l 0.0164,-0.063 h 0.42388 0.42388 v 5.77704 5.777038 l -0.15919,0.01185 c -1.06262,0.07912 -1.95349,0.786013 -2.3093,1.832395 l -0.0628,0.184804 z"
           id="path46702" />
        <path
           style="fill:#b40000;fill-opacity:1;stroke:#1b2933;stroke-width:0.264584;stroke-miterlimit:4;stroke-dasharray:none;stroke-dashoffset:0;stroke-opacity:1"
           d="m 162.91231,94.887517 c -0.005,-0.101642 -0.0123,-0.328447 -0.0172,-0.504012 -0.10091,-3.563151 -0.4937,-7.223818 -1.11947,-10.433053 -0.13569,-0.695915 -0.42385,-2.019086 -0.52229,-2.39826 l -0.0164,-0.063 h -0.42388 -0.42388 v 5.77704 5.777038 l 0.15919,0.01185 c 1.06262,0.07912 1.95349,0.786013 2.3093,1.832395 l 0.0628,0.184804 z"
           id="path46704" />
        <path
           style="fill:#dd2929;fill-opacity:1;stroke:#1b2933;stroke-width:0.264584;stroke-miterlimit:4;stroke-dasharray:none;stroke-dashoffset:0;stroke-opacity:1"
           d="m 159.95078,98.116573 c -1.00758,-0.197704 -1.79055,-0.946761 -2.05356,-1.964621 -0.0571,-0.220858 -0.065,-0.299246 -0.065,-0.641576 0,-0.342331 0.008,-0.420718 0.065,-0.641577 0.21365,-0.826827 0.78757,-1.499141 1.54641,-1.811518 0.34847,-0.143447 0.50496,-0.172152 0.93911,-0.172253 0.36002,-9.6e-5 0.42958,0.0071 0.64621,0.0669 1.1396,0.314501 1.92119,1.35535 1.92119,2.558443 0,1.203344 -0.78964,2.254021 -1.92119,2.556296 -0.30087,0.08037 -0.80416,0.103668 -1.07817,0.0499 z m -0.13043,-1.499163 v -0.528357 h -0.51348 -0.51348 v 0.09799 c 0,0.15352 0.0881,0.405811 0.18968,0.542987 0.17849,0.241109 0.48077,0.412026 0.73336,0.414657 l 0.10392,0.0011 z m 1.47479,0.477645 c 0.34699,-0.110279 0.60721,-0.415515 0.67475,-0.791486 0.0147,-0.08155 0.0266,-0.163182 0.0266,-0.181398 0,-0.02636 -0.10731,-0.03312 -0.5257,-0.03312 h -0.52571 v 0.528357 0.528357 h 0.0952 c 0.0524,0 0.16703,-0.02282 0.25479,-0.05071 z m -1.47479,-2.691713 v -0.528357 h -0.0973 c -0.14493,0 -0.39348,0.09314 -0.52825,0.197948 -0.23379,0.18182 -0.40142,0.49951 -0.40142,0.760777 v 0.09799 h 0.51348 0.51348 z m 2.17618,0.495238 c 0,-0.19319 -0.1268,-0.531687 -0.25303,-0.675448 -0.17339,-0.197489 -0.47768,-0.348147 -0.70315,-0.348147 h -0.0952 v 0.528357 0.528357 h 0.52571 c 0.41839,0 0.5257,-0.0068 0.5257,-0.03312 z"
           id="path46706" />
      </g>
    </g>
    <circle
       style="fill:none;fill-opacity:1;stroke:#8d8d8d;stroke-width:0.213724;stroke-miterlimit:4;stroke-dasharray:none;stroke-dashoffset:0;stroke-opacity:1"
       id="circle46712"
       cx="108.65631"
       cy="4.1896353"
       r="0.99605936" />
    <g
       id="g46736"
       inkscape:transform-center-y="-8.8783205e-06"
       transform="matrix(0,-0.80777541,0.80777541,0,125.31383,143.61085)"
       inkscape:transform-center-x="2.3794578">
      <g
         id="g46726"
         transform="matrix(-2.4946606,0,0,2.4928588,526.65817,90.257045)"
         style="stroke-width:1.203">
        <g
           id="g46716"
           transform="matrix(0.27238917,0,0,0.27239203,-44.656911,-417.97819)"
           style="fill:#c2c2c2;fill-opacity:1;stroke-width:0.349859;stroke-miterlimit:4;stroke-dasharray:none;text-rendering:optimizeLegibility;-webkit-font-smoothing:antialiased">
          <path
             id="path46714"
             style="fill:#c2c2c2;fill-opacity:1;stroke:#1b2933;stroke-width:0.349859;stroke-miterlimit:4;stroke-dasharray:none;stroke-opacity:1;text-rendering:optimizeLegibility;-webkit-font-smoothing:antialiased"
             d="m 702.85851,1530.4546 a 11.996453,11.996235 0 0 0 -11.99737,11.9974 11.996453,11.996235 0 0 0 11.99737,11.9954 11.996453,11.996235 0 0 0 11.99538,-11.9954 11.996453,11.996235 0 0 0 -11.99538,-11.9974 z m 0,1.555 a 3.4351067,3.4351067 0 0 1 3.43494,3.435 3.4351067,3.4351067 0 0 1 -3.43494,3.4349 3.4351067,3.4351067 0 0 1 -3.43494,-3.4349 3.4351067,3.4351067 0 0 1 3.43494,-3.435 z m -7.00744,7.0075 a 3.4351067,3.4351067 0 0 1 3.43494,3.4349 3.4351067,3.4351067 0 0 1 -3.43494,3.435 3.4351067,3.4351067 0 0 1 -3.43494,-3.435 3.4351067,3.4351067 0 0 1 3.43494,-3.4349 z m 14.01488,0 a 3.4351067,3.4351067 0 0 1 3.43493,3.4349 3.4351067,3.4351067 0 0 1 -3.43493,3.435 3.4351067,3.4351067 0 0 1 -3.43494,-3.435 3.4351067,3.4351067 0 0 1 3.43494,-3.4349 z m -7.69124,1.0625 h 1.3656 v 1.6906 h 1.68856 v 1.3656 h -1.68856 v 1.6886 h -1.3656 v -1.6886 h -1.68856 v -1.3656 h 1.68856 z m 0.6838,5.9449 a 3.4351067,3.4351067 0 0 1 3.43494,3.435 3.4351067,3.4351067 0 0 1 -3.43494,3.4349 3.4351067,3.4351067 0 0 1 -3.43494,-3.4349 3.4351067,3.4351067 0 0 1 3.43494,-3.435 z" />
        </g>
        <path
           style="fill:none;fill-opacity:1;stroke:#1b2933;stroke-width:0.0954884;stroke-linecap:round;stroke-linejoin:round;stroke-miterlimit:4;stroke-dasharray:none;stroke-opacity:1"
           id="path46718"
           sodipodi:type="arc"
           sodipodi:cx="146.79387"
           sodipodi:cy="2.1731567"
           sodipodi:rx="2.6088758"
           sodipodi:ry="2.6089087"
           sodipodi:start="1.8599364"
           sodipodi:end="2.8569393"
           sodipodi:open="true"
           sodipodi:arc-type="arc"
           d="M 146.05001,4.6737681 A 2.6088758,2.6089087 0 0 1 144.28998,2.9058029" />
        <path
           style="fill:none;fill-opacity:1;stroke:#1b2933;stroke-width:0.0954884;stroke-linecap:round;stroke-linejoin:round;stroke-miterlimit:4;stroke-dasharray:none;stroke-opacity:1"
           id="path46720"
           sodipodi:type="arc"
           sodipodi:cx="146.79387"
           sodipodi:cy="2.1731567"
           sodipodi:rx="2.6088758"
           sodipodi:ry="2.6089087"
           sodipodi:start="0.28243582"
           sodipodi:end="1.2809297"
           sodipodi:arc-type="arc"
           sodipodi:open="true"
           d="M 149.29938,2.9002486 A 2.6088758,2.6089087 0 0 1 147.53955,4.673227" />
        <path
           style="fill:none;fill-opacity:1;stroke:#1b2933;stroke-width:0.0954884;stroke-linecap:round;stroke-linejoin:round;stroke-miterlimit:4;stroke-dasharray:none;stroke-opacity:1"
           id="path46722"
           sodipodi:type="arc"
           sodipodi:cx="146.79387"
           sodipodi:cy="2.1731567"
           sodipodi:rx="2.6088758"
           sodipodi:ry="2.6089087"
           sodipodi:start="3.4308306"
           sodipodi:end="4.4192812"
           sodipodi:open="true"
           sodipodi:arc-type="arc"
           d="m 144.29336,1.4290388 a 2.6088758,2.6089087 0 0 1 1.74673,-1.75352226" />
        <path
           style="fill:none;fill-opacity:1;stroke:#1b2933;stroke-width:0.0954884;stroke-linecap:round;stroke-linejoin:round;stroke-miterlimit:4;stroke-dasharray:none;stroke-opacity:1"
           id="path46724"
           sodipodi:type="arc"
           sodipodi:cx="146.79387"
           sodipodi:cy="2.1731567"
           sodipodi:rx="2.6088758"
           sodipodi:ry="2.6089087"
           sodipodi:start="4.9961636"
           sodipodi:end="6.0025369"
           sodipodi:open="true"
           sodipodi:arc-type="arc"
           d="m 147.52431,-0.33140981 a 2.6088758,2.6089087 0 0 1 1.77637,1.78195431" />
      </g>
      <g
         id="g46734"
         transform="translate(0,0.19455014)">
        <path
           style="fill:#940a0a;fill-opacity:1;stroke:#1b2933;stroke-width:0.264584;stroke-miterlimit:4;stroke-dasharray:none;stroke-dashoffset:0;stroke-opacity:1"
           d="m 157.8702,94.887517 c 0.005,-0.101642 0.0123,-0.328447 0.0172,-0.504012 0.1009,-3.563151 0.49369,-7.223818 1.11946,-10.433053 0.1357,-0.695915 0.42386,-2.019086 0.5223,-2.39826 l 0.0164,-0.063 h 0.42388 0.42388 v 5.77704 5.777038 l -0.15919,0.01185 c -1.06262,0.07912 -1.95349,0.786013 -2.3093,1.832395 l -0.0628,0.184804 z"
           id="path46728" />
        <path
           style="fill:#b40000;fill-opacity:1;stroke:#1b2933;stroke-width:0.264584;stroke-miterlimit:4;stroke-dasharray:none;stroke-dashoffset:0;stroke-opacity:1"
           d="m 162.91231,94.887517 c -0.005,-0.101642 -0.0123,-0.328447 -0.0172,-0.504012 -0.10091,-3.563151 -0.4937,-7.223818 -1.11947,-10.433053 -0.13569,-0.695915 -0.42385,-2.019086 -0.52229,-2.39826 l -0.0164,-0.063 h -0.42388 -0.42388 v 5.77704 5.777038 l 0.15919,0.01185 c 1.06262,0.07912 1.95349,0.786013 2.3093,1.832395 l 0.0628,0.184804 z"
           id="path46730" />
        <path
           style="fill:#dd2929;fill-opacity:1;stroke:#1b2933;stroke-width:0.264584;stroke-miterlimit:4;stroke-dasharray:none;stroke-dashoffset:0;stroke-opacity:1"
           d="m 159.95078,98.116573 c -1.00758,-0.197704 -1.79055,-0.946761 -2.05356,-1.964621 -0.0571,-0.220858 -0.065,-0.299246 -0.065,-0.641576 0,-0.342331 0.008,-0.420718 0.065,-0.641577 0.21365,-0.826827 0.78757,-1.499141 1.54641,-1.811518 0.34847,-0.143447 0.50496,-0.172152 0.93911,-0.172253 0.36002,-9.6e-5 0.42958,0.0071 0.64621,0.0669 1.1396,0.314501 1.92119,1.35535 1.92119,2.558443 0,1.203344 -0.78964,2.254021 -1.92119,2.556296 -0.30087,0.08037 -0.80416,0.103668 -1.07817,0.0499 z m -0.13043,-1.499163 v -0.528357 h -0.51348 -0.51348 v 0.09799 c 0,0.15352 0.0881,0.405811 0.18968,0.542987 0.17849,0.241109 0.48077,0.412026 0.73336,0.414657 l 0.10392,0.0011 z m 1.47479,0.477645 c 0.34699,-0.110279 0.60721,-0.415515 0.67475,-0.791486 0.0147,-0.08155 0.0266,-0.163182 0.0266,-0.181398 0,-0.02636 -0.10731,-0.03312 -0.5257,-0.03312 h -0.52571 v 0.528357 0.528357 h 0.0952 c 0.0524,0 0.16703,-0.02282 0.25479,-0.05071 z m -1.47479,-2.691713 v -0.528357 h -0.0973 c -0.14493,0 -0.39348,0.09314 -0.52825,0.197948 -0.23379,0.18182 -0.40142,0.49951 -0.40142,0.760777 v 0.09799 h 0.51348 0.51348 z m 2.17618,0.495238 c 0,-0.19319 -0.1268,-0.531687 -0.25303,-0.675448 -0.17339,-0.197489 -0.47768,-0.348147 -0.70315,-0.348147 h -0.0952 v 0.528357 0.528357 h 0.52571 c 0.41839,0 0.5257,-0.0068 0.5257,-0.03312 z"
           id="path46732" />
      </g>
    </g>
    <circle
       style="fill:none;fill-opacity:1;stroke:#8d8d8d;stroke-width:0.213724;stroke-miterlimit:4;stroke-dasharray:none;stroke-dashoffset:0;stroke-opacity:1"
       id="circle46738"
       cx="202.58392"
       cy="4.1896353"
       r="0.99605936" />
    <g
       id="g46788"
       inkscape:transform-center-y="-2.3794556"
       transform="matrix(0.80777541,0,0,0.80777541,-91.215888,-63.304914)"
       inkscape:transform-center-x="-1.0548044e-06">
      <g
         id="g46778"
         transform="matrix(-2.4946606,0,0,2.4928588,526.65817,90.257045)"
         style="stroke-width:1.203">
        <g
           id="g46768"
           transform="matrix(0.27238917,0,0,0.27239203,-44.656911,-417.97819)"
           style="fill:#c2c2c2;fill-opacity:1;stroke-width:0.349859;stroke-miterlimit:4;stroke-dasharray:none;text-rendering:optimizeLegibility;-webkit-font-smoothing:antialiased">
          <path
             id="path46766"
             style="fill:#c2c2c2;fill-opacity:1;stroke:#1b2933;stroke-width:0.349859;stroke-miterlimit:4;stroke-dasharray:none;stroke-opacity:1;text-rendering:optimizeLegibility;-webkit-font-smoothing:antialiased"
             d="m 702.85851,1530.4546 a 11.996453,11.996235 0 0 0 -11.99737,11.9974 11.996453,11.996235 0 0 0 11.99737,11.9954 11.996453,11.996235 0 0 0 11.99538,-11.9954 11.996453,11.996235 0 0 0 -11.99538,-11.9974 z m 0,1.555 a 3.4351067,3.4351067 0 0 1 3.43494,3.435 3.4351067,3.4351067 0 0 1 -3.43494,3.4349 3.4351067,3.4351067 0 0 1 -3.43494,-3.4349 3.4351067,3.4351067 0 0 1 3.43494,-3.435 z m -7.00744,7.0075 a 3.4351067,3.4351067 0 0 1 3.43494,3.4349 3.4351067,3.4351067 0 0 1 -3.43494,3.435 3.4351067,3.4351067 0 0 1 -3.43494,-3.435 3.4351067,3.4351067 0 0 1 3.43494,-3.4349 z m 14.01488,0 a 3.4351067,3.4351067 0 0 1 3.43493,3.4349 3.4351067,3.4351067 0 0 1 -3.43493,3.435 3.4351067,3.4351067 0 0 1 -3.43494,-3.435 3.4351067,3.4351067 0 0 1 3.43494,-3.4349 z m -7.69124,1.0625 h 1.3656 v 1.6906 h 1.68856 v 1.3656 h -1.68856 v 1.6886 h -1.3656 v -1.6886 h -1.68856 v -1.3656 h 1.68856 z m 0.6838,5.9449 a 3.4351067,3.4351067 0 0 1 3.43494,3.435 3.4351067,3.4351067 0 0 1 -3.43494,3.4349 3.4351067,3.4351067 0 0 1 -3.43494,-3.4349 3.4351067,3.4351067 0 0 1 3.43494,-3.435 z" />
        </g>
        <path
           style="fill:none;fill-opacity:1;stroke:#1b2933;stroke-width:0.0954884;stroke-linecap:round;stroke-linejoin:round;stroke-miterlimit:4;stroke-dasharray:none;stroke-opacity:1"
           id="path46770"
           sodipodi:type="arc"
           sodipodi:cx="146.79387"
           sodipodi:cy="2.1731567"
           sodipodi:rx="2.6088758"
           sodipodi:ry="2.6089087"
           sodipodi:start="1.8599364"
           sodipodi:end="2.8569393"
           sodipodi:open="true"
           sodipodi:arc-type="arc"
           d="M 146.05001,4.6737681 A 2.6088758,2.6089087 0 0 1 144.28998,2.9058029" />
        <path
           style="fill:none;fill-opacity:1;stroke:#1b2933;stroke-width:0.0954884;stroke-linecap:round;stroke-linejoin:round;stroke-miterlimit:4;stroke-dasharray:none;stroke-opacity:1"
           id="path46772"
           sodipodi:type="arc"
           sodipodi:cx="146.79387"
           sodipodi:cy="2.1731567"
           sodipodi:rx="2.6088758"
           sodipodi:ry="2.6089087"
           sodipodi:start="0.28243582"
           sodipodi:end="1.2809297"
           sodipodi:arc-type="arc"
           sodipodi:open="true"
           d="M 149.29938,2.9002486 A 2.6088758,2.6089087 0 0 1 147.53955,4.673227" />
        <path
           style="fill:none;fill-opacity:1;stroke:#1b2933;stroke-width:0.0954884;stroke-linecap:round;stroke-linejoin:round;stroke-miterlimit:4;stroke-dasharray:none;stroke-opacity:1"
           id="path46774"
           sodipodi:type="arc"
           sodipodi:cx="146.79387"
           sodipodi:cy="2.1731567"
           sodipodi:rx="2.6088758"
           sodipodi:ry="2.6089087"
           sodipodi:start="3.4308306"
           sodipodi:end="4.4192812"
           sodipodi:open="true"
           sodipodi:arc-type="arc"
           d="m 144.29336,1.4290388 a 2.6088758,2.6089087 0 0 1 1.74673,-1.75352226" />
        <path
           style="fill:none;fill-opacity:1;stroke:#1b2933;stroke-width:0.0954884;stroke-linecap:round;stroke-linejoin:round;stroke-miterlimit:4;stroke-dasharray:none;stroke-opacity:1"
           id="path46776"
           sodipodi:type="arc"
           sodipodi:cx="146.79387"
           sodipodi:cy="2.1731567"
           sodipodi:rx="2.6088758"
           sodipodi:ry="2.6089087"
           sodipodi:start="4.9961636"
           sodipodi:end="6.0025369"
           sodipodi:open="true"
           sodipodi:arc-type="arc"
           d="m 147.52431,-0.33140981 a 2.6088758,2.6089087 0 0 1 1.77637,1.78195431" />
      </g>
      <g
         id="g46786"
         transform="translate(0,0.19455014)">
        <path
           style="fill:#940a0a;fill-opacity:1;stroke:#1b2933;stroke-width:0.264584;stroke-miterlimit:4;stroke-dasharray:none;stroke-dashoffset:0;stroke-opacity:1"
           d="m 157.8702,94.887517 c 0.005,-0.101642 0.0123,-0.328447 0.0172,-0.504012 0.1009,-3.563151 0.49369,-7.223818 1.11946,-10.433053 0.1357,-0.695915 0.42386,-2.019086 0.5223,-2.39826 l 0.0164,-0.063 h 0.42388 0.42388 v 5.77704 5.777038 l -0.15919,0.01185 c -1.06262,0.07912 -1.95349,0.786013 -2.3093,1.832395 l -0.0628,0.184804 z"
           id="path46780" />
        <path
           style="fill:#b40000;fill-opacity:1;stroke:#1b2933;stroke-width:0.264584;stroke-miterlimit:4;stroke-dasharray:none;stroke-dashoffset:0;stroke-opacity:1"
           d="m 162.91231,94.887517 c -0.005,-0.101642 -0.0123,-0.328447 -0.0172,-0.504012 -0.10091,-3.563151 -0.4937,-7.223818 -1.11947,-10.433053 -0.13569,-0.695915 -0.42385,-2.019086 -0.52229,-2.39826 l -0.0164,-0.063 h -0.42388 -0.42388 v 5.77704 5.777038 l 0.15919,0.01185 c 1.06262,0.07912 1.95349,0.786013 2.3093,1.832395 l 0.0628,0.184804 z"
           id="path46782" />
        <path
           style="fill:#dd2929;fill-opacity:1;stroke:#1b2933;stroke-width:0.264584;stroke-miterlimit:4;stroke-dasharray:none;stroke-dashoffset:0;stroke-opacity:1"
           d="m 159.95078,98.116573 c -1.00758,-0.197704 -1.79055,-0.946761 -2.05356,-1.964621 -0.0571,-0.220858 -0.065,-0.299246 -0.065,-0.641576 0,-0.342331 0.008,-0.420718 0.065,-0.641577 0.21365,-0.826827 0.78757,-1.499141 1.54641,-1.811518 0.34847,-0.143447 0.50496,-0.172152 0.93911,-0.172253 0.36002,-9.6e-5 0.42958,0.0071 0.64621,0.0669 1.1396,0.314501 1.92119,1.35535 1.92119,2.558443 0,1.203344 -0.78964,2.254021 -1.92119,2.556296 -0.30087,0.08037 -0.80416,0.103668 -1.07817,0.0499 z m -0.13043,-1.499163 v -0.528357 h -0.51348 -0.51348 v 0.09799 c 0,0.15352 0.0881,0.405811 0.18968,0.542987 0.17849,0.241109 0.48077,0.412026 0.73336,0.414657 l 0.10392,0.0011 z m 1.47479,0.477645 c 0.34699,-0.110279 0.60721,-0.415515 0.67475,-0.791486 0.0147,-0.08155 0.0266,-0.163182 0.0266,-0.181398 0,-0.02636 -0.10731,-0.03312 -0.5257,-0.03312 h -0.52571 v 0.528357 0.528357 h 0.0952 c 0.0524,0 0.16703,-0.02282 0.25479,-0.05071 z m -1.47479,-2.691713 v -0.528357 h -0.0973 c -0.14493,0 -0.39348,0.09314 -0.52825,0.197948 -0.23379,0.18182 -0.40142,0.49951 -0.40142,0.760777 v 0.09799 h 0.51348 0.51348 z m 2.17618,0.495238 c 0,-0.19319 -0.1268,-0.531687 -0.25303,-0.675448 -0.17339,-0.197489 -0.47768,-0.348147 -0.70315,-0.348147 h -0.0952 v 0.528357 0.528357 h 0.52571 c 0.41839,0 0.5257,-0.0068 0.5257,-0.03312 z"
           id="path46784" />
      </g>
    </g>
    <g
       id="g46812"
       transform="matrix(0,0.80777541,-0.80777541,0,139.06118,-115.61607)"
       inkscape:transform-center-x="-2.3794488"
       inkscape:transform-center-y="-4.1943043e-06">
      <g
         id="g46802"
         transform="matrix(-2.4946606,0,0,2.4928588,526.65817,90.257045)"
         style="stroke-width:1.203">
        <g
           id="g46792"
           transform="matrix(0.27238917,0,0,0.27239203,-44.656911,-417.97819)"
           style="fill:#c2c2c2;fill-opacity:1;stroke-width:0.349859;stroke-miterlimit:4;stroke-dasharray:none;text-rendering:optimizeLegibility;-webkit-font-smoothing:antialiased">
          <path
             id="path46790"
             style="fill:#c2c2c2;fill-opacity:1;stroke:#1b2933;stroke-width:0.349859;stroke-miterlimit:4;stroke-dasharray:none;stroke-opacity:1;text-rendering:optimizeLegibility;-webkit-font-smoothing:antialiased"
             d="m 702.85851,1530.4546 a 11.996453,11.996235 0 0 0 -11.99737,11.9974 11.996453,11.996235 0 0 0 11.99737,11.9954 11.996453,11.996235 0 0 0 11.99538,-11.9954 11.996453,11.996235 0 0 0 -11.99538,-11.9974 z m 0,1.555 a 3.4351067,3.4351067 0 0 1 3.43494,3.435 3.4351067,3.4351067 0 0 1 -3.43494,3.4349 3.4351067,3.4351067 0 0 1 -3.43494,-3.4349 3.4351067,3.4351067 0 0 1 3.43494,-3.435 z m -7.00744,7.0075 a 3.4351067,3.4351067 0 0 1 3.43494,3.4349 3.4351067,3.4351067 0 0 1 -3.43494,3.435 3.4351067,3.4351067 0 0 1 -3.43494,-3.435 3.4351067,3.4351067 0 0 1 3.43494,-3.4349 z m 14.01488,0 a 3.4351067,3.4351067 0 0 1 3.43493,3.4349 3.4351067,3.4351067 0 0 1 -3.43493,3.435 3.4351067,3.4351067 0 0 1 -3.43494,-3.435 3.4351067,3.4351067 0 0 1 3.43494,-3.4349 z m -7.69124,1.0625 h 1.3656 v 1.6906 h 1.68856 v 1.3656 h -1.68856 v 1.6886 h -1.3656 v -1.6886 h -1.68856 v -1.3656 h 1.68856 z m 0.6838,5.9449 a 3.4351067,3.4351067 0 0 1 3.43494,3.435 3.4351067,3.4351067 0 0 1 -3.43494,3.4349 3.4351067,3.4351067 0 0 1 -3.43494,-3.4349 3.4351067,3.4351067 0 0 1 3.43494,-3.435 z" />
        </g>
        <path
           style="fill:none;fill-opacity:1;stroke:#1b2933;stroke-width:0.0954884;stroke-linecap:round;stroke-linejoin:round;stroke-miterlimit:4;stroke-dasharray:none;stroke-opacity:1"
           id="path46794"
           sodipodi:type="arc"
           sodipodi:cx="146.79387"
           sodipodi:cy="2.1731567"
           sodipodi:rx="2.6088758"
           sodipodi:ry="2.6089087"
           sodipodi:start="1.8599364"
           sodipodi:end="2.8569393"
           sodipodi:open="true"
           sodipodi:arc-type="arc"
           d="M 146.05001,4.6737681 A 2.6088758,2.6089087 0 0 1 144.28998,2.9058029" />
        <path
           style="fill:none;fill-opacity:1;stroke:#1b2933;stroke-width:0.0954884;stroke-linecap:round;stroke-linejoin:round;stroke-miterlimit:4;stroke-dasharray:none;stroke-opacity:1"
           id="path46796"
           sodipodi:type="arc"
           sodipodi:cx="146.79387"
           sodipodi:cy="2.1731567"
           sodipodi:rx="2.6088758"
           sodipodi:ry="2.6089087"
           sodipodi:start="0.28243582"
           sodipodi:end="1.2809297"
           sodipodi:arc-type="arc"
           sodipodi:open="true"
           d="M 149.29938,2.9002486 A 2.6088758,2.6089087 0 0 1 147.53955,4.673227" />
        <path
           style="fill:none;fill-opacity:1;stroke:#1b2933;stroke-width:0.0954884;stroke-linecap:round;stroke-linejoin:round;stroke-miterlimit:4;stroke-dasharray:none;stroke-opacity:1"
           id="path46798"
           sodipodi:type="arc"
           sodipodi:cx="146.79387"
           sodipodi:cy="2.1731567"
           sodipodi:rx="2.6088758"
           sodipodi:ry="2.6089087"
           sodipodi:start="3.4308306"
           sodipodi:end="4.4192812"
           sodipodi:open="true"
           sodipodi:arc-type="arc"
           d="m 144.29336,1.4290388 a 2.6088758,2.6089087 0 0 1 1.74673,-1.75352226" />
        <path
           style="fill:none;fill-opacity:1;stroke:#1b2933;stroke-width:0.0954884;stroke-linecap:round;stroke-linejoin:round;stroke-miterlimit:4;stroke-dasharray:none;stroke-opacity:1"
           id="path46800"
           sodipodi:type="arc"
           sodipodi:cx="146.79387"
           sodipodi:cy="2.1731567"
           sodipodi:rx="2.6088758"
           sodipodi:ry="2.6089087"
           sodipodi:start="4.9961636"
           sodipodi:end="6.0025369"
           sodipodi:open="true"
           sodipodi:arc-type="arc"
           d="m 147.52431,-0.33140981 a 2.6088758,2.6089087 0 0 1 1.77637,1.78195431" />
      </g>
      <g
         id="g46810"
         transform="translate(0,0.19455014)">
        <path
           style="fill:#940a0a;fill-opacity:1;stroke:#1b2933;stroke-width:0.264584;stroke-miterlimit:4;stroke-dasharray:none;stroke-dashoffset:0;stroke-opacity:1"
           d="m 157.8702,94.887517 c 0.005,-0.101642 0.0123,-0.328447 0.0172,-0.504012 0.1009,-3.563151 0.49369,-7.223818 1.11946,-10.433053 0.1357,-0.695915 0.42386,-2.019086 0.5223,-2.39826 l 0.0164,-0.063 h 0.42388 0.42388 v 5.77704 5.777038 l -0.15919,0.01185 c -1.06262,0.07912 -1.95349,0.786013 -2.3093,1.832395 l -0.0628,0.184804 z"
           id="path46804" />
        <path
           style="fill:#b40000;fill-opacity:1;stroke:#1b2933;stroke-width:0.264584;stroke-miterlimit:4;stroke-dasharray:none;stroke-dashoffset:0;stroke-opacity:1"
           d="m 162.91231,94.887517 c -0.005,-0.101642 -0.0123,-0.328447 -0.0172,-0.504012 -0.10091,-3.563151 -0.4937,-7.223818 -1.11947,-10.433053 -0.13569,-0.695915 -0.42385,-2.019086 -0.52229,-2.39826 l -0.0164,-0.063 h -0.42388 -0.42388 v 5.77704 5.777038 l 0.15919,0.01185 c 1.06262,0.07912 1.95349,0.786013 2.3093,1.832395 l 0.0628,0.184804 z"
           id="path46806" />
        <path
           style="fill:#dd2929;fill-opacity:1;stroke:#1b2933;stroke-width:0.264584;stroke-miterlimit:4;stroke-dasharray:none;stroke-dashoffset:0;stroke-opacity:1"
           d="m 159.95078,98.116573 c -1.00758,-0.197704 -1.79055,-0.946761 -2.05356,-1.964621 -0.0571,-0.220858 -0.065,-0.299246 -0.065,-0.641576 0,-0.342331 0.008,-0.420718 0.065,-0.641577 0.21365,-0.826827 0.78757,-1.499141 1.54641,-1.811518 0.34847,-0.143447 0.50496,-0.172152 0.93911,-0.172253 0.36002,-9.6e-5 0.42958,0.0071 0.64621,0.0669 1.1396,0.314501 1.92119,1.35535 1.92119,2.558443 0,1.203344 -0.78964,2.254021 -1.92119,2.556296 -0.30087,0.08037 -0.80416,0.103668 -1.07817,0.0499 z m -0.13043,-1.499163 v -0.528357 h -0.51348 -0.51348 v 0.09799 c 0,0.15352 0.0881,0.405811 0.18968,0.542987 0.17849,0.241109 0.48077,0.412026 0.73336,0.414657 l 0.10392,0.0011 z m 1.47479,0.477645 c 0.34699,-0.110279 0.60721,-0.415515 0.67475,-0.791486 0.0147,-0.08155 0.0266,-0.163182 0.0266,-0.181398 0,-0.02636 -0.10731,-0.03312 -0.5257,-0.03312 h -0.52571 v 0.528357 0.528357 h 0.0952 c 0.0524,0 0.16703,-0.02282 0.25479,-0.05071 z m -1.47479,-2.691713 v -0.528357 h -0.0973 c -0.14493,0 -0.39348,0.09314 -0.52825,0.197948 -0.23379,0.18182 -0.40142,0.49951 -0.40142,0.760777 v 0.09799 h 0.51348 0.51348 z m 2.17618,0.495238 c 0,-0.19319 -0.1268,-0.531687 -0.25303,-0.675448 -0.17339,-0.197489 -0.47768,-0.348147 -0.70315,-0.348147 h -0.0952 v 0.528357 0.528357 h 0.52571 c 0.41839,0 0.5257,-0.0068 0.5257,-0.03312 z"
           id="path46808" />
      </g>
    </g>
    <circle
       style="fill:none;fill-opacity:1;stroke:#8d8d8d;stroke-width:0.213724;stroke-miterlimit:4;stroke-dasharray:none;stroke-dashoffset:0;stroke-opacity:1"
       id="circle46814"
       cx="61.685242"
       cy="4.1896353"
       r="0.99605936" />
    <path
       style="fill:none;stroke:#6a6a6a;stroke-width:0.529166;stroke-linecap:butt;stroke-linejoin:miter;stroke-miterlimit:4;stroke-dasharray:none;stroke-opacity:1"
       d="m 85.205482,28.589306 v 6.072651"
       id="path47002" />
    <path
       style="fill:none;stroke:#6a6a6a;stroke-width:0.529166;stroke-linecap:butt;stroke-linejoin:miter;stroke-miterlimit:4;stroke-dasharray:none;stroke-opacity:1"
       d="m 108.68515,28.589306 v 6.072651"
       id="path47004" />
    <path
       style="fill:none;stroke:#6a6a6a;stroke-width:0.529166;stroke-linecap:butt;stroke-linejoin:miter;stroke-miterlimit:4;stroke-dasharray:none;stroke-opacity:1"
       d="m 38.246147,28.589306 v 6.072651"
       id="path47008" />
    <path
       style="fill:none;stroke:#6a6a6a;stroke-width:0.529166;stroke-linecap:butt;stroke-linejoin:miter;stroke-miterlimit:4;stroke-dasharray:none;stroke-opacity:1"
       d="m 61.725814,28.589306 v 6.072651"
       id="path47010" />
    <text
       xml:space="preserve"
       transform="matrix(0.1946794,0,0,0.1946794,90.755898,4.6842909)"
       id="text47110"
       style="font-style:normal;font-weight:normal;font-size:30.8056px;line-height:1.25;font-family:sans-serif;white-space:pre;shape-inside:url(#rect47112);fill:#000000;fill-opacity:1;stroke:none"><tspan
         x="60.017578"
         y="199.06042"
         id="tspan60569">-90°</tspan></text>
    <text
       xml:space="preserve"
       transform="matrix(0.1946794,0,0,0.1946794,65.649746,4.6842909)"
       id="text47114"
       style="font-style:normal;font-weight:normal;font-size:30.8056px;line-height:1.25;font-family:sans-serif;white-space:pre;shape-inside:url(#rect47116);fill:#000000;fill-opacity:1;stroke:none"><tspan
         x="60.017578"
         y="199.06042"
         id="tspan60571">-180°</tspan></text>
    <text
       xml:space="preserve"
       transform="matrix(0.1946794,0,0,0.1946794,42.440771,4.6842909)"
       id="text47118"
       style="font-style:normal;font-weight:normal;font-size:30.8056px;line-height:1.25;font-family:sans-serif;white-space:pre;shape-inside:url(#rect47120);fill:#000000;fill-opacity:1;stroke:none"><tspan
         x="60.017578"
         y="199.06042"
         id="tspan60573">-270°</tspan></text>
    <text
       xml:space="preserve"
       transform="matrix(0.1946794,0,0,0.1946794,18.989421,4.6842909)"
       id="text47122"
       style="font-style:normal;font-weight:normal;font-size:30.8056px;line-height:1.25;font-family:sans-serif;white-space:pre;shape-inside:url(#rect47124);fill:#000000;fill-opacity:1;stroke:none"><tspan
         x="60.017578"
         y="199.06042"
         id="tspan60575">-360°</tspan></text>
    <path
       style="fill:none;stroke:#6a6a6a;stroke-width:0.529166;stroke-linecap:butt;stroke-linejoin:miter;stroke-miterlimit:4;stroke-dasharray:none;stroke-opacity:1"
       d="m 249.56425,28.589306 v 6.072651"
       id="path49814" />
    <text
       xml:space="preserve"
       transform="matrix(0.1946794,0,0,0.1946794,231.51387,4.6842909)"
       id="text49896"
       style="font-style:normal;font-weight:normal;font-size:30.8056px;line-height:1.25;font-family:sans-serif;white-space:pre;shape-inside:url(#rect49898);fill:#000000;fill-opacity:1;stroke:none"><tspan
         x="60.017578"
         y="199.06042"
         id="tspan60577">450°</tspan></text>
    <path
       style="fill:none;stroke:#6a6a6a;stroke-width:0.529166;stroke-linecap:butt;stroke-linejoin:miter;stroke-miterlimit:4;stroke-dasharray:none;stroke-opacity:1"
       d="m 14.777749,28.589306 v 6.072651"
       id="path50146" />
    <text
       xml:space="preserve"
       transform="matrix(0.1946794,0,0,0.1946794,-3.7649849,4.6842909)"
       id="text50230"
       style="font-style:normal;font-weight:normal;font-size:30.8056px;line-height:1.25;font-family:sans-serif;white-space:pre;shape-inside:url(#rect50232);fill:#000000;fill-opacity:1;stroke:none"><tspan
         x="60.017578"
         y="199.06042"
         id="tspan60579">-450°</tspan></text>
    <g
       id="g50946"
       inkscape:transform-center-y="1.0673557e-06"
       transform="matrix(0,0.80777541,-0.80777541,0,326.87935,-115.61606)"
       inkscape:transform-center-x="-2.3794578">
      <g
         id="g50936"
         transform="matrix(-2.4946606,0,0,2.4928588,526.65817,90.257045)"
         style="stroke-width:1.203">
        <g
           id="g50926"
           transform="matrix(0.27238917,0,0,0.27239203,-44.656911,-417.97819)"
           style="fill:#c2c2c2;fill-opacity:1;stroke-width:0.349859;stroke-miterlimit:4;stroke-dasharray:none;text-rendering:optimizeLegibility;-webkit-font-smoothing:antialiased">
          <path
             id="path50924"
             style="fill:#c2c2c2;fill-opacity:1;stroke:#1b2933;stroke-width:0.349859;stroke-miterlimit:4;stroke-dasharray:none;stroke-opacity:1;text-rendering:optimizeLegibility;-webkit-font-smoothing:antialiased"
             d="m 702.85851,1530.4546 a 11.996453,11.996235 0 0 0 -11.99737,11.9974 11.996453,11.996235 0 0 0 11.99737,11.9954 11.996453,11.996235 0 0 0 11.99538,-11.9954 11.996453,11.996235 0 0 0 -11.99538,-11.9974 z m 0,1.555 a 3.4351067,3.4351067 0 0 1 3.43494,3.435 3.4351067,3.4351067 0 0 1 -3.43494,3.4349 3.4351067,3.4351067 0 0 1 -3.43494,-3.4349 3.4351067,3.4351067 0 0 1 3.43494,-3.435 z m -7.00744,7.0075 a 3.4351067,3.4351067 0 0 1 3.43494,3.4349 3.4351067,3.4351067 0 0 1 -3.43494,3.435 3.4351067,3.4351067 0 0 1 -3.43494,-3.435 3.4351067,3.4351067 0 0 1 3.43494,-3.4349 z m 14.01488,0 a 3.4351067,3.4351067 0 0 1 3.43493,3.4349 3.4351067,3.4351067 0 0 1 -3.43493,3.435 3.4351067,3.4351067 0 0 1 -3.43494,-3.435 3.4351067,3.4351067 0 0 1 3.43494,-3.4349 z m -7.69124,1.0625 h 1.3656 v 1.6906 h 1.68856 v 1.3656 h -1.68856 v 1.6886 h -1.3656 v -1.6886 h -1.68856 v -1.3656 h 1.68856 z m 0.6838,5.9449 a 3.4351067,3.4351067 0 0 1 3.43494,3.435 3.4351067,3.4351067 0 0 1 -3.43494,3.4349 3.4351067,3.4351067 0 0 1 -3.43494,-3.4349 3.4351067,3.4351067 0 0 1 3.43494,-3.435 z" />
        </g>
        <path
           style="fill:none;fill-opacity:1;stroke:#1b2933;stroke-width:0.0954884;stroke-linecap:round;stroke-linejoin:round;stroke-miterlimit:4;stroke-dasharray:none;stroke-opacity:1"
           id="path50928"
           sodipodi:type="arc"
           sodipodi:cx="146.79387"
           sodipodi:cy="2.1731567"
           sodipodi:rx="2.6088758"
           sodipodi:ry="2.6089087"
           sodipodi:start="1.8599364"
           sodipodi:end="2.8569393"
           sodipodi:open="true"
           sodipodi:arc-type="arc"
           d="M 146.05001,4.6737681 A 2.6088758,2.6089087 0 0 1 144.28998,2.9058029" />
        <path
           style="fill:none;fill-opacity:1;stroke:#1b2933;stroke-width:0.0954884;stroke-linecap:round;stroke-linejoin:round;stroke-miterlimit:4;stroke-dasharray:none;stroke-opacity:1"
           id="path50930"
           sodipodi:type="arc"
           sodipodi:cx="146.79387"
           sodipodi:cy="2.1731567"
           sodipodi:rx="2.6088758"
           sodipodi:ry="2.6089087"
           sodipodi:start="0.28243582"
           sodipodi:end="1.2809297"
           sodipodi:arc-type="arc"
           sodipodi:open="true"
           d="M 149.29938,2.9002486 A 2.6088758,2.6089087 0 0 1 147.53955,4.673227" />
        <path
           style="fill:none;fill-opacity:1;stroke:#1b2933;stroke-width:0.0954884;stroke-linecap:round;stroke-linejoin:round;stroke-miterlimit:4;stroke-dasharray:none;stroke-opacity:1"
           id="path50932"
           sodipodi:type="arc"
           sodipodi:cx="146.79387"
           sodipodi:cy="2.1731567"
           sodipodi:rx="2.6088758"
           sodipodi:ry="2.6089087"
           sodipodi:start="3.4308306"
           sodipodi:end="4.4192812"
           sodipodi:open="true"
           sodipodi:arc-type="arc"
           d="m 144.29336,1.4290388 a 2.6088758,2.6089087 0 0 1 1.74673,-1.75352226" />
        <path
           style="fill:none;fill-opacity:1;stroke:#1b2933;stroke-width:0.0954884;stroke-linecap:round;stroke-linejoin:round;stroke-miterlimit:4;stroke-dasharray:none;stroke-opacity:1"
           id="path50934"
           sodipodi:type="arc"
           sodipodi:cx="146.79387"
           sodipodi:cy="2.1731567"
           sodipodi:rx="2.6088758"
           sodipodi:ry="2.6089087"
           sodipodi:start="4.9961636"
           sodipodi:end="6.0025369"
           sodipodi:open="true"
           sodipodi:arc-type="arc"
           d="m 147.52431,-0.33140981 a 2.6088758,2.6089087 0 0 1 1.77637,1.78195431" />
      </g>
      <g
         id="g50944"
         transform="translate(0,0.19455014)">
        <path
           style="fill:#940a0a;fill-opacity:1;stroke:#1b2933;stroke-width:0.264584;stroke-miterlimit:4;stroke-dasharray:none;stroke-dashoffset:0;stroke-opacity:1"
           d="m 157.8702,94.887517 c 0.005,-0.101642 0.0123,-0.328447 0.0172,-0.504012 0.1009,-3.563151 0.49369,-7.223818 1.11946,-10.433053 0.1357,-0.695915 0.42386,-2.019086 0.5223,-2.39826 l 0.0164,-0.063 h 0.42388 0.42388 v 5.77704 5.777038 l -0.15919,0.01185 c -1.06262,0.07912 -1.95349,0.786013 -2.3093,1.832395 l -0.0628,0.184804 z"
           id="path50938" />
        <path
           style="fill:#b40000;fill-opacity:1;stroke:#1b2933;stroke-width:0.264584;stroke-miterlimit:4;stroke-dasharray:none;stroke-dashoffset:0;stroke-opacity:1"
           d="m 162.91231,94.887517 c -0.005,-0.101642 -0.0123,-0.328447 -0.0172,-0.504012 -0.10091,-3.563151 -0.4937,-7.223818 -1.11947,-10.433053 -0.13569,-0.695915 -0.42385,-2.019086 -0.52229,-2.39826 l -0.0164,-0.063 h -0.42388 -0.42388 v 5.77704 5.777038 l 0.15919,0.01185 c 1.06262,0.07912 1.95349,0.786013 2.3093,1.832395 l 0.0628,0.184804 z"
           id="path50940" />
        <path
           style="fill:#dd2929;fill-opacity:1;stroke:#1b2933;stroke-width:0.264584;stroke-miterlimit:4;stroke-dasharray:none;stroke-dashoffset:0;stroke-opacity:1"
           d="m 159.95078,98.116573 c -1.00758,-0.197704 -1.79055,-0.946761 -2.05356,-1.964621 -0.0571,-0.220858 -0.065,-0.299246 -0.065,-0.641576 0,-0.342331 0.008,-0.420718 0.065,-0.641577 0.21365,-0.826827 0.78757,-1.499141 1.54641,-1.811518 0.34847,-0.143447 0.50496,-0.172152 0.93911,-0.172253 0.36002,-9.6e-5 0.42958,0.0071 0.64621,0.0669 1.1396,0.314501 1.92119,1.35535 1.92119,2.558443 0,1.203344 -0.78964,2.254021 -1.92119,2.556296 -0.30087,0.08037 -0.80416,0.103668 -1.07817,0.0499 z m -0.13043,-1.499163 v -0.528357 h -0.51348 -0.51348 v 0.09799 c 0,0.15352 0.0881,0.405811 0.18968,0.542987 0.17849,0.241109 0.48077,0.412026 0.73336,0.414657 l 0.10392,0.0011 z m 1.47479,0.477645 c 0.34699,-0.110279 0.60721,-0.415515 0.67475,-0.791486 0.0147,-0.08155 0.0266,-0.163182 0.0266,-0.181398 0,-0.02636 -0.10731,-0.03312 -0.5257,-0.03312 h -0.52571 v 0.528357 0.528357 h 0.0952 c 0.0524,0 0.16703,-0.02282 0.25479,-0.05071 z m -1.47479,-2.691713 v -0.528357 h -0.0973 c -0.14493,0 -0.39348,0.09314 -0.52825,0.197948 -0.23379,0.18182 -0.40142,0.49951 -0.40142,0.760777 v 0.09799 h 0.51348 0.51348 z m 2.17618,0.495238 c 0,-0.19319 -0.1268,-0.531687 -0.25303,-0.675448 -0.17339,-0.197489 -0.47768,-0.348147 -0.70315,-0.348147 h -0.0952 v 0.528357 0.528357 h 0.52571 c 0.41839,0 0.5257,-0.0068 0.5257,-0.03312 z"
           id="path50942" />
      </g>
    </g>
    <circle
       style="fill:none;fill-opacity:1;stroke:#8d8d8d;stroke-width:0.213724;stroke-miterlimit:4;stroke-dasharray:none;stroke-dashoffset:0;stroke-opacity:1"
       id="circle50948"
       cx="249.53336"
       cy="4.1896353"
       r="0.99605936" />
    <g
       id="g51052"
       inkscape:transform-center-y="-8.8783205e-06"
       transform="matrix(0,-0.80777541,0.80777541,0,-62.534356,143.61085)"
       inkscape:transform-center-x="2.3794578">
      <g
         id="g51042"
         transform="matrix(-2.4946606,0,0,2.4928588,526.65817,90.257045)"
         style="stroke-width:1.203">
        <g
           id="g51032"
           transform="matrix(0.27238917,0,0,0.27239203,-44.656911,-417.97819)"
           style="fill:#c2c2c2;fill-opacity:1;stroke-width:0.349859;stroke-miterlimit:4;stroke-dasharray:none;text-rendering:optimizeLegibility;-webkit-font-smoothing:antialiased">
          <path
             id="path51030"
             style="fill:#c2c2c2;fill-opacity:1;stroke:#1b2933;stroke-width:0.349859;stroke-miterlimit:4;stroke-dasharray:none;stroke-opacity:1;text-rendering:optimizeLegibility;-webkit-font-smoothing:antialiased"
             d="m 702.85851,1530.4546 a 11.996453,11.996235 0 0 0 -11.99737,11.9974 11.996453,11.996235 0 0 0 11.99737,11.9954 11.996453,11.996235 0 0 0 11.99538,-11.9954 11.996453,11.996235 0 0 0 -11.99538,-11.9974 z m 0,1.555 a 3.4351067,3.4351067 0 0 1 3.43494,3.435 3.4351067,3.4351067 0 0 1 -3.43494,3.4349 3.4351067,3.4351067 0 0 1 -3.43494,-3.4349 3.4351067,3.4351067 0 0 1 3.43494,-3.435 z m -7.00744,7.0075 a 3.4351067,3.4351067 0 0 1 3.43494,3.4349 3.4351067,3.4351067 0 0 1 -3.43494,3.435 3.4351067,3.4351067 0 0 1 -3.43494,-3.435 3.4351067,3.4351067 0 0 1 3.43494,-3.4349 z m 14.01488,0 a 3.4351067,3.4351067 0 0 1 3.43493,3.4349 3.4351067,3.4351067 0 0 1 -3.43493,3.435 3.4351067,3.4351067 0 0 1 -3.43494,-3.435 3.4351067,3.4351067 0 0 1 3.43494,-3.4349 z m -7.69124,1.0625 h 1.3656 v 1.6906 h 1.68856 v 1.3656 h -1.68856 v 1.6886 h -1.3656 v -1.6886 h -1.68856 v -1.3656 h 1.68856 z m 0.6838,5.9449 a 3.4351067,3.4351067 0 0 1 3.43494,3.435 3.4351067,3.4351067 0 0 1 -3.43494,3.4349 3.4351067,3.4351067 0 0 1 -3.43494,-3.4349 3.4351067,3.4351067 0 0 1 3.43494,-3.435 z" />
        </g>
        <path
           style="fill:none;fill-opacity:1;stroke:#1b2933;stroke-width:0.0954884;stroke-linecap:round;stroke-linejoin:round;stroke-miterlimit:4;stroke-dasharray:none;stroke-opacity:1"
           id="path51034"
           sodipodi:type="arc"
           sodipodi:cx="146.79387"
           sodipodi:cy="2.1731567"
           sodipodi:rx="2.6088758"
           sodipodi:ry="2.6089087"
           sodipodi:start="1.8599364"
           sodipodi:end="2.8569393"
           sodipodi:open="true"
           sodipodi:arc-type="arc"
           d="M 146.05001,4.6737681 A 2.6088758,2.6089087 0 0 1 144.28998,2.9058029" />
        <path
           style="fill:none;fill-opacity:1;stroke:#1b2933;stroke-width:0.0954884;stroke-linecap:round;stroke-linejoin:round;stroke-miterlimit:4;stroke-dasharray:none;stroke-opacity:1"
           id="path51036"
           sodipodi:type="arc"
           sodipodi:cx="146.79387"
           sodipodi:cy="2.1731567"
           sodipodi:rx="2.6088758"
           sodipodi:ry="2.6089087"
           sodipodi:start="0.28243582"
           sodipodi:end="1.2809297"
           sodipodi:arc-type="arc"
           sodipodi:open="true"
           d="M 149.29938,2.9002486 A 2.6088758,2.6089087 0 0 1 147.53955,4.673227" />
        <path
           style="fill:none;fill-opacity:1;stroke:#1b2933;stroke-width:0.0954884;stroke-linecap:round;stroke-linejoin:round;stroke-miterlimit:4;stroke-dasharray:none;stroke-opacity:1"
           id="path51038"
           sodipodi:type="arc"
           sodipodi:cx="146.79387"
           sodipodi:cy="2.1731567"
           sodipodi:rx="2.6088758"
           sodipodi:ry="2.6089087"
           sodipodi:start="3.4308306"
           sodipodi:end="4.4192812"
           sodipodi:open="true"
           sodipodi:arc-type="arc"
           d="m 144.29336,1.4290388 a 2.6088758,2.6089087 0 0 1 1.74673,-1.75352226" />
        <path
           style="fill:none;fill-opacity:1;stroke:#1b2933;stroke-width:0.0954884;stroke-linecap:round;stroke-linejoin:round;stroke-miterlimit:4;stroke-dasharray:none;stroke-opacity:1"
           id="path51040"
           sodipodi:type="arc"
           sodipodi:cx="146.79387"
           sodipodi:cy="2.1731567"
           sodipodi:rx="2.6088758"
           sodipodi:ry="2.6089087"
           sodipodi:start="4.9961636"
           sodipodi:end="6.0025369"
           sodipodi:open="true"
           sodipodi:arc-type="arc"
           d="m 147.52431,-0.33140981 a 2.6088758,2.6089087 0 0 1 1.77637,1.78195431" />
      </g>
      <g
         id="g51050"
         transform="translate(0,0.19455014)">
        <path
           style="fill:#940a0a;fill-opacity:1;stroke:#1b2933;stroke-width:0.264584;stroke-miterlimit:4;stroke-dasharray:none;stroke-dashoffset:0;stroke-opacity:1"
           d="m 157.8702,94.887517 c 0.005,-0.101642 0.0123,-0.328447 0.0172,-0.504012 0.1009,-3.563151 0.49369,-7.223818 1.11946,-10.433053 0.1357,-0.695915 0.42386,-2.019086 0.5223,-2.39826 l 0.0164,-0.063 h 0.42388 0.42388 v 5.77704 5.777038 l -0.15919,0.01185 c -1.06262,0.07912 -1.95349,0.786013 -2.3093,1.832395 l -0.0628,0.184804 z"
           id="path51044" />
        <path
           style="fill:#b40000;fill-opacity:1;stroke:#1b2933;stroke-width:0.264584;stroke-miterlimit:4;stroke-dasharray:none;stroke-dashoffset:0;stroke-opacity:1"
           d="m 162.91231,94.887517 c -0.005,-0.101642 -0.0123,-0.328447 -0.0172,-0.504012 -0.10091,-3.563151 -0.4937,-7.223818 -1.11947,-10.433053 -0.13569,-0.695915 -0.42385,-2.019086 -0.52229,-2.39826 l -0.0164,-0.063 h -0.42388 -0.42388 v 5.77704 5.777038 l 0.15919,0.01185 c 1.06262,0.07912 1.95349,0.786013 2.3093,1.832395 l 0.0628,0.184804 z"
           id="path51046" />
        <path
           style="fill:#dd2929;fill-opacity:1;stroke:#1b2933;stroke-width:0.264584;stroke-miterlimit:4;stroke-dasharray:none;stroke-dashoffset:0;stroke-opacity:1"
           d="m 159.95078,98.116573 c -1.00758,-0.197704 -1.79055,-0.946761 -2.05356,-1.964621 -0.0571,-0.220858 -0.065,-0.299246 -0.065,-0.641576 0,-0.342331 0.008,-0.420718 0.065,-0.641577 0.21365,-0.826827 0.78757,-1.499141 1.54641,-1.811518 0.34847,-0.143447 0.50496,-0.172152 0.93911,-0.172253 0.36002,-9.6e-5 0.42958,0.0071 0.64621,0.0669 1.1396,0.314501 1.92119,1.35535 1.92119,2.558443 0,1.203344 -0.78964,2.254021 -1.92119,2.556296 -0.30087,0.08037 -0.80416,0.103668 -1.07817,0.0499 z m -0.13043,-1.499163 v -0.528357 h -0.51348 -0.51348 v 0.09799 c 0,0.15352 0.0881,0.405811 0.18968,0.542987 0.17849,0.241109 0.48077,0.412026 0.73336,0.414657 l 0.10392,0.0011 z m 1.47479,0.477645 c 0.34699,-0.110279 0.60721,-0.415515 0.67475,-0.791486 0.0147,-0.08155 0.0266,-0.163182 0.0266,-0.181398 0,-0.02636 -0.10731,-0.03312 -0.5257,-0.03312 h -0.52571 v 0.528357 0.528357 h 0.0952 c 0.0524,0 0.16703,-0.02282 0.25479,-0.05071 z m -1.47479,-2.691713 v -0.528357 h -0.0973 c -0.14493,0 -0.39348,0.09314 -0.52825,0.197948 -0.23379,0.18182 -0.40142,0.49951 -0.40142,0.760777 v 0.09799 h 0.51348 0.51348 z m 2.17618,0.495238 c 0,-0.19319 -0.1268,-0.531687 -0.25303,-0.675448 -0.17339,-0.197489 -0.47768,-0.348147 -0.70315,-0.348147 h -0.0952 v 0.528357 0.528357 h 0.52571 c 0.41839,0 0.5257,-0.0068 0.5257,-0.03312 z"
           id="path51048" />
      </g>
    </g>
    <circle
       style="fill:none;fill-opacity:1;stroke:#8d8d8d;stroke-width:0.213724;stroke-miterlimit:4;stroke-dasharray:none;stroke-dashoffset:0;stroke-opacity:1"
       id="circle51054"
       cx="14.777588"
       cy="4.1896353"
       r="0.99605936" />
    <path
       style="fill:none;stroke:#000000;stroke-width:0.529167;stroke-linecap:butt;stroke-linejoin:miter;stroke-miterlimit:4;stroke-dasharray:0.529167, 1.05833;stroke-dashoffset:0;stroke-opacity:1"
       d="M 0.1037936,31.656083 H 14.212213"
       id="path51264" />
  </g>
</svg>
